<svg xmlns="http://www.w3.org/2000/svg" viewBox="0 0 896 1372" width="896" height="1372">
	<defs>
		<linearGradient id="grd1" gradientUnits="userSpaceOnUse"  x1="200.839" y1="1353.989" x2="713.45" y2="1281.946">
			<stop offset="0" stop-color="#fdf3f3"  />
			<stop offset="1" stop-color="#ffe5e5"  />
		</linearGradient>
		<linearGradient id="grd2" gradientUnits="userSpaceOnUse"  x1="420.832" y1="1272.083" x2="420.832" y2="1197.647">
			<stop offset="0" stop-color="#83bde9"  />
			<stop offset="1" stop-color="#add1e5"  />
		</linearGradient>
		<linearGradient id="grd3" gradientUnits="userSpaceOnUse"  x1="239.427" y1="1281.212" x2="239.427" y2="1221.219">
			<stop offset="0" stop-color="#83bde9"  />
			<stop offset="1" stop-color="#add1e5"  />
		</linearGradient>
		<linearGradient id="grd4" gradientUnits="userSpaceOnUse"  x1="481.971" y1="1327.729" x2="481.971" y2="1219.959">
			<stop offset="0" stop-color="#f7b1a5"  />
			<stop offset="1" stop-color="#fdc6bd"  />
		</linearGradient>
		<linearGradient id="grd5" gradientUnits="userSpaceOnUse"  x1="481.971" y1="1328.95" x2="481.971" y2="1221.179">
			<stop offset="0" stop-color="#f7b1a5"  />
			<stop offset="1" stop-color="#eab1a7"  />
		</linearGradient>
		<linearGradient id="grd6" gradientUnits="userSpaceOnUse"  x1="546.698" y1="1327.729" x2="546.698" y2="1219.959">
			<stop offset="0" stop-color="#83bde9"  />
			<stop offset="1" stop-color="#add1e5"  />
		</linearGradient>
		<linearGradient id="grd7" gradientUnits="userSpaceOnUse"  x1="342.902" y1="1330.98" x2="342.902" y2="1241.723">
			<stop offset="0" stop-color="#eba194"  />
			<stop offset="1" stop-color="#fdc6bd"  />
		</linearGradient>
		<linearGradient id="grd8" gradientUnits="userSpaceOnUse"  x1="280.002" y1="1330.98" x2="280.002" y2="1241.723">
			<stop offset="0" stop-color="#83bde9"  />
			<stop offset="1" stop-color="#add1e5"  />
		</linearGradient>
		<linearGradient id="grd9" gradientUnits="userSpaceOnUse"  x1="435.616" y1="913.017" x2="275.15" y2="838.191">
			<stop offset="0" stop-color="#231f65"  />
			<stop offset="1" stop-color="#423f8b"  />
		</linearGradient>
		<linearGradient id="grd10" gradientUnits="userSpaceOnUse"  x1="429.727" y1="1037.181" x2="429.727" y2="858.19">
			<stop offset="0" stop-color="#f7b1a5"  />
			<stop offset="1" stop-color="#fdc6bd"  />
		</linearGradient>
		<linearGradient id="grd11" gradientUnits="userSpaceOnUse"  x1="415.045" y1="929.188" x2="415.045" y2="860.767">
			<stop offset="0" stop-color="#f7b1a5"  />
			<stop offset="1" stop-color="#eab1a7"  />
		</linearGradient>
		<linearGradient id="grd12" gradientUnits="userSpaceOnUse"  x1="424.122" y1="1213.499" x2="424.122" y2="922.296">
			<stop offset="0" stop-color="#a795d5"  />
			<stop offset="1" stop-color="#d1c1f1"  />
		</linearGradient>
		<linearGradient id="grd13" gradientUnits="userSpaceOnUse"  x1="344.053" y1="1150.057" x2="344.053" y2="920.429">
			<stop offset="0" stop-color="#eba194"  />
			<stop offset="1" stop-color="#fdc6bd"  />
		</linearGradient>
		<linearGradient id="grd14" gradientUnits="userSpaceOnUse"  x1="501.896" y1="1150.057" x2="501.896" y2="920.658">
			<stop offset="0" stop-color="#dd9285"  />
			<stop offset="1" stop-color="#fdc6bd"  />
		</linearGradient>
		<linearGradient id="grd15" gradientUnits="userSpaceOnUse"  x1="501.774" y1="962.136" x2="501.774" y2="740.048">
			<stop offset="0" stop-color="#423f8b"  />
			<stop offset="1" stop-color="#231f65"  />
		</linearGradient>
		<linearGradient id="grd16" gradientUnits="userSpaceOnUse"  x1="423.879" y1="877.938" x2="423.879" y2="742.625">
			<stop offset="0" stop-color="#f7b1a5"  />
			<stop offset="1" stop-color="#fdc6bd"  />
		</linearGradient>
		<linearGradient id="grd17" gradientUnits="userSpaceOnUse"  x1="427.246" y1="831.804" x2="427.246" y2="792.481">
			<stop offset="0" stop-color="#f7b1a5"  />
			<stop offset="1" stop-color="#eab1a7"  />
		</linearGradient>
		<linearGradient id="grd18" gradientUnits="userSpaceOnUse"  x1="423.879" y1="851.111" x2="423.879" y2="845.601">
			<stop offset="0" stop-color="#f7b1a5"  />
			<stop offset="1" stop-color="#eab1a7"  />
		</linearGradient>
		<linearGradient id="grd19" gradientUnits="userSpaceOnUse"  x1="381.822" y1="974.339" x2="381.822" y2="701">
			<stop offset="0" stop-color="#423f8b"  />
			<stop offset="1" stop-color="#231f65"  />
		</linearGradient>
		<linearGradient id="grd20" gradientUnits="userSpaceOnUse"  x1="264" y1="308" x2="264" y2="290">
			<stop offset="0" stop-color="#75b1e1"  />
			<stop offset="1" stop-color="#add1e5"  />
		</linearGradient>
		<linearGradient id="grd21" gradientUnits="userSpaceOnUse"  x1="223" y1="301" x2="223" y2="285">
			<stop offset="0" stop-color="#2fc9b7"  />
			<stop offset="1" stop-color="#71e2d4"  />
		</linearGradient>
		<linearGradient id="grd22" gradientUnits="userSpaceOnUse"  x1="162" y1="554" x2="162" y2="538">
			<stop offset="0" stop-color="#2fc9b7"  />
			<stop offset="1" stop-color="#71e2d4"  />
		</linearGradient>
		<linearGradient id="grd23" gradientUnits="userSpaceOnUse"  x1="234" y1="696" x2="234" y2="680">
			<stop offset="0" stop-color="#2fc9b7"  />
			<stop offset="1" stop-color="#71e2d4"  />
		</linearGradient>
		<linearGradient id="grd24" gradientUnits="userSpaceOnUse"  x1="491.5" y1="344" x2="491.5" y2="323">
			<stop offset="0" stop-color="#75b1e1"  />
			<stop offset="1" stop-color="#add1e5"  />
		</linearGradient>
		<linearGradient id="grd25" gradientUnits="userSpaceOnUse"  x1="515.5" y1="275" x2="515.5" y2="263">
			<stop offset="0" stop-color="#2fc9b7"  />
			<stop offset="1" stop-color="#71e2d4"  />
		</linearGradient>
		<linearGradient id="grd26" gradientUnits="userSpaceOnUse"  x1="192.5" y1="442" x2="192.5" y2="422">
			<stop offset="0" stop-color="#75b1e1"  />
			<stop offset="1" stop-color="#add1e5"  />
		</linearGradient>
		<linearGradient id="grd27" gradientUnits="userSpaceOnUse"  x1="597" y1="375" x2="597" y2="363">
			<stop offset="0" stop-color="#75b1e1"  />
			<stop offset="1" stop-color="#add1e5"  />
		</linearGradient>
		<linearGradient id="grd28" gradientUnits="userSpaceOnUse"  x1="126" y1="313" x2="126" y2="285">
			<stop offset="0" stop-color="#75b1e1"  />
			<stop offset="1" stop-color="#add1e5"  />
		</linearGradient>
		<linearGradient id="grd29" gradientUnits="userSpaceOnUse"  x1="446.5" y1="59" x2="446.5" y2="29">
			<stop offset="0" stop-color="#2fc9b7"  />
			<stop offset="1" stop-color="#71e2d4"  />
		</linearGradient>
		<linearGradient id="grd30" gradientUnits="userSpaceOnUse"  x1="458.5" y1="569" x2="458.5" y2="539">
			<stop offset="0" stop-color="#2fc9b7"  />
			<stop offset="1" stop-color="#71e2d4"  />
		</linearGradient>
		<linearGradient id="grd31" gradientUnits="userSpaceOnUse"  x1="159.5" y1="359" x2="159.5" y2="329">
			<stop offset="0" stop-color="#2fc9b7"  />
			<stop offset="1" stop-color="#71e2d4"  />
		</linearGradient>
		<linearGradient id="grd32" gradientUnits="userSpaceOnUse"  x1="141" y1="193" x2="141" y2="165">
			<stop offset="0" stop-color="#75b1e1"  />
			<stop offset="1" stop-color="#add1e5"  />
		</linearGradient>
		<linearGradient id="grd33" gradientUnits="userSpaceOnUse"  x1="400" y1="475" x2="400" y2="317">
			<stop offset="0" stop-color="#75b1e1"  />
			<stop offset="1" stop-color="#add1e5"  />
		</linearGradient>
		<linearGradient id="grd34" gradientUnits="userSpaceOnUse"  x1="402" y1="308" x2="402" y2="133">
			<stop offset="0" stop-color="#75b1e1"  />
			<stop offset="1" stop-color="#add1e5"  />
		</linearGradient>
		<linearGradient id="grd35" gradientUnits="userSpaceOnUse"  x1="399.5" y1="320" x2="399.5" y2="306">
			<stop offset="0" stop-color="#75b1e1"  />
			<stop offset="1" stop-color="#add1e5"  />
		</linearGradient>
		<linearGradient id="grd36" gradientUnits="userSpaceOnUse"  x1="494" y1="612" x2="494" y2="454">
			<stop offset="0" stop-color="#75b1e1"  />
			<stop offset="1" stop-color="#add1e5"  />
		</linearGradient>
		<linearGradient id="grd37" gradientUnits="userSpaceOnUse"  x1="250.088" y1="680" x2="263.912" y2="522">
			<stop offset="0" stop-color="#d1c1f1"  />
			<stop offset="1" stop-color="#b5a3dd"  />
		</linearGradient>
		<linearGradient id="grd38" gradientUnits="userSpaceOnUse"  x1="251.345" y1="513" x2="266.655" y2="338">
			<stop offset="0" stop-color="#d1c1f1"  />
			<stop offset="1" stop-color="#b5a3dd"  />
		</linearGradient>
		<linearGradient id="grd39" gradientUnits="userSpaceOnUse"  x1="255.888" y1="525" x2="257.112" y2="511">
			<stop offset="0" stop-color="#d1c1f1"  />
			<stop offset="1" stop-color="#b5a3dd"  />
		</linearGradient>
	</defs>
	<style>
		tspan { white-space:pre }
		.shp0 { opacity: 0.659;fill: url(#grd1) } 
		.shp1 { fill: url(#grd2) } 
		.shp2 { fill: url(#grd3) } 
		.shp3 { fill: url(#grd4) } 
		.shp4 { opacity: 0.659;fill: url(#grd5) } 
		.shp5 { fill: url(#grd6) } 
		.shp6 { fill: url(#grd7) } 
		.shp7 { fill: url(#grd8) } 
		.shp8 { fill: url(#grd9) } 
		.shp9 { fill: url(#grd10) } 
		.shp10 { opacity: 0.659;fill: url(#grd11) } 
		.shp11 { fill: url(#grd12) } 
		.shp12 { opacity: 0.659;fill: #b9a6e1 } 
		.shp13 { fill: url(#grd13) } 
		.shp14 { fill: url(#grd14) } 
		.shp15 { fill: url(#grd15) } 
		.shp16 { fill: url(#grd16) } 
		.shp17 { opacity: 0.659;fill: url(#grd17) } 
		.shp18 { opacity: 0.659;fill: url(#grd18) } 
		.shp19 { fill: url(#grd19) } 
		.shp20 { fill: #efefff } 
		.shp21 { fill: #9a82ca } 
		.shp22 { fill: url(#grd20) } 
		.shp23 { fill: url(#grd21) } 
		.shp24 { fill: url(#grd22) } 
		.shp25 { fill: url(#grd23) } 
		.shp26 { fill: url(#grd24) } 
		.shp27 { fill: url(#grd25) } 
		.shp28 { fill: url(#grd26) } 
		.shp29 { fill: url(#grd27) } 
		.shp30 { fill: url(#grd28) } 
		.shp31 { fill: url(#grd29) } 
		.shp32 { fill: url(#grd30) } 
		.shp33 { fill: url(#grd31) } 
		.shp34 { fill: url(#grd32) } 
		.shp35 { fill: url(#grd33) } 
		.shp36 { fill: url(#grd34) } 
		.shp37 { fill: url(#grd35) } 
		.shp38 { fill: url(#grd36) } 
		.shp39 { opacity: 0.659;fill: url(#grd37) } 
		.shp40 { opacity: 0.659;fill: url(#grd38) } 
		.shp41 { opacity: 0.659;fill: url(#grd39) } 
	</style>
	<g id="Text">
		<g id="Illustration">
			<path id="Ellipse 16" class="shp0" d="M471.23 1299C577.03 1299 668.18 1282.86 737.19 1282C824.49 1280.91 876.33 1295.64 877.16 1303C883.16 1356.25 710.88 1337 471.23 1337C367.29 1337 271.89 1356.98 197.17 1353.61C99.61 1349.21 37.31 1330.5 37.31 1323C37.31 1319.67 33.2 1304.88 55.31 1302C121.31 1293.4 291.71 1299 471.23 1299Z" />
			<g id="2">
				<path id="Forme 45" class="shp1" d="M319.66 1231.81L342.82 1197.65C342.82 1197.65 388.54 1208.63 429.36 1208.63C468.97 1208.63 503.72 1197.65 503.72 1197.65L522 1225.71C522 1225.71 515.03 1241.32 497.62 1252.56C479.16 1264.48 449.64 1272.08 429.36 1272.08C388.34 1272.08 319.66 1231.81 319.66 1231.81Z" />
				<path id="Forme 48" class="shp2" d="M156.5 1281.21L156.16 1280.04C156.16 1280.04 147.7 1241.03 184.37 1229.37C245.36 1209.98 321.93 1231.23 321.93 1231.23L322.27 1232.4C322.27 1232.4 330.21 1260.15 306.26 1267.2C257.15 1281.66 156.5 1281.21 156.5 1281.21Z" />
				<path id="Forme 46" class="shp3" d="M397.67 1314.79L394.02 1311.13C394.02 1311.13 306.28 1276.02 296.51 1247.68C294.64 1242.26 297.57 1235.71 302.6 1231.81C304.74 1230.15 311.72 1225.17 320.88 1225.71C332.41 1226.39 346.5 1233.76 365.98 1242.8C373.07 1246.09 381.32 1240.72 389.14 1242.8C403.76 1246.67 417.25 1260.19 431.8 1259.88C466.13 1259.15 496.13 1251.89 498.84 1245.24C505.19 1229.64 515.07 1228.2 529.31 1225.71C689.12 1197.87 666.96 1280.02 666.96 1280.02L667.13 1281.23C667.13 1281.23 648.16 1314.02 590.26 1322.11C568.19 1325.2 542.47 1328.28 517.15 1327.65C456.27 1326.12 397.67 1314.79 397.67 1314.79Z" />
				<path id="Forme 46 copie" class="shp4" d="M397.67 1316.01L394.02 1312.35C394.02 1312.35 306.28 1277.24 296.51 1248.9C294.64 1243.48 297.57 1236.93 302.6 1233.03C304.74 1231.37 311.72 1226.39 320.88 1226.93C332.41 1227.61 346.5 1234.98 365.98 1244.02C373.07 1247.31 381.32 1241.94 389.14 1244.02C403.76 1247.89 417.25 1261.41 431.8 1261.1C466.13 1260.37 496.13 1253.11 498.84 1246.46C505.19 1230.86 515.07 1229.42 529.31 1226.93C689.12 1199.09 666.96 1281.24 666.96 1281.24L667.13 1282.45C667.13 1282.45 648.16 1315.24 590.26 1323.34C568.19 1326.42 542.47 1329.5 517.15 1328.87C456.27 1327.34 397.67 1316.01 397.67 1316.01Z" />
				<path id="Forme 46 copie 2" class="shp5" d="M431.8 1320.89C431.8 1320.89 417.37 1261.15 431.8 1259.88C466.01 1256.87 496.13 1251.89 498.84 1245.24C505.19 1229.64 515.07 1228.2 529.31 1225.71C689.12 1197.87 666.96 1280.02 666.96 1280.02L667.13 1281.23C667.13 1281.23 648.16 1314.02 590.26 1322.11C568.19 1325.2 542.47 1328.28 517.15 1327.65C456.27 1326.12 431.8 1320.89 431.8 1320.89Z" />
				<path id="Forme 47" class="shp6" d="M526.88 1317.23L513.47 1327C513.47 1327 387.79 1318.39 359.89 1322.11C321.59 1327.23 267.24 1335.26 223.37 1328.22C178.44 1321 155.02 1278.79 155.02 1278.79C155.02 1278.79 170.77 1248.33 192.9 1242.8C215.9 1237.05 242.87 1256.22 242.87 1256.22C242.87 1256.22 221.78 1244.41 296.51 1247.68C340.58 1249.6 382.63 1288.05 424.49 1289.17C465.82 1290.27 496.18 1277.26 517.12 1281.85C540.42 1286.94 526.88 1317.23 526.88 1317.23Z" />
				<path id="Forme 47 copie" class="shp7" d="M359.89 1322.11C321.59 1327.23 267.24 1335.26 223.37 1328.22C178.44 1321 155.02 1278.79 155.02 1278.79C155.02 1278.79 170.77 1248.33 192.9 1242.8C215.9 1237.05 242.87 1256.22 242.87 1256.22C242.87 1256.22 221.78 1244.41 296.51 1247.68C340.58 1249.6 363.12 1279.51 404.99 1280.62C403.45 1280.46 360.98 1323.27 359.89 1322.11Z" />
				<path id="Forme 54" class="shp8" d="M304.13 965.1L303.5 964.05C303.5 964.05 257 941.5 283.1 891.36C290.94 876.3 398.57 779.76 426.93 786.42C455.45 793.11 404.67 903.04 404.67 903.04L405.3 904.09L304.13 965.1Z" />
				<path id="Forme 51" class="shp9" d="M363.5 1027.42L363.59 1026.2C363.59 1026.2 353.31 968.08 364.76 927.97C368.31 915.54 387.19 919.72 392.8 909.66C403.57 890.38 390.49 865.05 400.11 865.74C408.87 866.36 433.31 849.31 443.99 864.51C449.92 872.96 444.9 892.69 450.09 904.78C452.29 909.92 459.4 915.77 465.99 920.56C471.34 924.44 476.35 927.2 478.12 931.63C498.11 981.61 500.1 1035.96 500.1 1035.96L500.02 1037.18L363.5 1027.42Z" />
				<path id="Forme 62" class="shp10" d="M393.41 860.77L445.21 860.85L391.58 929.19L384.88 920.56C384.88 920.56 395.42 910.82 397.67 895.02C399.67 881.04 393.41 860.77 393.41 860.77Z" />
				<path id="Forme 49" class="shp11" d="M331.24 1031.73C331.24 1031.73 340.54 1017.69 345.26 997.52C347.74 986.93 346.33 971.14 348.92 959.7C352.76 942.7 361.28 930.77 370.86 923.09C384.59 912.07 335.03 1019.54 415.96 1024.37C513.23 1030.18 462.9 928.07 475.68 926.75C479.81 926.32 505.78 930.79 505.18 935.29C497.72 991.88 517 1030 517 1030C517 1030 497.78 1077.62 494.05 1123.17C491.77 1151.02 501.28 1179.19 502.5 1197.65C503.74 1216.46 436.92 1215.82 389.5 1209.56C363.56 1206.13 343.43 1197.61 343.43 1197.61L342.21 1197.69C342.21 1197.69 353.46 1165 351.06 1128.64C348.05 1083.07 331.24 1031.73 331.24 1031.73Z" />
				<path id="Forme 64" class="shp12" d="M331.25 1028.07L332.46 1027.99C332.46 1027.99 362.76 1074.02 365.98 1119.55C368.83 1159.71 344.65 1200.04 344.65 1200.04L343.43 1200.13C343.43 1200.13 353.05 1160.7 350.14 1119.55C346.97 1074.82 331.25 1028.07 331.25 1028.07Z" />
				<path id="Forme 50" class="shp13" d="M330.63 1030.47C330.63 1030.47 340.85 1020.03 345.26 1001.18C351.41 974.93 352.04 936.42 348.92 923.09C345.72 909.45 312.35 952.37 312.35 952.37C312.35 952.37 303.69 962.65 297.27 978.21C288.41 999.69 280.53 1031.25 275.78 1059.76C272.06 1082.13 261.08 1115.93 263.6 1131.75C266.24 1148.4 281.27 1150.06 289.19 1150.06C297.11 1150.06 325.15 1141.51 336.73 1136.63C348.31 1131.75 386.82 1114.21 418.39 1093.92C433.17 1067.85 417.63 986.77 420.83 980.44C421.73 978.67 410.31 980.83 406.21 1002.4C403.56 1016.33 409.94 1049.08 398.89 1060.98C371.48 1090.48 308.68 1098.45 309.91 1095.14C319.03 1070.62 321.15 1038.85 325.76 1028.03C327.39 1024.21 330.63 1030.47 330.63 1030.47Z" />
				<path id="Forme 50 copie" class="shp14" d="M515.35 1030.59C515.35 1030.59 508.11 1020.16 503.69 1001.33C501.36 991.44 498.6 979.82 497.76 968.45C496.36 949.67 498.07 931.61 500.02 923.31C503.22 909.69 533.68 952.57 533.68 952.57C533.68 952.57 542.37 962.84 548.8 978.38C557.68 999.84 565.58 1031.37 570.34 1059.85C574.08 1082.2 585.08 1115.97 582.56 1131.77C579.91 1148.4 564.84 1150.06 556.9 1150.06C548.96 1150.06 520.85 1141.52 509.24 1136.65C497.63 1131.77 459.02 1114.25 427.36 1093.98C412.54 1067.93 428.13 986.93 424.92 980.61C424.02 978.84 435.47 981 439.58 1002.55C442.24 1016.46 435.84 1049.18 446.92 1061.07C474.39 1090.54 537.36 1098.5 536.12 1095.2C526.99 1070.7 524.86 1038.97 520.24 1028.15C518.6 1024.33 515.35 1030.59 515.35 1030.59Z" />
				<path id="Forme 52" class="shp15" d="M456.84 750.05L461.06 740.05C461.06 740.05 480.59 743.8 489.09 755.91C506.15 780.2 494.11 820.09 506.15 851.09C517.1 879.25 540.8 879.35 554.91 913.33C567.56 943.77 542.72 960.92 542.72 960.92L540.28 962.14C540.28 962.14 526.63 947.27 503.72 937.73C482.3 928.81 458.5 922.27 452.52 908.44C452.25 907.8 450.98 907.16 450.72 906.51C438.95 876.87 448.52 840.32 452.52 809.6C456.86 776.36 456.84 750.05 456.84 750.05Z" />
				<path id="Ellipse 22" class="shp16" d="M434.88 742.63C463.49 742.63 475.68 760.5 475.68 802.28C475.68 844.07 452.49 877.94 423.88 877.94C395.27 877.94 372.08 844.07 372.08 802.28C372.08 760.5 406.27 742.63 434.88 742.63Z" />
				<path id="Forme 63" class="shp17" d="M422.66 792.48L423.88 792.56C423.88 792.56 434.9 814.27 434.24 824.86C433.69 833.62 421.44 831.61 421.44 831.61L420.22 831.53L422.66 792.48Z" />
				<path id="Forme 84" class="shp18" d="M400.13 848.04L400.1 846.82C400.1 846.82 406.25 847.01 414.13 846.46C419.5 846.08 425.67 846.94 431.23 846.8C440.21 846.57 447.63 845.6 447.63 845.6L447.66 846.82C447.66 846.82 436.58 850.78 424.49 851.09C412.82 851.39 400.13 848.04 400.13 848.04Z" />
				<path id="Forme 53" class="shp19" d="M461.06 740.05L461.06 751.03C461.06 751.03 448.18 737.48 427.21 752C426.32 752.62 425.41 753.29 424.49 754.03C410.94 764.82 406.67 789.17 396.45 823.03C393.77 831.94 377.41 841.88 374.51 851.09C367.17 874.42 393.45 912.81 389.14 932.85C382.24 964.97 347.03 973.38 347.03 973.38L347.7 974.34C347.7 974.34 307.29 963.28 306.26 945.05C305.56 932.83 297.52 914.13 307.48 897.46C316.49 882.36 335.62 865.25 340.39 853.53C347.55 835.92 330.07 803.93 336.73 790.08C342.23 778.64 358.11 769.67 367.2 754.69C382.18 730.01 375.51 701.05 409.86 701C464.9 700.92 461.06 740.05 461.06 740.05Z" />
			</g>
			<path id="Rectangle 3" class="shp20" d="M363 446L379 442L378 449L362 456L363 446Z" />
			<path id="Rectangle 3 copie" class="shp21" d="M363 506L378 496L388 498L371 516L363 506Z" />
			<path id="Rectangle 3 copie 2" class="shp22" d="M258 305L261 290L270 295L267 308L258 305Z" />
			<path id="Rectangle 3 copie 3" class="shp23" d="M216 301L219 287L230 285L228 299L216 301Z" />
			<path id="Rectangle 3 copie 5" class="shp24" d="M155 554L158 540L169 538L167 552L155 554Z" />
			<path id="Rectangle 3 copie 6" class="shp25" d="M227 696L230 682L241 680L239 694L227 696Z" />
			<path id="Rectangle 3 copie 4" class="shp21" d="M205 236L208 216L220 215L216 233L205 236Z" />
			<path id="Rectangle 3 copie 22" class="shp21" d="M281 268L284 248L296 247L292 265L281 268Z" />
			<path id="Rectangle 3 copie 22" class="shp26" d="M487 341L488 323L494 327L496 344L487 341Z" />
			<path id="Rectangle 3 copie 22" class="shp27" d="M517 275L506 267L511 263L525 268L517 275Z" />
			<path id="Rectangle 3 copie 22" class="shp21" d="M543 239L534 233L535 225L545 229L543 239Z" />
			<path id="Rectangle 3 copie 10" class="shp28" d="M196 439L186 442L188 422L199 422L196 439Z" />
			<path id="Rectangle 3 copie 11" class="shp21" d="M580 305L571 311L550 303L564 294L580 305Z" />
			<path id="Rectangle 3 copie 32" class="shp21" d="M292 763L283 769L262 761L276 752L292 763Z" />
			<path id="Rectangle 3 copie 33" class="shp21" d="M162 486L153 492L132 484L146 475L162 486Z" />
			<path id="Rectangle 3 copie 12" class="shp29" d="M608 363L605 371L586 375L591 363L608 363Z" />
			<path id="Rectangle 3 copie 13" class="shp30" d="M131 285L135 293L126 313L117 301L131 285Z" />
			<path id="Rectangle 3 copie 14" class="shp31" d="M443 30L454 29L450 55L439 59L443 30Z" />
			<path id="Rectangle 3 copie 25" class="shp32" d="M455 540L466 539L462 565L451 569L455 540Z" />
			<path id="Rectangle 3 copie 26" class="shp33" d="M156 330L167 329L163 355L152 359L156 330Z" />
			<path id="Rectangle 3 copie 15" class="shp21" d="M375 72L410 56L408 79L372 88L375 72Z" />
			<path id="Rectangle 3 copie 16" class="shp20" d="M255 79L278 79L276 90L251 94L255 79Z" />
			<path id="Rectangle 3 copie 23" class="shp20" d="M329 329L352 329L350 340L325 344L329 329Z" />
			<path id="Rectangle 3 copie 24" class="shp20" d="M510 569L533 569L531 580L506 584L510 569Z" />
			<path id="Rectangle 3 copie 30" class="shp20" d="M193 745L216 745L214 756L189 760L193 745Z" />
			<path id="Rectangle 3 copie 31" class="shp20" d="M200 619L223 619L221 630L196 634L200 619Z" />
			<path id="Rectangle 3 copie 17" class="shp21" d="M212 108L227 115L226 124L212 117L212 108Z" />
			<path id="Rectangle 3 copie 21" class="shp20" d="M351 604L374 604L372 615L347 619L351 604Z" />
			<path id="Rectangle 3 copie 21" class="shp21" d="M313 619L328 626L327 635L313 628L313 619Z" />
			<path id="Rectangle 3 copie 27" class="shp21" d="M379 376L394 383L393 392L379 385L379 376Z" />
			<path id="Rectangle 3 copie 28" class="shp21" d="M296 143L311 150L310 159L296 152L296 143Z" />
			<path id="Rectangle 3 copie 29" class="shp21" d="M525 459L540 466L539 475L525 468L525 459Z" />
			<path id="Rectangle 3 copie 18" class="shp34" d="M136 165L145 167L147 193L135 188L136 165Z" />
			<path id="Rectangle 3 copie 19" class="shp21" d="M490 97L499 99L501 125L489 120L490 97Z" />
			<path id="Rectangle 3 copie 20" class="shp20" d="M474 388L484 382L508 394L493 403L474 388Z" />
			<path id="Rectangle 4" class="shp21" d="M147 421L158 417L169 423L155 430L147 421Z" />
			<path id="Rectangle 2" class="shp35" d="M397 317L400 317C400 317 395.2 326.84 397 341C398.69 354.27 407 371.28 407 389.25C407 402.46 402.08 416.91 400.25 429.14C398.58 440.23 400 449.31 400 457.25C400 468.13 399 475 399 475L397 475C397 475 397.33 467.61 396.98 456.02C396.76 448.49 395.67 439.19 396 429C396.4 416.48 403.23 402.6 402.85 389C402.35 371.34 393 354.15 393 341C393 326.57 397 317 397 317Z" />
			<path id="Ellipse 1" class="shp36" d="M402 133C441.21 133 471 163.5 471 211C471 258.5 441.21 308 402 308C362.79 308 333 259.5 333 212C333 164.5 362.79 133 402 133Z" />
			<path id="Rectangle 1" class="shp37" d="M394 306C394 306 397.09 307 400 307C402.57 307 405 306 405 306C405 306 405.51 309.03 407.13 312.27C409 315.99 412 320 412 320C412 320 404.53 318.4 397.76 317.86C392.14 317.41 387 318 387 318C387 318 390.26 314.13 392.21 310.79C393.69 308.24 394 306 394 306Z" />
			<path id="Rectangle 2 copie 2" class="shp38" d="M491 454L494 454C494 454 489.2 463.84 491 478C492.69 491.27 501 508.28 501 526.25C501 539.46 496.08 553.91 494.25 566.14C492.58 577.23 494 586.31 494 594.25C494 605.13 493 612 493 612L491 612C491 612 491.33 604.61 490.98 593.02C490.76 585.49 489.67 576.19 490 566C490.4 553.48 497.23 539.6 496.85 526C496.35 508.34 487 491.15 487 478C487 463.57 491 454 491 454Z" />
			<path id="Rectangle 2 copie" class="shp39" d="M254 522L257 522C257 522 252.2 531.84 254 546C255.69 559.27 264 576.28 264 594.25C264 607.46 259.08 621.92 257.25 634.14C255.58 645.23 257 654.31 257 662.25C257 673.13 256 680 256 680L254 680C254 680 254.33 672.61 253.98 661.02C253.76 653.49 252.67 644.19 253 634C253.4 621.48 260.23 607.6 259.85 594C259.35 576.34 250 559.15 250 546C250 531.57 254 522 254 522Z" />
			<path id="Ellipse 1 copie" class="shp40" d="M259 338C298.21 338 328 368.5 328 416C328 463.5 298.21 513 259 513C219.79 513 190 464.5 190 417C190 369.5 219.79 338 259 338Z" />
			<path id="Rectangle 1 copie" class="shp41" d="M251 511L262 511C262 511 262.31 513.62 263.8 516.6C265.75 520.5 269 525 269 525C269 525 261.53 523.4 254.76 522.86C249.14 522.41 244 523 244 523C244 523 247.26 519.13 249.21 515.79C250.69 513.24 251 511 251 511Z" />
		</g>
	</g>
</svg>