<svg xmlns="http://www.w3.org/2000/svg" viewBox="0 0 25.83 26"><defs><style>.ec86c792-6703-477e-8210-bda1d3303ac0{fill:#231f20;}</style></defs><title>chat</title><g id="b0f2f2dc-5ea1-4db4-ab96-300a4ef7803a" data-name="Layer 2"><g id="b4cea88a-920a-41e3-9616-f69c9e1d6af8" data-name="set"><g id="bbe7f25a-d2b1-45ef-87eb-62a075f42811" data-name="chat"><path class="ec86c792-6703-477e-8210-bda1d3303ac0" d="M12.83,26a13.08,13.08,0,0,1-6.09-1.52l-4.85,1.3A1.5,1.5,0,0,1,.05,23.94l1.3-4.86A12.91,12.91,0,0,1,.14,15.84a1.5,1.5,0,1,1,2.93-.66,9.9,9.9,0,0,0,1.18,2.93,1.52,1.52,0,0,1,.16,1.16l-.79,2.94,2.94-.79a1.48,1.48,0,0,1,1.16.16,10,10,0,1,0-4-12.66A1.5,1.5,0,1,1,1,7.7,13,13,0,1,1,12.83,26Z"/><path class="ec86c792-6703-477e-8210-bda1d3303ac0" d="M18.33,12h-11a1.5,1.5,0,1,1,0-3h11a1.5,1.5,0,0,1,0,3Z"/><path class="ec86c792-6703-477e-8210-bda1d3303ac0" d="M13.33,16h-6a1.5,1.5,0,1,1,0-3h6a1.5,1.5,0,0,1,0,3Z"/></g></g></g></svg>