<svg xmlns="http://www.w3.org/2000/svg" viewBox="0 0 186 186"><defs><style>.cls-1{opacity:0.11;}.cls-1,.cls-3,.cls-6{isolation:isolate;}.cls-2{fill:#f68480;}.cls-4{fill:#f7b8b6;}.cls-5{fill:#f6a3a0;}.cls-6{opacity:0.08;}.cls-7{fill:#f8b8b6;}.cls-8{fill:#380479;}</style></defs><title>myLocation</title><g id="Layer_2" data-name="Layer 2"><g id="Ellipse_8_copie_5" data-name="Ellipse 8 copie 5" class="cls-1"><g id="Ellipse_8_copie_5-2" data-name="Ellipse 8 copie 5"><circle class="cls-2" cx="94" cy="94" r="52"/></g></g><g id="Ellipse_8" data-name="Ellipse 8" class="cls-3"><g id="Ellipse_8-2" data-name="Ellipse 8"><path class="cls-4" d="M96,107.49a13.47,13.47,0,1,1,12-7.2A13.51,13.51,0,0,1,96,107.49Z"/><path class="cls-5" d="M96,82a12,12,0,0,1,12,12,11.84,11.84,0,0,1-1.38,5.6A12,12,0,1,1,96,82m0-3a15,15,0,1,0,15,15A15,15,0,0,0,96,79Z"/></g></g><g id="Ellipse_8_copie_6" data-name="Ellipse 8 copie 6" class="cls-6"><g id="Ellipse_8_copie_6-2" data-name="Ellipse 8 copie 6"><path class="cls-7" d="M93,185a92,92,0,1,1,92-92A92.1,92.1,0,0,1,93,185Z"/><path class="cls-8" d="M93,2A91,91,0,1,1,2,93,91.1,91.1,0,0,1,93,2m0-2a93,93,0,1,0,93,93A93,93,0,0,0,93,0Z"/></g></g></g></svg>