<svg xmlns="http://www.w3.org/2000/svg" viewBox="0 0 61.05 34.88">
  <defs>
  </defs>
    <g id="filters">
      <g>
        <path class="cls-1" d="M15.59,27.47H3.16a3.1,3.1,0,0,0-3.1,2.45,3,3,0,0,0,2.4,3.5,2.5,2.5,0,0,0,.55,0H15.75A7.76,7.76,0,0,1,15.59,27.47Z"/>
        <path class="cls-1" d="M59,27.64a3.21,3.21,0,0,0-1-.17H30.29a7.8,7.8,0,0,1,.12,6H57.92A3,3,0,0,0,59,27.64Z"/>
      </g>
      <path class="cls-1" d="M25.17,26.59a4.39,4.39,0,0,0-6,6,4.59,4.59,0,0,0,1.7,1.69,4.39,4.39,0,0,0,6-6A4.75,4.75,0,0,0,25.17,26.59Z"/>
      <g>
        <path class="cls-1" d="M58.58,1.52A3.66,3.66,0,0,0,58,1.47H51.29a7.8,7.8,0,0,1,.12,6h6.45A3.09,3.09,0,0,0,61,5,3,3,0,0,0,58.58,1.52Z"/>
        <path class="cls-1" d="M36.59,1.47H3.16A3.1,3.1,0,0,0,.06,3.89,3,3,0,0,0,2.42,7.42a3.81,3.81,0,0,0,.59,0H36.75A7.76,7.76,0,0,1,36.59,1.47Z"/>
      </g>
      <path class="cls-1" d="M46.17.59a4.39,4.39,0,0,0-6,6,4.59,4.59,0,0,0,1.7,1.69,4.39,4.39,0,0,0,6-6A4.75,4.75,0,0,0,46.17.59Z"/>
    </g>
</svg>
