<svg xmlns="http://www.w3.org/2000/svg" viewBox="0 3 375 82.33">
  <defs>
    <clipPath id="svgPath">
      <path d="M338,0H254.83c-21.33.4-24.51,14.26-33.18,26.63-6.75,9.61-18.39,18.11-33,18-15.37.84-27.53-8.53-34.26-18.21C145.8,14.08,146.46.72,122.5,0H37A37,37,0,0,0,0,37V82.33H375V37A37,37,0,0,0,338,0Z"/>
    </clipPath>
  </defs>
  <title>menu</title>
  <path d="M338,0H254.83c-21.33.4-24.51,14.26-33.18,26.63-6.75,9.61-18.39,18.11-33,18-15.37.84-27.53-8.53-34.26-18.21C145.8,14.08,146.46.72,122.5,0H37A37,37,0,0,0,0,37V82.33H375V37A37,37,0,0,0,338,0Z"/>
</svg>
