<svg xmlns="http://www.w3.org/2000/svg" viewBox="0 0 25.4 17.57"><defs><style>.fe8df523-27ff-4ead-b872-571def33223a{fill:#231f20;}</style></defs><title>forrward</title><g id="fbaffac5-64a7-4fac-b2c7-8b58e49c3a73" data-name="Layer 2"><g id="bfb265f3-9322-47ba-92ce-e3e210b306d8" data-name="set"><path class="fe8df523-27ff-4ead-b872-571def33223a" d="M16.2,17.57a2.28,2.28,0,0,1-.84-.16,2.2,2.2,0,0,1-1.36-2V12.53c-1.64-.46-6.18-1-12,4.07a1.19,1.19,0,0,1-1.39.13A1.19,1.19,0,0,1,0,15.46,14.21,14.21,0,0,1,8.67,5.63a1.2,1.2,0,0,1,.86,2.24,11.58,11.58,0,0,0-5.38,4.2c6.62-3.84,11.35-1.56,11.59-1.45a1.21,1.21,0,0,1,.66,1.08v3.19l6.1-6.18-6.1-6v3a1.2,1.2,0,1,1-2.4,0V2.2A2.2,2.2,0,0,1,17.75.64L25,7.84a1.2,1.2,0,0,1,0,1.7l-7.28,7.38A2.2,2.2,0,0,1,16.2,17.57Z"/></g></g></svg>