<svg xmlns="http://www.w3.org/2000/svg" viewBox="0 0 59.46 59.46"><defs><style>.cls-1{fill:#fcb245;}.cls-2{fill:#fff;}.cls-3{fill:#aa97d6;}</style></defs><title>goldLocation</title><g id="Layer_2" data-name="Layer 2"><g id="Ellipse_10_copie_7_Image" data-name="Ellipse 10 copie 7 Image"><path class="cls-1" d="M59.46,29.73A29.74,29.74,0,0,1,40.1,57.61l-21-.12a29.75,29.75,0,0,1,.64-55.75c.19-.07,20.19,0,20.47.14A29.73,29.73,0,0,1,59.46,29.73Z"/><path class="cls-2" d="M40.07,57.62a29.75,29.75,0,0,1-10.34,1.84c-3.73,0-10.58-1.93-10.58-1.93l.5-55.78A30.56,30.56,0,0,1,29.73,0,31.59,31.59,0,0,1,40.06,1.84S40.58,57.43,40.07,57.62Z"/><circle class="cls-3" cx="29.73" cy="29.73" r="20"/></g></g></svg>