<svg xmlns="http://www.w3.org/2000/svg" viewBox="0 0 24.85 26"><defs><style>.eae137ce-e11d-4729-be7b-387698488533{fill:#231f20;}</style></defs><title>history</title><g id="fd3dba1b-d2a4-4e52-b167-b1e6d56b23fa" data-name="Layer 2"><g id="b13be4a4-c9cb-490a-a4ea-f96bdc1a1249" data-name="set"><path class="eae137ce-e11d-4729-be7b-387698488533" d="M2.35,8A1.5,1.5,0,0,1,.85,6.5v-5a1.5,1.5,0,0,1,3,0v5A1.5,1.5,0,0,1,2.35,8Z"/><path class="eae137ce-e11d-4729-be7b-387698488533" d="M7.35,8h-5a1.5,1.5,0,0,1,0-3h5a1.5,1.5,0,0,1,0,3Z"/><path class="eae137ce-e11d-4729-be7b-387698488533" d="M11.85,26A13.07,13.07,0,0,1,.15,18.66a1.5,1.5,0,0,1,2.7-1.31A10,10,0,1,0,11.85,3a1.5,1.5,0,0,1,0-3,13,13,0,1,1,0,26Z"/><path class="eae137ce-e11d-4729-be7b-387698488533" d="M2.37,8a1.46,1.46,0,0,1-.84-.26,1.5,1.5,0,0,1-.39-2.09A13,13,0,0,1,11.85,0a1.5,1.5,0,0,1,0,3A10,10,0,0,0,3.61,7.35,1.51,1.51,0,0,1,2.37,8Z"/><path class="eae137ce-e11d-4729-be7b-387698488533" d="M11.35,17a1.5,1.5,0,0,1-1.5-1.5v-7a1.5,1.5,0,0,1,3,0v7A1.5,1.5,0,0,1,11.35,17Z"/><path class="eae137ce-e11d-4729-be7b-387698488533" d="M17.35,17h-6a1.5,1.5,0,0,1,0-3h6a1.5,1.5,0,0,1,0,3Z"/></g></g></svg>