<svg xmlns="http://www.w3.org/2000/svg" viewBox="0 0 23.99 25.3"><defs><style>.afa4ab1b-3ab7-4a1d-8c5b-5a01a88d3595{fill:#231f20;}</style></defs><title>how</title><g id="ee6c81c2-86d2-4777-b5ea-83d3cc3bc8aa" data-name="Layer 2"><g id="f1d9236c-43d1-40f0-b67d-fefade414f17" data-name="set"><path class="afa4ab1b-3ab7-4a1d-8c5b-5a01a88d3595" d="M13.49,25.3h-3a2.15,2.15,0,0,1-2.15-2.15V21.58a9.59,9.59,0,0,1-2.25-1.31l-1.36.79a2.16,2.16,0,0,1-2.94-.78l-1.5-2.6a2.16,2.16,0,0,1,.78-2.94L2.44,14a8.5,8.5,0,0,1,0-2.6l-1.37-.79A2.16,2.16,0,0,1,.29,7.62L1.79,5a2.16,2.16,0,0,1,2.94-.79L6.09,5A9.59,9.59,0,0,1,8.34,3.72V2.15A2.15,2.15,0,0,1,10.49,0h3a2.15,2.15,0,0,1,2.15,2.15V3.72A9.65,9.65,0,0,1,17.9,5l1.36-.79A2.11,2.11,0,0,1,20.89,4,2.15,2.15,0,0,1,22.2,5l1.5,2.59a2.16,2.16,0,0,1-.79,2.94l-1.36.79a9.58,9.58,0,0,1,.09,1.3,1.15,1.15,0,0,1-2.3,0A7.25,7.25,0,0,0,19.15,11a1.15,1.15,0,0,1,.55-1.25l1.93-1.12L20.28,6.31,18.35,7.42A1.16,1.16,0,0,1,17,7.27a7.23,7.23,0,0,0-2.83-1.64,1.16,1.16,0,0,1-.82-1.1V2.3h-2.7V4.53a1.16,1.16,0,0,1-.81,1.1A7.16,7.16,0,0,0,7,7.27a1.15,1.15,0,0,1-1.36.15L3.71,6.31,2.35,8.64,4.29,9.76A1.14,1.14,0,0,1,4.83,11a7.87,7.87,0,0,0-.19,1.64,7.87,7.87,0,0,0,.19,1.64,1.14,1.14,0,0,1-.54,1.25L2.35,16.66,3.71,19l1.93-1.11A1.15,1.15,0,0,1,7,18a7.31,7.31,0,0,0,2.83,1.65,1.15,1.15,0,0,1,.81,1.1V23h2.7V20.78a1.15,1.15,0,0,1,.81-1.1A7.34,7.34,0,0,0,17,18a1.16,1.16,0,0,1,1.36-.15l2.06,1.19a1.15,1.15,0,0,1-1.15,2l-1.36-.79a9.65,9.65,0,0,1-2.26,1.31v1.57A2.15,2.15,0,0,1,13.49,25.3Z"/><path class="afa4ab1b-3ab7-4a1d-8c5b-5a01a88d3595" d="M12,17.3a4.65,4.65,0,1,1,4.65-4.65A4.66,4.66,0,0,1,12,17.3Zm0-7a2.35,2.35,0,1,0,2.35,2.35A2.35,2.35,0,0,0,12,10.3Z"/></g></g></svg>