<svg xmlns="http://www.w3.org/2000/svg" viewBox="0 0 23 25"><defs><style>.af0fc91f-7692-4ee2-80a9-181006a8ecf3{fill:#231f20;}</style></defs><title>logout</title><g id="b889ee0c-4022-4945-beea-8f9f15f75674" data-name="Layer 2"><g id="a1ebe037-4296-4f72-8ab1-cd95cdcd625b" data-name="set"><path class="af0fc91f-7692-4ee2-80a9-181006a8ecf3" d="M11.5,10A1.5,1.5,0,0,1,10,8.5v-7a1.5,1.5,0,0,1,3,0v7A1.5,1.5,0,0,1,11.5,10Z"/><path class="af0fc91f-7692-4ee2-80a9-181006a8ecf3" d="M11.5,25A11.5,11.5,0,0,1,4,4.77,1.5,1.5,0,1,1,6,7,8.5,8.5,0,1,0,17,7,1.5,1.5,0,1,1,19,4.77,11.5,11.5,0,0,1,11.5,25Z"/></g></g></svg>