<svg xmlns="http://www.w3.org/2000/svg" viewBox="0 0 234 600">
  <defs>
    <style>
      .cls-1 {
        fill: #fff;
      }
    </style>
    <clipPath id="svgPath">
      <path class="cls-1" d="M324.48,0H244.64c-20.48.4-23.53,14.26-31.86,26.63-6.48,9.61-17.65,18.11-31.68,18-14.75.84-26.42-8.53-32.89-18.21C140,14.08,140.6.72,117.6,0H35.52C15.9,0,0,16.57,0,37V82.33H360V37C360,16.57,344.1,0,324.48,0Z"/>
    </clipPath>
  </defs>
  <g>
    <path class="cls-1" d="M324.48,0H244.64c-20.48.4-23.53,14.26-31.86,26.63-6.48,9.61-17.65,18.11-31.68,18-14.75.84-26.42-8.53-32.89-18.21C140,14.08,140.6.72,117.6,0H35.52C15.9,0,0,16.57,0,37V82.33H360V37C360,16.57,344.1,0,324.48,0Z"/>
  </g>
</svg>
