<svg xmlns="http://www.w3.org/2000/svg" viewBox="0 0 61 41.95"><defs><style>.cls-1{fill:#aa97d6;}.cls-2{fill:#fff;}</style></defs><title>filter</title><g id="Layer_2" data-name="Layer 2"><g id="Layer_1-2" data-name="Layer 1"><path class="cls-1" d="M58,5H3.15A3.1,3.1,0,0,0,.05,7.42,3,3,0,0,0,3,11H57.85A3.09,3.09,0,0,0,61,8.53,3,3,0,0,0,58,5Z"/><path class="cls-1" d="M58,31H3.15a3.11,3.11,0,0,0-3.1,2.45A3,3,0,0,0,3,37H57.91a3,3,0,0,0,2.94-2A3,3,0,0,0,58,31Z"/><path class="cls-2" d="M26.76,27.07A7.8,7.8,0,0,0,16.1,37.73a8.26,8.26,0,0,0,3.14,3.15A7.8,7.8,0,0,0,29.9,30.22,8.26,8.26,0,0,0,26.76,27.07Z"/><path class="cls-1" d="M25.16,30.12a4.39,4.39,0,0,0-6,6,4.67,4.67,0,0,0,1.7,1.69,4.39,4.39,0,0,0,6-6A4.67,4.67,0,0,0,25.16,30.12Z"/><path class="cls-2" d="M47.76,1.07A7.8,7.8,0,0,0,37.1,11.73a8.26,8.26,0,0,0,3.14,3.15A7.8,7.8,0,0,0,50.9,4.22,8.26,8.26,0,0,0,47.76,1.07Z"/><path class="cls-1" d="M46.16,4.12a4.39,4.39,0,0,0-6,6,4.67,4.67,0,0,0,1.7,1.69,4.39,4.39,0,0,0,6-6A4.67,4.67,0,0,0,46.16,4.12Z"/></g></g></svg>