<svg xmlns="http://www.w3.org/2000/svg" viewBox="0 0 55 55.89">
  <defs>
    <style>.cls-1 {
      isolation: isolate;
    }

    .cls-2 {
      fill: #aa97d6;
    }

    .cls-3 {
      fill: #fff;
    }</style>
  </defs>
  <title>location_1</title>
  <g id="Layer_2" data-name="Layer 2">
    <g id="Rounded_Rectangle_9" data-name="Rounded Rectangle 9" class="cls-1">
      <g id="Ellipse_1_copie_3" data-name="Ellipse 1 copie 3">
        <path class="cls-2"
              d="M27.24,6.24a21.29,21.29,0,0,0,1.15,42.55c16.74,0,21.29-15.23,21.29-21.29A21.29,21.29,0,0,0,27.24,6.24Z"/>
      </g>
      <g id="Ellipse_1_copie_3-2" data-name="Ellipse 1 copie 3">
        <path class="cls-3" d="M27.53,11.52a16,16,0,0,0,.86,32c12.58,0,16-11.45,16-16A16,16,0,0,0,27.53,11.52Z"/>
      </g>
      <g id="Ellipse_1_copie_3-3" data-name="Ellipse 1 copie 3">
        <path class="cls-2"
              d="M28.39,32.93a6.32,6.32,0,0,1-6.32-6.41,6.44,6.44,0,0,1,6.23-6.23h0a6.35,6.35,0,0,1,6.41,6.32C34.71,28,33.64,32.93,28.39,32.93Z"/>
        <path class="cls-2"
              d="M28.39,21.07a5.54,5.54,0,0,1,5.54,5.54c0,1.17-.94,5.55-5.54,5.55a5.55,5.55,0,0,1-5.55-5.63,5.65,5.65,0,0,1,5.47-5.46h.08m0-1.55h-.1a7.19,7.19,0,0,0-7,7,7.1,7.1,0,0,0,7.1,7.2c5.58,0,7.09-5.08,7.09-7.1a7.08,7.08,0,0,0-7.09-7.09Z"/>
      </g>
      <g id="Rounded_Rectangle_6_copie_3" data-name="Rounded Rectangle 6 copie 3">
        <path class="cls-2"
              d="M2.32,28.5a1.51,1.51,0,0,1-1.5-1.07,1.47,1.47,0,0,1,.26-1.27,1.45,1.45,0,0,1,1.14-.55H7.43a1.52,1.52,0,0,1,1.51,1.08A1.46,1.46,0,0,1,8.67,28a1.41,1.41,0,0,1-1.13.55Z"/>
        <path class="cls-2"
              d="M7.43,26.39a.75.75,0,0,1,.75.48.69.69,0,0,1-.11.6.67.67,0,0,1-.53.25H2.32a.77.77,0,0,1-.75-.48.68.68,0,0,1,.12-.6.67.67,0,0,1,.53-.25H7.43m0-1.55H2.22A2.21,2.21,0,0,0,.07,27.61a2.28,2.28,0,0,0,2.25,1.66H7.54a2.22,2.22,0,0,0,2.15-2.76,2.29,2.29,0,0,0-2.26-1.67Z"/>
      </g>
      <g id="Rounded_Rectangle_6_copie_3-2" data-name="Rounded Rectangle 6 copie 3">
        <path class="cls-2"
              d="M47.57,28.5a1.51,1.51,0,0,1-1.51-1.07,1.47,1.47,0,0,1,.27-1.27,1.41,1.41,0,0,1,1.13-.55h5.22a1.51,1.51,0,0,1,1.5,1.08,1.44,1.44,0,0,1-1.4,1.81Z"/>
        <path class="cls-2"
              d="M52.68,26.39a.77.77,0,0,1,.75.48.68.68,0,0,1-.12.6.67.67,0,0,1-.53.25H47.57a.75.75,0,0,1-.75-.48.69.69,0,0,1,.11-.6.67.67,0,0,1,.53-.25h5.22m0-1.55H47.46a2.22,2.22,0,0,0-2.15,2.77,2.29,2.29,0,0,0,2.26,1.66h5.21a2.21,2.21,0,0,0,2.15-2.76,2.28,2.28,0,0,0-2.25-1.67Z"/>
      </g>
      <g id="Rounded_Rectangle_6_copie_3-3" data-name="Rounded Rectangle 6 copie 3">
        <path class="cls-2"
              d="M27.94,9A1.44,1.44,0,0,1,26.5,7.54V2.32A1.51,1.51,0,0,1,27.57.82a1.61,1.61,0,0,1,.37,0,1.44,1.44,0,0,1,1.45,1.44V7.43A1.42,1.42,0,0,1,27.94,9Z"/>
        <path class="cls-2"
              d="M27.94,1.55a.67.67,0,0,1,.67.67V7.43a.75.75,0,0,1-.48.75.63.63,0,0,1-.19,0,.67.67,0,0,1-.66-.67V2.32a.77.77,0,0,1,.48-.75l.18,0m0-1.55a2.13,2.13,0,0,0-.55.07,2.28,2.28,0,0,0-1.66,2.25V7.54a2.21,2.21,0,0,0,2.21,2.22,2.08,2.08,0,0,0,.55-.07,2.29,2.29,0,0,0,1.67-2.26V2.22A2.21,2.21,0,0,0,27.94,0Z"/>
      </g>
      <g id="Rounded_Rectangle_6_copie_3-4" data-name="Rounded Rectangle 6 copie 3">
        <path class="cls-2"
              d="M27.94,55.11a1.45,1.45,0,0,1-1.44-1.44V48.45A1.51,1.51,0,0,1,27.57,47a1.64,1.64,0,0,1,.37-.05,1.45,1.45,0,0,1,1.45,1.45v5.21a1.42,1.42,0,0,1-1.45,1.55Z"/>
        <path class="cls-2"
              d="M27.94,47.68a.67.67,0,0,1,.67.67v5.21a.75.75,0,0,1-.48.75.63.63,0,0,1-.19,0,.67.67,0,0,1-.66-.67V48.45a.77.77,0,0,1,.48-.75l.18,0m0-1.55a2.13,2.13,0,0,0-.55.07,2.28,2.28,0,0,0-1.66,2.25v5.22a2.22,2.22,0,0,0,2.21,2.22,2.08,2.08,0,0,0,.55-.07,2.29,2.29,0,0,0,1.67-2.26V48.35a2.21,2.21,0,0,0-2.22-2.22Z"/>
      </g>
    </g>
  </g>
</svg>
