<svg xmlns="http://www.w3.org/2000/svg" viewBox="0 0 24 18.5"><defs><style>.bd86be27-5826-431e-a8d5-b49b72a9e978{fill:#231f20;}</style></defs><title>ticket-filled</title><g id="bede9942-9472-4000-af45-d0d4e594de11" data-name="Layer 2"><g id="acdede67-b389-4b78-99f5-446ed47e1de0" data-name="set"><path class="bd86be27-5826-431e-a8d5-b49b72a9e978" d="M.5,13a.5.5,0,0,1,0-1,2.5,2.5,0,0,0,0-5,.5.5,0,0,1,0-1,3.5,3.5,0,0,1,0,7Z"/><path class="bd86be27-5826-431e-a8d5-b49b72a9e978" d="M23.5,13a3.5,3.5,0,0,1,0-7,.5.5,0,0,1,0,1,2.5,2.5,0,0,0,0,5,.5.5,0,0,1,0,1Z"/><path class="bd86be27-5826-431e-a8d5-b49b72a9e978" d="M23.5,7a.5.5,0,0,1-.5-.5v-5a.5.5,0,0,0-.5-.5H1.5a.5.5,0,0,0-.5.5v5A.5.5,0,0,1,.5,7,.5.5,0,0,1,0,6.5v-5A1.5,1.5,0,0,1,1.5,0h21A1.5,1.5,0,0,1,24,1.5v5A.5.5,0,0,1,23.5,7Z"/><path class="bd86be27-5826-431e-a8d5-b49b72a9e978" d="M22.5,18H1.5A1.5,1.5,0,0,1,0,16.5v-4A.5.5,0,0,1,.5,12a.5.5,0,0,1,.5.5v4a.5.5,0,0,0,.5.5h21a.5.5,0,0,0,.5-.5v-4a.5.5,0,0,1,1,0v4A1.5,1.5,0,0,1,22.5,18Z"/><path class="bd86be27-5826-431e-a8d5-b49b72a9e978" d="M16.5,18.5A.5.5,0,0,1,16,18V1a.5.5,0,0,1,1,0V18A.5.5,0,0,1,16.5,18.5Z"/><path class="bd86be27-5826-431e-a8d5-b49b72a9e978" d="M15.5,18.5A.5.5,0,0,1,15,18V1a.5.5,0,0,1,1,0V18A.5.5,0,0,1,15.5,18.5Z"/><path class="bd86be27-5826-431e-a8d5-b49b72a9e978" d="M14.5,18.5A.5.5,0,0,1,14,18V1a.5.5,0,0,1,1,0V18A.5.5,0,0,1,14.5,18.5Z"/><path class="bd86be27-5826-431e-a8d5-b49b72a9e978" d="M13.5,18.5A.5.5,0,0,1,13,18V1a.5.5,0,0,1,1,0V18A.5.5,0,0,1,13.5,18.5Z"/><path class="bd86be27-5826-431e-a8d5-b49b72a9e978" d="M12.5,18.5A.5.5,0,0,1,12,18V1a.5.5,0,0,1,1,0V18A.5.5,0,0,1,12.5,18.5Z"/><path class="bd86be27-5826-431e-a8d5-b49b72a9e978" d="M11.5,18.5A.5.5,0,0,1,11,18V1a.5.5,0,0,1,1,0V18A.5.5,0,0,1,11.5,18.5Z"/><path class="bd86be27-5826-431e-a8d5-b49b72a9e978" d="M17.5,18.5A.5.5,0,0,1,17,18V1a.5.5,0,0,1,1,0V18A.5.5,0,0,1,17.5,18.5Z"/><path class="bd86be27-5826-431e-a8d5-b49b72a9e978" d="M18.5,18.5A.5.5,0,0,1,18,18V1a.5.5,0,0,1,1,0V18A.5.5,0,0,1,18.5,18.5Z"/><path class="bd86be27-5826-431e-a8d5-b49b72a9e978" d="M19.5,18.5A.5.5,0,0,1,19,18V1a.5.5,0,0,1,1,0V18A.5.5,0,0,1,19.5,18.5Z"/><path class="bd86be27-5826-431e-a8d5-b49b72a9e978" d="M20.5,18.5A.5.5,0,0,1,20,18V1a.5.5,0,0,1,1,0V18A.5.5,0,0,1,20.5,18.5Z"/><path class="bd86be27-5826-431e-a8d5-b49b72a9e978" d="M21.5,7.5A.5.5,0,0,1,21,7V1a.5.5,0,0,1,1,0V7A.5.5,0,0,1,21.5,7.5Z"/><path class="bd86be27-5826-431e-a8d5-b49b72a9e978" d="M22.5,7.5A.5.5,0,0,1,22,7V1a.5.5,0,0,1,1,0V7A.5.5,0,0,1,22.5,7.5Z"/><path class="bd86be27-5826-431e-a8d5-b49b72a9e978" d="M22.5,18.5A.5.5,0,0,1,22,18V13a.5.5,0,0,1,1,0v5A.5.5,0,0,1,22.5,18.5Z"/><path class="bd86be27-5826-431e-a8d5-b49b72a9e978" d="M21.5,18.5A.5.5,0,0,1,21,18V13a.5.5,0,0,1,1,0v5A.5.5,0,0,1,21.5,18.5Z"/><path class="bd86be27-5826-431e-a8d5-b49b72a9e978" d="M3.5,18.5A.5.5,0,0,1,3,18V1A.5.5,0,0,1,4,1V18A.5.5,0,0,1,3.5,18.5Z"/><path class="bd86be27-5826-431e-a8d5-b49b72a9e978" d="M4.5,18.5A.5.5,0,0,1,4,18V1A.5.5,0,0,1,5,1V18A.5.5,0,0,1,4.5,18.5Z"/><path class="bd86be27-5826-431e-a8d5-b49b72a9e978" d="M5.5,18.5A.5.5,0,0,1,5,18V1A.5.5,0,0,1,6,1V18A.5.5,0,0,1,5.5,18.5Z"/><path class="bd86be27-5826-431e-a8d5-b49b72a9e978" d="M6.5,18.5A.5.5,0,0,1,6,18V1A.5.5,0,0,1,7,1V18A.5.5,0,0,1,6.5,18.5Z"/><path class="bd86be27-5826-431e-a8d5-b49b72a9e978" d="M7.5,18.5A.5.5,0,0,1,7,18V1A.5.5,0,0,1,8,1V18A.5.5,0,0,1,7.5,18.5Z"/><path class="bd86be27-5826-431e-a8d5-b49b72a9e978" d="M8.5,18.5A.5.5,0,0,1,8,18V1A.5.5,0,0,1,9,1V18A.5.5,0,0,1,8.5,18.5Z"/><path class="bd86be27-5826-431e-a8d5-b49b72a9e978" d="M9.5,18.5A.5.5,0,0,1,9,18V1a.5.5,0,0,1,1,0V18A.5.5,0,0,1,9.5,18.5Z"/><path class="bd86be27-5826-431e-a8d5-b49b72a9e978" d="M10.5,18.5A.5.5,0,0,1,10,18V1a.5.5,0,0,1,1,0V18A.5.5,0,0,1,10.5,18.5Z"/><path class="bd86be27-5826-431e-a8d5-b49b72a9e978" d="M1.5,7.5A.5.5,0,0,1,1,7V1A.5.5,0,0,1,2,1V7A.5.5,0,0,1,1.5,7.5Z"/><path class="bd86be27-5826-431e-a8d5-b49b72a9e978" d="M2.5,7.5A.5.5,0,0,1,2,7V1A.5.5,0,0,1,3,1V7A.5.5,0,0,1,2.5,7.5Z"/><path class="bd86be27-5826-431e-a8d5-b49b72a9e978" d="M3.5,7.5h-2a.5.5,0,0,1,0-1h2a.5.5,0,0,1,0,1Z"/><path class="bd86be27-5826-431e-a8d5-b49b72a9e978" d="M3.5,13.5h-1a.5.5,0,0,1,0-1h1a.5.5,0,0,1,0,1Z"/><path class="bd86be27-5826-431e-a8d5-b49b72a9e978" d="M21.5,13.5h-1a.5.5,0,0,1,0-1h1a.5.5,0,0,1,0,1Z"/><path class="bd86be27-5826-431e-a8d5-b49b72a9e978" d="M21.5,7.5h-1a.5.5,0,0,1,0-1h1a.5.5,0,0,1,0,1Z"/><path class="bd86be27-5826-431e-a8d5-b49b72a9e978" d="M2.5,18.5A.5.5,0,0,1,2,18V13a.5.5,0,0,1,1,0v5A.5.5,0,0,1,2.5,18.5Z"/><path class="bd86be27-5826-431e-a8d5-b49b72a9e978" d="M1.5,18.5A.5.5,0,0,1,1,18V13a.5.5,0,0,1,1,0v5A.5.5,0,0,1,1.5,18.5Z"/></g></g></svg>