<svg xmlns="http://www.w3.org/2000/svg" viewBox="0 0 21 25"><defs><style>.e77115c5-df1a-459b-9c8c-4de365b61f94{fill:#231f20;}</style></defs><title>time</title><g id="f2b8ba81-cabd-41ae-bc5d-0b9c21513013" data-name="Layer 2"><g id="f3ebb41d-82f5-4c7a-838d-fcff4b19ccc3" data-name="set"><path class="e77115c5-df1a-459b-9c8c-4de365b61f94" d="M20,4a1,1,0,0,1-1-1V2H2V3A1,1,0,0,1,0,3V1A1,1,0,0,1,1,0H20a1,1,0,0,1,1,1V3A1,1,0,0,1,20,4Zm0-1V3ZM1,1V1H1Z"/><path class="e77115c5-df1a-459b-9c8c-4de365b61f94" d="M20,25H1a1,1,0,0,1-1-1V22a1,1,0,0,1,2,0v1H19V22a1,1,0,0,1,2,0v2A1,1,0,0,1,20,25Zm0-1v0ZM1,24H1Z"/><path class="e77115c5-df1a-459b-9c8c-4de365b61f94" d="M17.5,23a1,1,0,0,1-1-1c0-1.8-.21-3.07-1.31-4.17a6.38,6.38,0,0,0-1.45-.94c-1.35-.72-3.38-1.81-2.66-4.37a3.33,3.33,0,0,1,2.07-2.09l.32-.15a6.52,6.52,0,0,0,2.59-2.41A8.91,8.91,0,0,0,17,3a1,1,0,0,1,2,0,10.65,10.65,0,0,1-1.23,5.91,8.63,8.63,0,0,1-3.41,3.16l-.34.17c-.71.34-.92.48-1,.82-.25.9.11,1.23,1.68,2.07a7.49,7.49,0,0,1,1.93,1.29C18.18,18,18.5,19.8,18.5,22A1,1,0,0,1,17.5,23Zm0-1v0Zm-3.34-6,.05,0,0,0,0,0Zm-.51-4.68-.06,0-.13.07.13-.07Zm3.31-3a.35.35,0,0,1-.05.08,7.58,7.58,0,0,1-3,2.77,7.58,7.58,0,0,0,3-2.77Z"/><path class="e77115c5-df1a-459b-9c8c-4de365b61f94" d="M3.5,23a1,1,0,0,1-1-1c0-2.2.32-4,1.89-5.58A7.93,7.93,0,0,1,6.72,14.9c.28-.14.56-.27.84-.43s.52-.38.47-1.09-.24-.73-1.19-1.21l-.21-.1a8.55,8.55,0,0,1-3.4-3.16A10.65,10.65,0,0,1,2,3,1,1,0,0,1,4,3a8.91,8.91,0,0,0,.94,4.87,6.58,6.58,0,0,0,2.6,2.42l.2.1A3.32,3.32,0,0,1,10,13.25a3,3,0,0,1-1.5,3c-.31.17-.62.32-.92.47a6,6,0,0,0-1.8,1.14C4.71,18.93,4.5,20.19,4.5,22A1,1,0,0,1,3.5,23Zm0-1v0Zm.75-3.75a5,5,0,0,0-.46,1.1A5,5,0,0,1,4.25,18.25Zm2.36-2.19a6,6,0,0,0-1.42,1A6.18,6.18,0,0,1,6.61,16.06ZM8,15.35l-.23.13Zm.79-.81a1.79,1.79,0,0,1-.73.78A1.8,1.8,0,0,0,8.82,14.54ZM4,8.28l.07.11a7.53,7.53,0,0,0,3,2.79l.2.1c.89.45,1.66.84,1.74,2,0,0,0,.09,0,.14s0-.1,0-.14c-.08-1.2-.81-1.57-1.74-2l-.2-.1a7.53,7.53,0,0,1-3-2.79Z"/></g></g></svg>