<svg xmlns="http://www.w3.org/2000/svg" viewBox="0 0 26 26">
  <g>
    <path d="M24.2,3.3l-7-2.6c0,0-0.1,0-0.1,0l0,0c-0.3-0.1-0.7-0.1-1-0.1c-0.1,0-0.3,0.1-0.4,0.1L9.5,3.4L3.2,1.1
		c-0.5-0.2-1-0.2-1.5,0.1c-0.5,0.2-0.9,0.6-1,1.1C0.5,2.5,0.5,2.7,0.5,2.9v16.9c0,0.8,0.4,1.5,1.1,1.8l7,3.5c0.1,0,0.2,0.1,0.3,0.1
		c0.2,0.1,0.4,0.1,0.7,0.1c0.2,0,0.4,0,0.6-0.1c0.1,0,0.2-0.1,0.3-0.2l6-3.5l6.1,3c1,0.5,2.2,0.1,2.7-0.9c0.1-0.3,0.2-0.6,0.2-0.9
		V5.2C25.5,4.4,24.9,3.6,24.2,3.3z M8.5,22.9l-6-3V2.9l6,2.2V22.9z M15.5,19.9l-5,2.9V5.2l5-2.2V19.9z M23.5,22.9l-6-2.9V3l6,2.2
		L23.5,22.9z"/>
  </g>
</svg>
