<svg xmlns="http://www.w3.org/2000/svg" xmlns:xlink="http://www.w3.org/1999/xlink" viewBox="0 0 22 27"><defs><style>.a24f55a5-fb9b-4c1e-99dd-095d8b8aa0a9,.ea2a18e0-e06a-444f-9cae-d4111e9fb7c1{fill:none;}.a24f55a5-fb9b-4c1e-99dd-095d8b8aa0a9{clip-path:url(#add229d0-8256-49fa-94f7-e8e6365bd29f);}.a710c34b-92a2-401f-b699-711771adca5d{clip-path:url(#bc275531-cc0c-4a8d-bed9-2b3a92557050);}</style><clipPath id="add229d0-8256-49fa-94f7-e8e6365bd29f"><rect id="b33103e1-1fc8-42ef-a049-f4b8e7a41d0a" data-name="SVGID" class="ea2a18e0-e06a-444f-9cae-d4111e9fb7c1" width="24" height="24"/></clipPath><clipPath id="bc275531-cc0c-4a8d-bed9-2b3a92557050" transform="translate(-1 1.5)"><path id="a3ffd8d0-754b-49b9-9c3e-787b1992fc82" data-name="SVGID" class="a24f55a5-fb9b-4c1e-99dd-095d8b8aa0a9" d="M12,1c4.58,0,8.69,3.77,8.49,8.05-.21,4.63-6.15,14-8.49,14S3.72,13.68,3.51,9.05C3.31,4.77,7.42,1,12,1ZM10.88,14.38c.73-.83,3.33-.64,4.12-1.88,1.86-2.92,1.41-1.58,1.5-3.55.14-3.07-.5-3.32-4-3.32s-4.89-.08-4.75,3c.09,2-1.11-.55.75,2.37a10.41,10.41,0,0,0,1.75,2c.34.39,1.23.56,1.47.75L9.25,13.5l1.56-.34M12,15a5.5,5.5,0,1,1,5.5-5.5A5.5,5.5,0,0,1,12,15Zm0-2A3.5,3.5,0,1,0,8.5,9.5,3.5,3.5,0,0,0,12,13Z"/></clipPath></defs><title>marker</title><g id="ba881631-f898-4591-a461-fe5b1f81d106" data-name="Layer 2"><g id="b7767b8a-e873-4a4a-8653-cd2b5586d170" data-name="set"><g class="a710c34b-92a2-401f-b699-711771adca5d"><rect width="22" height="27"/></g></g></g></svg>