<svg xmlns="http://www.w3.org/2000/svg" viewBox="0 0 62.46 68.09"><defs><style>.cls-1{fill:#475257;}</style></defs><title>f1</title><g id="Layer_2" data-name="Layer 2"><g id="icons"><path class="cls-1" d="M30.65,16.83a8.42,8.42,0,1,1,8.41-8.41A8.42,8.42,0,0,1,30.65,16.83Zm0-14.33a5.92,5.92,0,1,0,5.91,5.92A5.92,5.92,0,0,0,30.65,2.5Z"/><path class="cls-1" d="M21.81,67.55a1.26,1.26,0,0,1-1.16-.79c-1.22-3-1.21-5.51,0-7.35,1.9-2.81,5.92-2.85,6.12-2.85H37a1.25,1.25,0,0,1,0,2.5H26.81s-2.9,0-4.06,1.76c-.74,1.11-.67,2.79.22,5a1.25,1.25,0,0,1-.69,1.63A1.27,1.27,0,0,1,21.81,67.55Z"/><path class="cls-1" d="M61.2,56.43a1.23,1.23,0,0,1-.63-.18l-15.29-9.1A1.26,1.26,0,0,1,44.67,46l.89-16.12A6.49,6.49,0,0,0,44,24.81a7.36,7.36,0,0,0-4.91-1.88H23.37a7.44,7.44,0,0,0-4.94,1.88,6.49,6.49,0,0,0-1.54,5.08L17.78,46a1.24,1.24,0,0,1-.61,1.14L1.89,56.25A1.25,1.25,0,0,1,.61,54.1l14.63-8.71L14.4,30a8.89,8.89,0,0,1,2.25-7,9.85,9.85,0,0,1,6.76-2.61H39.09A9.86,9.86,0,0,1,45.8,23a8.93,8.93,0,0,1,2.26,7l-.85,15.37L61.85,54.1a1.25,1.25,0,0,1-.65,2.33Z"/><path class="cls-1" d="M52.42,68.09H10a5.76,5.76,0,0,1-5.75-5.75c0-3.1,1.61-4.65,4.77-6.59l12.21-7-.61-18.48a1.25,1.25,0,0,1,2.5-.08l.63,19.23a1.26,1.26,0,0,1-.63,1.13L10.32,57.9c-2.8,1.72-3.54,2.64-3.54,4.44A3.26,3.26,0,0,0,10,65.59H52.42a3.25,3.25,0,0,0,3.25-3.25c0-1.8-.73-2.72-3.57-4.46L39.31,50.59a1.24,1.24,0,0,1-.63-1.13l.63-19.23A1.22,1.22,0,0,1,40.6,29a1.24,1.24,0,0,1,1.2,1.29l-.6,18.48,12.18,6.94c3.19,2,4.79,3.51,4.79,6.61A5.75,5.75,0,0,1,52.42,68.09Z"/></g></g></svg>