<svg xmlns="http://www.w3.org/2000/svg" viewBox="0 0 64.5 54.63"><defs><style>.cls-1{fill:#475257;}</style></defs><title>f2</title><g id="Layer_2" data-name="Layer 2"><g id="icons"><path class="cls-1" d="M12.58,54.63A12.59,12.59,0,1,1,25.17,42,12.6,12.6,0,0,1,12.58,54.63Zm0-22.67A10.09,10.09,0,1,0,22.67,42,10.09,10.09,0,0,0,12.58,32Z"/><path class="cls-1" d="M51.92,54.63A12.59,12.59,0,1,1,64.5,42,12.61,12.61,0,0,1,51.92,54.63Zm0-22.67A10.09,10.09,0,1,0,62,42,10.1,10.1,0,0,0,51.92,32Z"/><path class="cls-1" d="M29.13,33.26a1.23,1.23,0,0,1-.79-.28C23.38,28.87,21,28.05,21,28c-2.77-.92-4.41-2.37-4.89-4.32-.81-3.28,2.24-6.49,2.37-6.63l.1-.09,10-8.45c3.35-2.59,5.45-2.77,7-2.9l.24,0c2.85-.26,4.08.7,4.49,1.14a10.17,10.17,0,0,1,3,5.19,21.83,21.83,0,0,1,.36,2.41c.19,1.67.52,4.41,1.25,5.41l10.2,3a1.25,1.25,0,0,1-.71,2.4C46.64,23,43.72,22.07,43.72,22.07a1.21,1.21,0,0,1-.49-.28c-1.52-1.43-1.87-4.46-2.18-7.13-.1-.85-.2-1.65-.31-2.12a7.65,7.65,0,0,0-2.19-3.9c-.13-.1-.15-.09-.21-.19a3.58,3.58,0,0,0-2.4-.33l-.25,0c-1.35.12-2.89.25-5.61,2.35L20.2,18.87c-.65.69-2.1,2.68-1.71,4.26.26,1.05,1.35,1.9,3.24,2.53.25.08,2.86,1,8.2,5.39a1.25,1.25,0,0,1-.8,2.21Z"/><path class="cls-1" d="M31.5,49.21a1.75,1.75,0,0,1-.32,0,1.26,1.26,0,0,1-.89-1.53C33.53,35.43,34.47,31,34.73,29.57l-8.09-6.38a1.25,1.25,0,0,1-.47-1,1.23,1.23,0,0,1,.55-1L35.89,15a1.25,1.25,0,0,1,1.39,2.08l-7.74,5.21,7.32,5.77a1.27,1.27,0,0,1,.47,1.07c0,.25-.3,2.84-4.62,19.15A1.26,1.26,0,0,1,31.5,49.21Z"/><path class="cls-1" d="M50.79,12.67a6.34,6.34,0,1,1,6.34-6.34A6.34,6.34,0,0,1,50.79,12.67Zm0-10.17a3.84,3.84,0,1,0,3.84,3.83A3.84,3.84,0,0,0,50.79,2.5Z"/></g></g></svg>