<svg xmlns="http://www.w3.org/2000/svg" viewBox="0 0 59.39 59.39"><defs><style>.cls-1{fill:#475257;}</style></defs><title>f3</title><g id="Layer_2" data-name="Layer 2"><g id="icons"><path class="cls-1" d="M53.61,12.27l-1.77-1.76,3.37-3.37-3-2.95-3.5,3.49L47,5.92l4.38-4.38a1.24,1.24,0,0,1,1.76,0l4.73,4.72a1.27,1.27,0,0,1,0,1.77Z"/><rect class="cls-1" x="16.1" y="27.82" width="19" height="2.5" transform="translate(-13.06 26.61) rotate(-45)"/><path class="cls-1" d="M7.15,58.22a1.25,1.25,0,0,1-.89-.37L1.54,53.13a1.22,1.22,0,0,1-.37-.88,1.26,1.26,0,0,1,.37-.89L6,46.88l1.77,1.77-3.6,3.6,3,3,3.41-3.42,1.77,1.77L8,57.85A1.21,1.21,0,0,1,7.15,58.22Z"/><rect class="cls-1" x="20.87" y="32.53" width="18.94" height="2.5" transform="translate(-15 31.35) rotate(-45)"/><path class="cls-1" d="M18.82,59.39a5.24,5.24,0,0,1-3.71-1.53L1.53,44.28a5.26,5.26,0,0,1,0-7.42l.4-.4a5.26,5.26,0,0,1,7.42,0L22.93,50a5.28,5.28,0,0,1,0,7.43l-.39.39A5.26,5.26,0,0,1,18.82,59.39Zm-13.18-22a2.75,2.75,0,0,0-1.95.8l-.39.39a2.76,2.76,0,0,0,0,3.89L16.88,56.09a2.76,2.76,0,0,0,3.89,0l.39-.39a2.76,2.76,0,0,0,0-3.89L7.58,38.23A2.71,2.71,0,0,0,5.64,37.43Z"/><path class="cls-1" d="M52.42,35.26a5.21,5.21,0,0,1-3.71-1.54l-23-23a5.24,5.24,0,0,1,0-7.42l.39-.39a5.26,5.26,0,0,1,7.43,0l23,23a5.26,5.26,0,0,1,0,7.42l-.4.39A5.19,5.19,0,0,1,52.42,35.26ZM29.78,3.83a2.77,2.77,0,0,0-2,.8l-.39.4a2.76,2.76,0,0,0,0,3.89l23,23a2.75,2.75,0,0,0,3.89,0l.39-.4a2.76,2.76,0,0,0,0-3.89l-23-23A2.77,2.77,0,0,0,29.78,3.83Z"/><path class="cls-1" d="M53.75,24.46A5.24,5.24,0,0,1,50,22.93L36.46,9.35a5.26,5.26,0,0,1,0-7.42l.4-.4A5.18,5.18,0,0,1,40.57,0h0a5.21,5.21,0,0,1,3.71,1.53L57.86,15.11a5.28,5.28,0,0,1,0,7.43l-.4.39A5.22,5.22,0,0,1,53.75,24.46ZM40.57,2.5a2.69,2.69,0,0,0-1.94.8l-.4.4a2.75,2.75,0,0,0,0,3.88L51.81,21.16a2.76,2.76,0,0,0,3.89,0l.39-.39a2.76,2.76,0,0,0,0-3.89L42.51,3.3a2.73,2.73,0,0,0-1.94-.8Z"/><path class="cls-1" d="M29.62,58.06a5.22,5.22,0,0,1-3.71-1.53l-23-23a5.26,5.26,0,0,1,0-7.43l.39-.39a5.26,5.26,0,0,1,7.42,0l23,23a5.26,5.26,0,0,1,0,7.43l-.39.39A5.24,5.24,0,0,1,29.62,58.06ZM7,26.64a2.69,2.69,0,0,0-1.94.8l-.4.39a2.76,2.76,0,0,0,0,3.89l23,23a2.76,2.76,0,0,0,3.89,0l.4-.39a2.75,2.75,0,0,0,0-3.89l-23-23A2.73,2.73,0,0,0,7,26.64Z"/></g></g></svg>