<svg xmlns="http://www.w3.org/2000/svg" viewBox="0 0 17.68 19.11"><defs><style>.af476a41-d3f9-4817-bc80-b3a35be345b9{fill:#231f20;}</style></defs><title>account</title><g id="e3d3389c-fbeb-4964-b05c-9a7368f0f2ef" data-name="Layer 2"><g id="b09b06b0-58b0-4079-a656-7bfb08d7c169" data-name="set"><path class="af476a41-d3f9-4817-bc80-b3a35be345b9" d="M8.83,10.4A4.56,4.56,0,0,1,8,10.32,4.76,4.76,0,0,1,4.34,5.73V4.67A4.78,4.78,0,0,1,8,.07a4.51,4.51,0,0,1,3.71,1A4.46,4.46,0,0,1,13.34,4.5V5.9a4.51,4.51,0,0,1-4.51,4.5Zm0-8.4a2.56,2.56,0,0,0-.47,0,2.82,2.82,0,0,0-2,2.63V5.73a2.83,2.83,0,0,0,2,2.63,2.51,2.51,0,0,0,3-2.46V4.5a2.51,2.51,0,0,0-.9-1.92A2.46,2.46,0,0,0,8.84,2Z"/><path class="af476a41-d3f9-4817-bc80-b3a35be345b9" d="M16.68,19.11a1,1,0,0,1-.91-.59A7.5,7.5,0,0,0,8.84,14.2a7.5,7.5,0,0,0-6.93,4.32A1,1,0,0,1,.09,17.7a9.49,9.49,0,0,1,8.75-5.5,9.49,9.49,0,0,1,8.75,5.5,1,1,0,0,1-.5,1.32A1,1,0,0,1,16.68,19.11Z"/></g></g></svg>