<svg xmlns="http://www.w3.org/2000/svg" viewBox="0 0 26 26"><defs><style>.a0d5a14f-8d11-4899-a554-e873189337e6{fill:#030104;}</style></defs><title>alarm</title><g id="b6fc17dc-4024-47c4-8f65-4d97986ca909" data-name="Layer 2"><g id="b3c068a8-a693-4516-a8b4-9cd8a0c5d585" data-name="set"><path class="a0d5a14f-8d11-4899-a554-e873189337e6" d="M11,13a2,2,0,1,0,2-2A2,2,0,0,0,11,13Z"/><path class="a0d5a14f-8d11-4899-a554-e873189337e6" d="M13.57,13.54h0c.39-.39,1.11-1.71.72-2,0,0-10.61-8.46-10.92-8.15s8.11,11,8.11,11C11.82,14.67,13.18,13.93,13.57,13.54Z"/><circle class="a0d5a14f-8d11-4899-a554-e873189337e6" cx="13" cy="2" r="2"/><path class="a0d5a14f-8d11-4899-a554-e873189337e6" d="M17.29,1.8a1.42,1.42,0,0,0,.72,2A10.45,10.45,0,1,1,3.24,9.24a1.33,1.33,0,0,0-.48-1.86,1.19,1.19,0,0,0-1.66.41A12.77,12.77,0,0,0,0,13,13,13,0,1,0,18.75,1.35,1.17,1.17,0,0,0,17.29,1.8Z"/></g></g></svg>