<svg xmlns="http://www.w3.org/2000/svg" xmlns:xlink="http://www.w3.org/1999/xlink" viewBox="0 0 27 27">
  <defs>
    <style>
      .dd327988-b740-4af0-9580-2ae38cfb950a {
        clip-path: url(#fe5f64ef-6b47-4865-9d80-d4779ef67ce5);
      }
    </style>
    <clipPath id="fe5f64ef-6b47-4865-9d80-d4779ef67ce5" transform="translate(2.5 2.5)">
      <path class="cls-1" d="M16.5,2h3A2.5,2.5,0,0,1,22,4.5v15A2.5,2.5,0,0,1,19.5,22H2.5A2.5,2.5,0,0,1,0,19.5V4.5A2.5,2.5,0,0,1,2.5,2h3V1a1,1,0,0,1,2,0V2h7V1a1,1,0,0,1,2,0V2Zm3,18a.5.5,0,0,0,.5-.5V4.5a.51.51,0,0,0-.5-.5h-3V5a1,1,0,0,1-2,0V4h-7V5a1,1,0,0,1-2,0V4h-3a.5.5,0,0,0-.5.5v15M14.5,10h-1a1,1,0,0,1,0-2h2a1,1,0,0,1,1,1v8a1,1,0,0,1-2,0V10Zm-7,2.87v0a.34.34,0,0,1,0-.1,1,1,0,0,1,.21-.61,1,1,0,0,1,.35-.29l.23-.08a3.35,3.35,0,0,1,.53-.07,1,1,0,0,0,.68-.95A.84.84,0,0,0,8.6,10a.94.94,0,0,0-.78.38A1,1,0,0,1,6.18,9.24,2.93,2.93,0,0,1,8.6,8a2.83,2.83,0,0,1,2.9,2.75A3,3,0,0,1,11,12.47a3,3,0,0,1,1,2.28A3.32,3.32,0,0,1,8.62,18a3.4,3.4,0,0,1-3-1.75,1,1,0,0,1,1.76-.95,1.4,1.4,0,0,0,1.24.7A1.32,1.32,0,0,0,10,14.75a1.06,1.06,0,0,0-1.27-1A1,1,0,0,1,7.53,13a.59.59,0,0,1,0-.13Z"/>
    </clipPath>
  </defs>
  <title>calendar</title>
  <g class="dd327988-b740-4af0-9580-2ae38cfb950a">
    <rect width="27" height="27"/>
  </g>
</svg>
