<svg xmlns="http://www.w3.org/2000/svg" xmlns:xlink="http://www.w3.org/1999/xlink" viewBox="0 0 65.14 49.26"><defs><style>.a759ee39-3b72-45d0-86a3-d1176a493fa2,.ae82002b-f315-453f-84dc-e8496f98d6f0{fill:none;stroke-linejoin:round;}.a759ee39-3b72-45d0-86a3-d1176a493fa2{stroke-linecap:round;stroke:url(#f20d4fd0-841f-4388-9420-efb8fd402ffa);}.a759ee39-3b72-45d0-86a3-d1176a493fa2,.ae82002b-f315-453f-84dc-e8496f98d6f0,.ecf8d653-659b-47c1-bb50-462b80a8bdbd{stroke-width:3px;}.ae82002b-f315-453f-84dc-e8496f98d6f0{stroke:url(#b47ff598-ea65-45db-9c98-30a01d529816);}.ecf8d653-659b-47c1-bb50-462b80a8bdbd{fill:#475257;stroke-miterlimit:10;stroke:url(#e0cf8ee6-b0d6-4ca9-9e65-b49c6357da17);}.e4657c60-7bc4-4225-b448-71ff872cda11{fill:#947cf6;}.a06b5868-eff8-468e-a89d-869b8a6c0660{fill:url(#bbaba832-bc07-47d8-a9b4-54e5b1930568);}.e476919e-871f-4f8c-9acc-72e7e1c05fd2{fill:url(#ae8d03f6-87c4-4e30-bf73-2f584b75aea9);}.bbc0ae8f-f8f5-4a70-9b0e-471ec271c931{fill:url(#a26009f0-8c1f-4210-89d9-a1e8b1ddbd80);}.bbfda7cd-f536-4e1a-8a65-ace981547041{fill:url(#b2caf43f-26ab-4236-afd0-0ce51794000c);}.b437938c-6df0-4dea-bb92-f5798e5dcaaf{fill:#968eff;}.fdf309a1-e068-4525-a4bd-60898a9b413d{fill:url(#a0c2a265-0d9b-42fe-b8f3-7952193331a2);}.abaa55e6-d70b-473e-9879-d668766363ac{fill:url(#f10d37cb-1dc1-4739-a1d3-a97037e8fb3d);}.fa7ddd97-d0bb-4653-b4f1-492bad3d18e3{fill:url(#bb8fe1ca-c93b-4a18-8cfb-cb7fec2ece21);}</style><linearGradient id="f20d4fd0-841f-4388-9420-efb8fd402ffa" x1="10.04" y1="50.01" x2="10.04" y2="47.01" gradientTransform="matrix(1, 0, 0, -1, 0, 52.06)" gradientUnits="userSpaceOnUse"><stop offset="0" stop-color="#494cdf"/><stop offset="0.23" stop-color="#5150dc"/><stop offset="0.58" stop-color="#685dd3"/><stop offset="1" stop-color="#8b6fc6"/></linearGradient><linearGradient id="b47ff598-ea65-45db-9c98-30a01d529816" x1="32.57" y1="52.06" x2="32.57" y2="5.87" xlink:href="#f20d4fd0-841f-4388-9420-efb8fd402ffa"/><linearGradient id="e0cf8ee6-b0d6-4ca9-9e65-b49c6357da17" x1="9.83" y1="38.22" x2="9.83" y2="33.66" xlink:href="#f20d4fd0-841f-4388-9420-efb8fd402ffa"/><linearGradient id="bbaba832-bc07-47d8-a9b4-54e5b1930568" x1="20.89" y1="216.56" x2="40.68" y2="216.56" gradientTransform="matrix(1, 0, 0, -1, 0, 232.06)" gradientUnits="userSpaceOnUse"><stop offset="0" stop-color="#0babc1"/><stop offset="0.28" stop-color="#34a8c5"/><stop offset="0.6" stop-color="#5da5c9"/><stop offset="0.85" stop-color="#77a3cb"/><stop offset="1" stop-color="#80a2cc"/></linearGradient><linearGradient id="ae8d03f6-87c4-4e30-bf73-2f584b75aea9" x1="46.24" y1="217.15" x2="45.44" y2="200.99" gradientTransform="matrix(1, 0, 0, -1, 0, 232.06)" gradientUnits="userSpaceOnUse"><stop offset="0" stop-color="#cf90fa"/><stop offset="0.47" stop-color="#c688fb"/><stop offset="1" stop-color="#b57bfd"/></linearGradient><linearGradient id="a26009f0-8c1f-4210-89d9-a1e8b1ddbd80" x1="32.84" y1="214.18" x2="56.81" y2="214.18" gradientTransform="matrix(1, 0, 0, -1, 0, 232.06)" gradientUnits="userSpaceOnUse"><stop offset="0" stop-color="#7b6ac5"/><stop offset="0.4" stop-color="#7a61cc"/><stop offset="1" stop-color="#784adc"/></linearGradient><linearGradient id="b2caf43f-26ab-4236-afd0-0ce51794000c" x1="26.76" y1="208.75" x2="24.67" y2="198.64" gradientTransform="matrix(1, 0, 0, -1, 0, 232.06)" gradientUnits="userSpaceOnUse"><stop offset="0" stop-color="#0babc1"/><stop offset="0.34" stop-color="#43bfbe"/><stop offset="0.63" stop-color="#6ccebd"/><stop offset="0.86" stop-color="#86d7bb"/><stop offset="1" stop-color="#8fdabb"/></linearGradient><linearGradient id="a0c2a265-0d9b-42fe-b8f3-7952193331a2" x1="22.28" y1="217.5" x2="20.66" y2="198.5" gradientTransform="matrix(1, 0, 0, -1, 0, 232.06)" gradientUnits="userSpaceOnUse"><stop offset="0" stop-color="#138c63"/><stop offset="0.16" stop-color="#16856c"/><stop offset="0.68" stop-color="#1c7486"/><stop offset="1" stop-color="#1f6d8f"/></linearGradient><linearGradient id="f10d37cb-1dc1-4739-a1d3-a97037e8fb3d" x1="37.79" y1="198.7" x2="32.99" y2="186.38" gradientTransform="matrix(1, 0, 0, -1, 0, 232.06)" gradientUnits="userSpaceOnUse"><stop offset="0" stop-color="#ffbafb"/><stop offset="0.6" stop-color="#e8bbfd"/><stop offset="1" stop-color="#dfbcfe"/></linearGradient><linearGradient id="bb8fe1ca-c93b-4a18-8cfb-cb7fec2ece21" x1="16.92" y1="193.71" x2="25.77" y2="193.71" gradientTransform="matrix(1, 0, 0, -1, 0, 232.06)" gradientUnits="userSpaceOnUse"><stop offset="0" stop-color="#8da6b0"/><stop offset="1" stop-color="#859fa5"/></linearGradient></defs><title>camera</title><g id="a257f012-372e-44df-a02a-9bc3a0f63212" data-name="Layer 2"><g id="ae441ca2-8d3e-421e-bec0-3149b70dfa30" data-name="Layer 1"><g id="af9848b2-ac77-459b-8d7b-79eec31edcf7" data-name="Layer 2"><g id="a5aa2222-da6d-491c-b968-93795351716b" data-name="icons"><line class="a759ee39-3b72-45d0-86a3-d1176a493fa2" x1="7.24" y1="3.55" x2="12.84" y2="3.55"/><path class="ae82002b-f315-453f-84dc-e8496f98d6f0" d="M17.9,44.69H4.5a3,3,0,0,1-3-3V12.5a3,3,0,0,1,3-3H20.57l7.86-8H45.82l7.67,8h7.15a3,3,0,0,1,3,3V41.69a3,3,0,0,1-3,3h-5"/><path class="ecf8d653-659b-47c1-bb50-462b80a8bdbd" d="M10.61,16.12a.78.78,0,1,1-.78-.78h0A.78.78,0,0,1,10.61,16.12Z"/><path class="e4657c60-7bc4-4225-b448-71ff872cda11" d="M51.65,25.51h-.11l-.29.12a15.79,15.79,0,0,1,.3,1.67v.95a1.61,1.61,0,0,1,0,.31v.54A15.3,15.3,0,0,1,46.92,40v.24c.58,3.56,2,4.29,2.83,4.32a20.11,20.11,0,0,0,7-15.39,21.18,21.18,0,0,0,0-2.76C56,25.44,54.43,24.45,51.65,25.51Z"/><path class="a06b5868-eff8-468e-a89d-869b8a6c0660" d="M23.89,21.37l.1.05.32.14a14.73,14.73,0,0,1,12.6-7.1h1.82l.39,0h0c.42.06.84.15,1.25.25h0l.34.09c-.08-.14,0-.26,0-.38s.06,0,0,0c-1.59-2.16-3.09-5.43-7.85-5A20.2,20.2,0,0,0,20.91,17C20.79,18.31,21.22,20.17,23.89,21.37Z"/><path class="e476919e-871f-4f8c-9acc-72e7e1c05fd2" d="M44.06,26.43a3.87,3.87,0,0,0,1.81.75,4.67,4.67,0,0,0,1.12-.1,30.67,30.67,0,0,0,4.29-1.39C50.35,19,45.86,16.33,40.67,15c1.63,2.71,2.32,9,2.42,9.76A2.44,2.44,0,0,0,44.06,26.43Z"/><path class="bbc0ae8f-f8f5-4a70-9b0e-471ec271c931" d="M40.42,14.57h0c.08.12.16.24.24.38A14.74,14.74,0,0,1,51.23,25.69h0l.3-.12h.11c2.78-1.06,4.36.06,5.17,1.06A20.06,20.06,0,0,0,36.91,9.14a20.58,20.58,0,0,0-4.07.41C37.31,9.86,38.83,12.41,40.42,14.57Z"/><path class="bbfda7cd-f536-4e1a-8a65-ace981547041" d="M29.85,26.13a3.91,3.91,0,0,0-.75-1.82c-.36-.36-.87-1-4.85-2.81A15.11,15.11,0,0,0,22,29.21a14.85,14.85,0,0,0,2.17,7.36c.8-3.08,4.68-7.91,5.18-8.55A2.47,2.47,0,0,0,29.85,26.13Z"/><path class="b437938c-6df0-4dea-bb92-f5798e5dcaaf" d="M47.09,40.28A.63.63,0,0,0,47,40a.11.11,0,0,0,0-.08,14.73,14.73,0,0,1-20.82-.58,14.39,14.39,0,0,1-1.68-2.14,3.62,3.62,0,0,1-.41-.68.42.42,0,0,1-.26-.06c-.09-.06-.45.57-.45.61s-.69.23-.06.11c-.39,2.63-.83,5.54,2.43,8.73a20.07,20.07,0,0,0,24.09-1.37C49,44.5,47.68,43.83,47.09,40.28Z"/><path class="fdf309a1-e068-4525-a4bd-60898a9b413d" d="M16.92,30.91a16.06,16.06,0,0,0,7,6l.67.35s-.33-.57-.41-.74a14.62,14.62,0,0,1,.19-15L24,21.38l-.1-.05c-2.68-1.2-3-3.1-2.9-4.37a20,20,0,0,0-4.13,12.18A17.36,17.36,0,0,0,16.92,30.91Z"/><path class="abaa55e6-d70b-473e-9879-d668766363ac" d="M42.67,29.85A3.17,3.17,0,0,0,39.9,30c-.84.41-11.46,8.65-15.37,7.23A14.73,14.73,0,0,0,44.9,41.56,15.26,15.26,0,0,0,47,39.91c-.86-5.81-2.44-8-2.44-8A8.25,8.25,0,0,0,42.67,29.85Z"/><path class="fa7ddd97-d0bb-4653-b4f1-492bad3d18e3" d="M16.92,30.85a20,20,0,0,0,8.85,15C22.92,42.52,23.64,39.67,24,37h0V37H24A16.58,16.58,0,0,1,16.92,30.85Z"/></g></g></g></g></svg>