<svg xmlns="http://www.w3.org/2000/svg" viewBox="0 0 51 41.38">
  <title>camera2</title>
  <path d="M25.34,12.65A11.74,11.74,0,1,0,37.08,24.39,11.67,11.67,0,0,0,25.34,12.65Zm0,0A11.74,11.74,0,1,0,37.08,24.39,11.67,11.67,0,0,0,25.34,12.65Zm22-6.6H35.84C34.6,6.05,35.24.66,33,.38,28.35-.2,21.65.05,17,.05c-3.27,0-2.16,6-3.33,6h-10A3.67,3.67,0,0,0,0,9.72v28a3.68,3.68,0,0,0,3.67,3.66H47.34A3.66,3.66,0,0,0,51,37.72v-28A3.66,3.66,0,0,0,47.35,6.05Zm-22,32.68A14.34,14.34,0,1,1,39.67,24.4,14.34,14.34,0,0,1,25.32,38.73Zm20.18-23h-3a2.17,2.17,0,0,1,0-4.34h3a2.17,2.17,0,1,1,0,4.34ZM25.34,12.65A11.74,11.74,0,1,0,37.08,24.39,11.67,11.67,0,0,0,25.34,12.65Zm0,0A11.74,11.74,0,1,0,37.08,24.39,11.67,11.67,0,0,0,25.34,12.65Zm0,0A11.74,11.74,0,1,0,37.08,24.39,11.67,11.67,0,0,0,25.34,12.65Z"/>
</svg>
