<svg xmlns="http://www.w3.org/2000/svg" xmlns:xlink="http://www.w3.org/1999/xlink" viewBox="0 0 2508.45 1230.47"><defs><style>.fe9ec8bc-b3bb-4209-867a-d61c7397c2f7{fill:#ede7fa;}.a10c1069-012d-4964-9213-c25de5e74874{fill:#e3d8f6;}.a10c1069-012d-4964-9213-c25de5e74874,.a9d7a1ad-ece0-4226-a082-773740af5c8c,.ada0962e-6d0d-4dd7-bd45-c51eb6d54c36,.bdc52d79-b869-4667-8fe4-5f138e3f966a,.e46a797b-5113-40fc-8871-188186cb826f,.e93b559d-aa4d-4d75-a13b-72a5a188ef6a{fill-rule:evenodd;}.e93b559d-aa4d-4d75-a13b-72a5a188ef6a{fill:#d1c1f2;}.a9d7a1ad-ece0-4226-a082-773740af5c8c{fill:url(#ad3fc3b7-f49e-4f5f-b9f9-1cbe26540165);}.ada0962e-6d0d-4dd7-bd45-c51eb6d54c36{fill:url(#fa860af8-4557-43da-bd42-8fdd225081af);}.e46a797b-5113-40fc-8871-188186cb826f{fill:url(#ef9ca6fb-d8d9-460e-a5f2-3fb348384f46);}.b6076023-3151-43bc-98ce-051e79a95268{fill:#c3b2e6;}.a2535267-7cb3-4f90-b382-8f69b445d49f{opacity:0.4;}.a005439c-7d82-4245-91e3-0a345c79226c,.bdc52d79-b869-4667-8fe4-5f138e3f966a{fill:#b39fdb;}.b99e8027-5d46-4fdc-932e-bea6d86fab52{fill:#191656;}.a01ee751-7f9b-43f5-b061-1df80407ef63{opacity:0.13;}.f81064e5-5fc9-4dfe-bf77-fb67db22d50c{fill:#0e024e;}.a4f555c7-7162-4779-8d4a-4b08b23c25c8{fill:url(#ad4ee301-4b0d-49d9-908f-a53659c4b039);}.a73a1158-3e71-4c68-b157-fdb58bfdb57d{fill:url(#aad39797-912c-4788-8ec1-b729925312d9);}.ad880db4-f5c7-4cec-8bfc-eb03b0fced0e{fill:url(#f74761c1-06b1-4184-9cfe-7a3e54bf3b8b);}.eafa26ab-8ce7-4ce0-94a1-7595e5b8dc0a{fill:url(#f5994137-a67a-4db9-93d1-08076aac79ba);}.f06d20d4-117c-41da-a60d-aad93300e75a{fill:url(#ab2ca24d-b5f1-4953-818c-cfd7c0fbb5f9);}.bfadbeb2-7b11-4906-bb18-aa6fd5ea8b9f{fill:url(#b51ce482-cb90-4a42-b1a2-4baac0c20123);}.fdf82e50-0183-4a82-9657-67e9bcf9b0c9{fill:url(#aa7aeb14-d566-46cd-a345-10f2b4866f24);}.a4e67056-9627-438b-9ddb-7c2c7650c892{fill:url(#a8110ae9-c6da-4aed-8997-0935d993d054);}.f0304837-1a6f-49b6-a27d-c08f254ab1e6{fill:url(#e4de530a-8788-4453-84c0-8ace49c45ea8);}.a7abf87e-1d1f-408a-a65d-338b0f3500af{fill:url(#fb874cd6-d383-4063-a769-90e4ad7eb9c1);}.bd1856f2-ef92-44ea-865d-5f39445c9273{fill:#b9a6e1;}.e7fe6d58-9af2-423e-952b-fd372e5b1b52{fill:url(#a9f87ebe-8978-40d2-a093-4f64b3b79509);}.a90b2979-9b20-451f-b991-3d3371c16faa{fill:url(#a4ac15c0-b059-49f1-8468-b2fdfc72b11f);}.e5bb67cd-213f-427d-98cb-28334acd3973{fill:url(#a96c9200-d38e-4cc8-a4c5-de69d27e3386);}.b41f8d0b-982b-4ab2-9410-15d26aeb2731{fill:url(#e82c0508-4f8a-4c61-b6fd-92d9c6580884);}.f2842409-8138-42b0-967a-47d08bd9e68d{fill:url(#b106c3fb-8e22-42f3-9bf5-6c385362b099);}.a951bcf8-64fe-4c51-8141-b4c3c396c7b0{fill:url(#a756336e-907f-4b84-91e7-8eeb6d5f0d78);}.a2c73dad-6b3e-46ac-a3c7-edbeb77a4e4d{fill:url(#b290829f-8c66-447d-9ae9-60ac7af7ac1c);}.a213af39-eb2d-455c-8c32-05b9d917c142{fill:#8b6fc6;}.ba795524-e7c8-4975-a749-1dc5af2eac1e{fill:#efefff;}.a3c0bf54-1ab0-4655-9945-5810fd82ba20{fill:url(#a91146d4-50d6-4e5b-bd91-940f77a521dc);}.e517de91-6f81-4b09-8d58-9150f13acad0{fill:#30c9b8;}.ba245d2a-5aa1-42a2-8cb0-36e14a3b8870{fill:url(#ed1ec2bc-36b7-46e4-a5e8-c107422e2319);}.bc19414c-75cd-4745-8693-f1aaea9a48b4{fill:url(#a43e1668-f1fd-4d12-90bb-73dcb9feb777);}.b01b6a94-7a45-4a24-aa96-093867faa91e{fill:url(#a3381c72-0c9d-448a-abe0-7a4e46ed5b02);}.b81054ad-42fb-410d-b895-154745aacf78{fill:url(#bcd99dfa-fc83-4121-84e5-3a69178ab6da);}.ae19c6e7-11ed-4f02-86c2-c4916385e5f0{fill:url(#e29a5ac7-b104-47e3-bae5-e1ab83913af6);}.b67d2082-a39b-4f39-906e-f453c06f9b1a{fill:url(#ad1a738f-f49d-4e2d-9629-eb019a53fd01);}.a7a287c8-cf98-4a24-82f9-5c5128e75711{fill:url(#b83ddad3-40fa-43bb-b9a0-68e333b7cd3f);}.a2c55820-069a-461a-a962-9a1db0cf55b8{fill:url(#b140a128-0895-4c2a-9c83-a936ff0a5b56);}.e46112db-1c86-416d-88c6-bf020244b0d2{fill:url(#b9391650-c5ed-428f-85b7-06117b17187d);}.e6ae943a-a434-41c7-b7d1-3145d7310595{fill:url(#b6cc79a6-ffec-4dd1-9d5a-59c9aa095f3c);}.bec4c64c-b4a6-41c0-b05d-db178cd35902{fill:url(#f30be868-0128-47a8-bf97-7c8135ac103f);}</style><linearGradient id="ad3fc3b7-f49e-4f5f-b9f9-1cbe26540165" x1="1552.86" y1="173.38" x2="1552.86" y2="270.19" gradientTransform="translate(2076.68 1223.64) rotate(180)" gradientUnits="userSpaceOnUse"><stop offset="0" stop-color="#b4a1dc"/><stop offset="1" stop-color="#d1c1f2"/></linearGradient><linearGradient id="fa860af8-4557-43da-bd42-8fdd225081af" x1="1276.74" y1="243.85" x2="1156.84" y2="540.48" gradientTransform="matrix(-0.65, 0.17, -0.26, -0.97, 1614.73, 1081.9)" xlink:href="#ad3fc3b7-f49e-4f5f-b9f9-1cbe26540165"/><linearGradient id="ef9ca6fb-d8d9-460e-a5f2-3fb348384f46" x1="1269.06" y1="256.95" x2="1150.44" y2="550.41" gradientTransform="matrix(-0.65, 0.17, -0.26, -0.97, 1614.73, 1081.9)" xlink:href="#ad3fc3b7-f49e-4f5f-b9f9-1cbe26540165"/><linearGradient id="ad4ee301-4b0d-49d9-908f-a53659c4b039" x1="1275.98" y1="76.66" x2="1331.56" y2="172.94" gradientTransform="matrix(1, 0, 0, -1, 0, 1223.64)" gradientUnits="userSpaceOnUse"><stop offset="0" stop-color="#aed1e5"/><stop offset="1" stop-color="#75b2e1"/></linearGradient><linearGradient id="aad39797-912c-4788-8ec1-b729925312d9" x1="1057.59" y1="98.29" x2="1211.35" y2="98.29" gradientTransform="matrix(1, 0, 0, -1, 0, 1223.64)" gradientUnits="userSpaceOnUse"><stop offset="0" stop-color="#75b2e1"/><stop offset="1" stop-color="#aed1e5"/></linearGradient><linearGradient id="f74761c1-06b1-4184-9cfe-7a3e54bf3b8b" x1="1186.13" y1="82.05" x2="1509.46" y2="82.05" gradientTransform="matrix(1, 0, 0, -1, 0, 1223.64)" gradientUnits="userSpaceOnUse"><stop offset="0" stop-color="#fdc7bd"/><stop offset="1" stop-color="#f7b1a5"/></linearGradient><linearGradient id="f5994137-a67a-4db9-93d1-08076aac79ba" x1="1304.46" y1="77.6" x2="1526.22" y2="77.6" xlink:href="#aad39797-912c-4788-8ec1-b729925312d9"/><linearGradient id="ab2ca24d-b5f1-4953-818c-cfd7c0fbb5f9" x1="1057.3" y1="66.17" x2="1400.79" y2="66.17" xlink:href="#f74761c1-06b1-4184-9cfe-7a3e54bf3b8b"/><linearGradient id="b51ce482-cb90-4a42-b1a2-4baac0c20123" x1="1057.32" y1="66.17" x2="1285.81" y2="66.17" xlink:href="#aad39797-912c-4788-8ec1-b729925312d9"/><linearGradient id="aa7aeb14-d566-46cd-a345-10f2b4866f24" x1="1240.46" y1="359.78" x2="1240.46" y2="523.45" gradientTransform="matrix(1, 0, 0, -1, 0, 1223.64)" gradientUnits="userSpaceOnUse"><stop offset="0" stop-color="#1d1a5d"/><stop offset="1" stop-color="#181553"/></linearGradient><linearGradient id="a8110ae9-c6da-4aed-8997-0935d993d054" x1="1244.09" y1="375.74" x2="1372.75" y2="375.74" xlink:href="#f74761c1-06b1-4184-9cfe-7a3e54bf3b8b"/><linearGradient id="e4de530a-8788-4453-84c0-8ace49c45ea8" x1="1267.43" y1="423.92" x2="1322.55" y2="423.92" gradientTransform="matrix(1, 0, 0, -1, 0, 1223.64)" gradientUnits="userSpaceOnUse"><stop offset="0" stop-color="#f7b1a5"/><stop offset="1" stop-color="#fdc7bd"/></linearGradient><linearGradient id="fb874cd6-d383-4063-a769-90e4ad7eb9c1" x1="1303.29" y1="132.76" x2="1303.29" y2="398.94" gradientTransform="matrix(1, 0, 0, -1, 0, 1223.64)" gradientUnits="userSpaceOnUse"><stop offset="0" stop-color="#a895d5"/><stop offset="1" stop-color="#d1c1f2"/></linearGradient><linearGradient id="a9f87ebe-8978-40d2-a093-4f64b3b79509" x1="1156.24" y1="295.71" x2="1304" y2="295.71" xlink:href="#f74761c1-06b1-4184-9cfe-7a3e54bf3b8b"/><linearGradient id="a4ac15c0-b059-49f1-8468-b2fdfc72b11f" x1="1374.39" y1="190.75" x2="1374.39" y2="400.46" xlink:href="#e4de530a-8788-4453-84c0-8ace49c45ea8"/><linearGradient id="a96c9200-d38e-4cc8-a4c5-de69d27e3386" x1="1322.43" y1="464.02" x2="1426.12" y2="464.02" xlink:href="#aa7aeb14-d566-46cd-a345-10f2b4866f24"/><linearGradient id="e82c0508-4f8a-4c61-b6fd-92d9c6580884" x1="1303.08" y1="439.49" x2="1303.08" y2="563.18" xlink:href="#f74761c1-06b1-4184-9cfe-7a3e54bf3b8b"/><linearGradient id="b106c3fb-8e22-42f3-9bf5-6c385362b099" x1="1299.74" y1="499.63" x2="1312.58" y2="499.63" xlink:href="#f74761c1-06b1-4184-9cfe-7a3e54bf3b8b"/><linearGradient id="a756336e-907f-4b84-91e7-8eeb6d5f0d78" x1="1281.33" y1="466.53" x2="1324.79" y2="466.53" xlink:href="#f74761c1-06b1-4184-9cfe-7a3e54bf3b8b"/><linearGradient id="b290829f-8c66-447d-9ae9-60ac7af7ac1c" x1="1192.14" y1="476.3" x2="1337.1" y2="476.3" xlink:href="#aa7aeb14-d566-46cd-a345-10f2b4866f24"/><linearGradient id="a91146d4-50d6-4e5b-bd91-940f77a521dc" x1="1151.45" y1="968.69" x2="1162.42" y2="968.69" gradientTransform="matrix(1, 0, 0, -1, 0, 1280.64)" xlink:href="#aad39797-912c-4788-8ec1-b729925312d9"/><linearGradient id="ed1ec2bc-36b7-46e4-a5e8-c107422e2319" x1="1451.27" y1="904.7" x2="1471.38" y2="904.7" gradientTransform="matrix(1, 0, 0, -1, 0, 1280.64)" xlink:href="#aad39797-912c-4788-8ec1-b729925312d9"/><linearGradient id="a43e1668-f1fd-4d12-90bb-73dcb9feb777" x1="1022.56" y1="968.69" x2="1039.02" y2="968.69" gradientTransform="matrix(1, 0, 0, -1, 0, 1280.64)" xlink:href="#aad39797-912c-4788-8ec1-b729925312d9"/><linearGradient id="a3381c72-0c9d-448a-abe0-7a4e46ed5b02" x1="1039.02" y1="1078.38" x2="1049.99" y2="1078.38" gradientTransform="matrix(1, 0, 0, -1, 0, 1280.64)" xlink:href="#aad39797-912c-4788-8ec1-b729925312d9"/><linearGradient id="bcd99dfa-fc83-4121-84e5-3a69178ab6da" x1="1348.89" y1="883.22" x2="1379.97" y2="883.22" gradientTransform="matrix(1, 0, 0, -1, 0, 1280.64)" xlink:href="#aad39797-912c-4788-8ec1-b729925312d9"/><linearGradient id="e29a5ac7-b104-47e3-bae5-e1ab83913af6" x1="1274.85" y1="880.02" x2="1287.65" y2="880.02" gradientTransform="matrix(1, 0, 0, -1, 0, 1280.64)" xlink:href="#aad39797-912c-4788-8ec1-b729925312d9"/><linearGradient id="ad1a738f-f49d-4e2d-9629-eb019a53fd01" x1="1220.01" y1="1040.44" x2="1346.15" y2="1040.44" gradientTransform="matrix(1, 0, 0, -1, 0, 1280.64)" xlink:href="#aad39797-912c-4788-8ec1-b729925312d9"/><linearGradient id="b83ddad3-40fa-43bb-b9a0-68e333b7cd3f" x1="1269.37" y1="955.89" x2="1292.2" y2="955.89" gradientTransform="matrix(1, 0, 0, -1, 0, 1280.64)" xlink:href="#aad39797-912c-4788-8ec1-b729925312d9"/><linearGradient id="b140a128-0895-4c2a-9c83-a936ff0a5b56" x1="1360.78" y1="754.8" x2="1373.57" y2="754.8" gradientTransform="matrix(1, 0, 0, -1, 0, 1280.64)" xlink:href="#aad39797-912c-4788-8ec1-b729925312d9"/><linearGradient id="b9391650-c5ed-428f-85b7-06117b17187d" x1="1144.14" y1="692.64" x2="1156.93" y2="692.64" gradientTransform="matrix(1, 0, 0, -1, 0, 1280.64)" xlink:href="#fb874cd6-d383-4063-a769-90e4ad7eb9c1"/><linearGradient id="b6cc79a6-ffec-4dd1-9d5a-59c9aa095f3c" x1="1089.3" y1="853.06" x2="1215.45" y2="853.06" gradientTransform="matrix(1, 0, 0, -1, 0, 1280.64)" xlink:href="#fb874cd6-d383-4063-a769-90e4ad7eb9c1"/><linearGradient id="f30be868-0128-47a8-bf97-7c8135ac103f" x1="1138.65" y1="768.51" x2="1161.49" y2="768.51" gradientTransform="matrix(1, 0, 0, -1, 0, 1280.64)" xlink:href="#fb874cd6-d383-4063-a769-90e4ad7eb9c1"/></defs><title>congratilation</title><g id="bf16a9c3-c080-448e-a7e4-9111827f503d" data-name="Layer 2"><g id="aa46e051-ef59-46a8-b8a0-f6f6397c150d" data-name="Layer 1"><g id="b66c7622-2cf3-4c5e-ac3f-ef2322beed3c" data-name="Layer 2"><g id="b6d52838-7954-4872-af8c-985a18bebd04" data-name="Background"><g id="b5b549e9-c363-46c2-aa6e-cde9ec3b7c68" data-name="Background-2"><rect class="fe9ec8bc-b3bb-4209-867a-d61c7397c2f7" x="0.02" width="2508.43" height="1211.21"/></g></g><g id="e7d0d712-f2ee-46b4-a609-c39c75546f97" data-name="Rectangle 3"><g id="ae475ac7-3476-4dc1-b23a-16787f147e98" data-name="Rectangle 3-2"><path class="a10c1069-012d-4964-9213-c25de5e74874" d="M2508.45,1009.89C2291.3,988.89,2217.08,48.52,1869,109.1,1618.68,152.67,1625.21,655,1420.73,655c-99.48,0-176.2-27.12-312.17-179-105.38-117.71-222.91,235.39-327,99.13C652.06,405.51,628.37,193.11,623.12,0H71.69C26.58,232.65,9,498.44,0,699v512.24H2508.45Z"/></g></g><g id="fec7f988-9250-40ba-97f2-9cd8bbf81916" data-name="Rectangle 4"><g id="b7b07206-aaa8-40f3-8eae-f28fdf748a64" data-name="Rectangle 4-2"><path class="e93b559d-aa4d-4d75-a13b-72a5a188ef6a" d="M2508.45,1087c-128.46-47.18-304.69-83.56-458.68-15.5-167.45,74-235.14-162.41-455.1-146.92-173.91,12.24-191.77,125.89-314.36,130.41-99.07,3.66-123-38.39-211.19-32-99.38,7.21-119.65,41.59-208,41.59-70.32,0-160.86-70.39-217.59-70.39-94.18,0-150.25,137-335.35,116.72C167,1095.44,68.58,1093.15,0,1097.87v113.28H2508.45Z"/></g><path class="a9d7a1ad-ece0-4226-a082-773740af5c8c" d="M472.67,982.3c42-3.93,86.57-3.93,125.92,11.81,26.9,12.23,65.2,31.3,85.15,56.15h4.82l.53-3.69c-9.18-72.14-99.72-93.12-158.72-93.12-63,0-110.18,39.35-171.82,47.22C396.59,1005.91,434.63,986.24,472.67,982.3Z"/><path class="ada0962e-6d0d-4dd7-bd45-c51eb6d54c36" d="M689.37,1038.91c-8.35-37.76,9.53-84.48,20.5-110.71,21.36-52.31,21.65-115.67,12.07-181,38,62.3,45.63,166.34,17,216.91-13.76,25.13-51.48,40-49.05,81.21Z"/><path class="e46a797b-5113-40fc-8871-188186cb826f" d="M690.47,1025.82a70.28,70.28,0,0,1,.68-16.07c1.05-5.41,3.32-9.94,5.6-14.22,4.89-9.18,9.79-18.35,14.9-27.26s10-17.91,12.74-29.15c1.37-5.51,2.49-11.2,4-16.64s2.83-10.67,4.1-16.11a277.29,277.29,0,0,0,5.73-32.12c2.39-21.4,1.29-43.9-1.31-66.6a281.21,281.21,0,0,0-5.74-34.1,127.28,127.28,0,0,0-8.8-25.68c37.68,62.37,45.12,165.83,16.55,216.22-12.06,22-42.49,36.14-48.22,67C690.63,1029.34,690.54,1027.57,690.47,1025.82Z"/></g><g id="a40050bf-8186-4d3a-b80b-e5cfdc1da6a6" data-name="Ellipse 4"><g id="bcdabffb-33e7-4576-9477-ea4d9061a2eb" data-name="Ellipse 4-2"><path class="b6076023-3151-43bc-98ce-051e79a95268" d="M1942.37,322.21C1900,228,1807.52,140.87,1721.46,140.87s-116.37,57.54-114.4,138c.58,23.45,60.82,154.14,55.23,205-13.38,121.67-77.08,127.21-82.84,197.1-8.2,99.5,105.32,210.78,193.29,193.16C2014.19,825.82,1983.51,413.55,1942.37,322.21Z"/></g></g><g id="b58c313d-bb67-4b9e-88a2-eaec63214a8d" data-name="Ellipse 4 copie" class="a2535267-7cb3-4f90-b382-8f69b445d49f"><g id="b66dcd98-ce49-4955-b6b6-ba7d56042e5c" data-name="Ellipse 4 copie-2"><path class="a005439c-7d82-4245-91e3-0a345c79226c" d="M1966,428.44c-2.22-20.23,12.86,184.54-94.6,201.25-161.45,25.13-117.53-196.34-240.63-47.3-11.28,23.22-48.13,49.46-51.28,98.55-12.57,99,105.32,210.78,193.29,193.16C1958.42,836.94,1983.17,584.58,1966,428.44Z"/></g></g><g id="b9f610b1-636c-41f3-a131-7a3e4fc25b60" data-name="Rectangle 6"><g id="a86aec3a-c7b1-4a47-b90d-f775ebf1d1b6" data-name="Rectangle 6-2"><path class="b99e8027-5d46-4fdc-932e-bea6d86fab52" d="M1800.37,822.82c-5.36-192.74-23.67-410-23.67-410h-4s5.73,194.9,3.66,380.41c-1.87,168.45-11.55,329.17-11.55,329.17h15.78S1804.81,981.58,1800.37,822.82Z"/></g></g><g id="a7f4d7e0-5073-4151-876b-989a7606faaa" data-name="Rectangle 7"><g id="b720e202-f5ff-49b8-a6a4-60bad41fbfda" data-name="Rectangle 7-2"><path class="bdc52d79-b869-4667-8fe4-5f138e3f966a" d="M1988.85,1121.63c-18.49-.83-64.28,3.74-85.82-4.23-46.31-17.13-32.32-54.77-100.11-60.78-95.44-8.45-148.65,167.2-148.65,167.2l84.94-5s74.82-4.58,132.41.51c36,3.19,108,1.28,108,1.28l170.51-5.77S2122.08,1127.57,1988.85,1121.63Z"/></g><g id="fbef6db0-c857-4a74-8b28-145662ae5a01" data-name="Ellipse 5 copie" class="a01ee751-7f9b-43f5-b061-1df80407ef63"><path class="f81064e5-5fc9-4dfe-bf77-fb67db22d50c" d="M1627.05,1167.82c0-12-512.43-9.49-551.78-9.49s-71.26,9.77-71.26,21.82c0,5.39-37.65,39.83-27.07,43.64,13.07,4.7,69.18,0,90.93,0,33.19,0,505.64,13.84,580.09,1.69,8.65-1.41,28.65-57.8,28.65-57.8C1671.23,1163.66,1627.05,1168.51,1627.05,1167.82Z"/></g><g id="b86d5101-9114-4da8-812a-32d3b16e566c" data-name="Forme 45"><path class="a4f555c7-7162-4779-8d4a-4b08b23c25c8" d="M1376.06,1076.39s-31.77,10-68,10c-37.31,0-79.1-10-79.1-10l-21.17,31.23s62.78,36.81,100.27,36.81c18.54,0,45.52-7,62.39-17.85a63.53,63.53,0,0,0,22.29-24.54Z"/></g><g id="b45360e2-af6d-4224-852d-3eb4f2e66d1d" data-name="Forme 48"><path class="a73a1158-3e71-4c68-b157-fdb58bfdb57d" d="M1210.2,1108.16l-.31-1.07s-70-19.43-125.75-1.7c-33.51,10.66-25.78,46.31-25.78,46.31l.32,1.07s92,.41,136.88-12.8C1217.46,1133.52,1210.2,1108.16,1210.2,1108.16Z"/></g><g id="f1083a73-a2a4-448b-a0d3-91e99bbdd292" data-name="Forme 46 copie"><path class="ad880db4-f5c7-4cec-8bfc-eb03b0fced0e" d="M1399.45,1103.16c-13,2.27-22,3.59-27.85,17.85-2.48,6.08-29.9,12.71-61.28,13.38-13.3.28-25.63-12.07-39-15.62-7.15-1.89-14.69,3-21.17,0-17.81-8.26-30.69-15-41.22-15.61-8.38-.49-14.75,4.06-16.71,5.58-4.6,3.56-7.28,9.54-5.57,14.5,8.93,25.9,89.13,58,89.13,58l3.34,3.34s43.85-.69,99.51.7c23.14.58,49.67-16.21,69.84-19,52.93-7.4,43.33-13.48,43.33-13.48H1504S1545.53,1077.7,1399.45,1103.16Z"/></g><g id="b683c1c7-c23b-4a93-92d6-e1cb485fd09e" data-name="Forme 46 copie 2"><path class="eafa26ab-8ce7-4ce0-94a1-7595e5b8dc0a" d="M1399.45,1102c-13,2.27-22,3.59-27.85,17.85-2.48,6.08-30,10.64-61.28,13.39-13.19,1.15,0,55.77,0,55.77s22.36,4.78,78,6.17c23.14.58,46.65-2.24,66.82-5.06,52.93-7.4,70.27-37.37,70.27-37.37l-.15-1.11S1545.53,1076.59,1399.45,1102Z"/></g><g id="aff3512a-ba14-4468-a388-99e017d15cfd" data-name="Forme 47"><path class="f06d20d4-117c-41da-a60d-aad93300e75a" d="M1388.31,1153.35c-19.14-4.18-46.89,7.71-84.68,6.7-38.26-1-76.7-36.17-117-37.93-58.56-2.56-52.75,5-49.89,7.22l.86.59a7.27,7.27,0,0,1-.86-.59c-4.51-3-26.09-16.36-44.82-11.68-20.22,5-34.62,32.9-34.62,32.9s21.4,38.58,62.48,45.18c40.09,6.44,89.77-.9,124.78-5.58,25.5-3.4,140.39,4.46,140.39,4.46l12.25-8.92S1409.61,1158,1388.31,1153.35Z"/></g><g id="b6bbaadd-b655-44ea-b300-9bf3bcc43cc4" data-name="Forme 47 copie"><path class="bfadbeb2-7b11-4906-bb18-aa6fd5ea8b9f" d="M1186.65,1122.12c-58.56-2.56-52.75,5-49.89,7.22l.86.59a7.27,7.27,0,0,1-.86-.59c-4.51-3-26.09-16.36-44.82-11.68-20.22,5-34.62,32.9-34.62,32.9s21.4,38.58,62.48,45.18c40.09,6.44,89.77-.9,124.78-5.58,1,1.06,39.82-38.07,41.23-37.92C1247.54,1151.21,1226.93,1123.88,1186.65,1122.12Z"/></g><g id="aa5bfb65-1965-4a8a-97f0-834a8c5d8cb7" data-name="Forme 54"><path class="fdf82e50-0183-4a82-9657-67e9bcf9b0c9" d="M1305.86,700.49c-25.92-6.08-124.3,82.16-131.47,95.93-23.86,45.83,18.65,66.44,18.65,66.44l.58,1,92.48-55.77-.58-1S1331.93,706.61,1305.86,700.49Z"/></g><g id="a13d641b-4aab-46fc-a454-e0bf28fdc71d" data-name="Forme 51"><path class="a4e67056-9627-438b-9ddb-7c2c7650c892" d="M1352.66,833.23c-1.62-4-6.2-6.58-11.08-10.12-6-4.38-12.54-9.73-14.55-14.42-4.73-11.06-.15-29.09-5.57-36.81-9.76-13.9-32.11,1.68-40.11,1.11-8.79-.63,3.16,22.53-6.68,40.16-5.13,9.19-22.39,5.37-25.63,16.73-10.47,36.67-1.07,89.79-1.07,89.79l-.08,1.12,124.78,8.92.08-1.11S1370.93,878.91,1352.66,833.23Z"/></g><g id="f9384bdb-67a7-4649-b7f8-2901573f5773" data-name="Forme 62"><path class="f0304837-1a6f-49b6-a27d-c08f254ab1e6" d="M1275.23,768.45s5.72,18.53,3.89,31.31a42.52,42.52,0,0,1-11.69,23.35l6.12,7.88,49-62.46Z"/></g><g id="ee81ecf4-2e75-4e98-a103-34b896dd877a" data-name="Forme 49"><path class="a7abf87e-1d1f-408a-a65d-338b0f3500af" d="M1367.22,1008.31c3.41-41.64,21-85.17,21-85.17s-17.62-34.84-10.8-86.57c.54-4.11-23.19-8.2-27-7.81-11.69,1.22,34.32,94.55-54.59,89.24-74-4.42-28.68-102.65-41.23-92.58-8.76,7-16.54,17.93-20,33.46-2.37,10.46-1.08,24.9-3.35,34.58a105.9,105.9,0,0,1-12.88,31.27s15.36,46.93,18.11,88.58c2.2,33.24-8.08,63.12-8.08,63.12l1.11-.08a180.64,180.64,0,0,0,42.11,10.92c43.34,5.73,104.43,6.31,103.29-10.88C1373.83,1059.52,1365.13,1033.82,1367.22,1008.31Z"/></g><g id="b38ae115-ad53-41dc-aa45-417c335c6f1a" data-name="Forme 64"><path class="bd1856f2-ef92-44ea-865d-5f39445c9273" d="M1250.15,1005c-2.94-41.61-30.64-83.7-30.64-83.7l-1.11.08s14.37,42.73,17.27,83.62c2.67,37.62-6.13,73.66-6.13,73.66l1.12-.08S1252.76,1041.72,1250.15,1005Z"/></g><g id="bd741ad9-3752-4fd8-a5b3-89e97350dd34" data-name="Forme 50"><path class="e7fe6d58-9af2-423e-952b-fd372e5b1b52" d="M1300.29,877.82c.82-1.61-9.62.36-13.37,20.08-2.42,12.73,3.42,42.67-6.68,53.54-25.06,27-82.46,34.25-81.34,31.23,8.34-22.41,10.27-51.45,14.49-61.35,1.49-3.49,4.45,2.24,4.45,2.24s9.34-9.55,13.37-26.77c5.63-24,6.2-59.21,3.35-71.39-2.92-12.47-33.43,26.77-33.43,26.77a98,98,0,0,0-13.76,23.65c-8.1,19.64-15.31,48.49-19.64,74.55-3.41,20.45-13.44,51.34-11.15,65.81,2.42,15.21,16.16,16.73,23.4,16.73s32.87-7.81,43.45-12.27,45.79-20.5,74.65-39C1311.57,957.74,1297.37,883.63,1300.29,877.82Z"/></g><g id="a5acfa28-74d2-4db0-affe-ea6677974730" data-name="Forme 50 copie"><path class="a90b2979-9b20-451f-b991-3d3371c16faa" d="M1437,950.43c-4.35-26-11.58-54.85-19.69-74.47a97.85,97.85,0,0,0-13.82-23.59s-27.85-39.2-30.77-26.75c-1.79,7.59-3.35,24.1-2.07,41.26.77,10.39,3.29,21,5.42,30.06,4,17.21,10.66,26.74,10.66,26.74s3-5.72,4.47-2.22c4.23,9.88,6.17,38.89,14.52,61.28,1.13,3-56.43-4.26-81.55-31.2-10.12-10.86-4.27-40.77-6.7-53.48-3.76-19.71-14.22-21.68-13.4-20.06,2.93,5.78-11.31,79.81,2.23,103.63,28.94,18.53,64.23,34.54,74.84,39s36.31,12.26,43.57,12.26,21-1.52,23.46-16.72C1450.43,1001.72,1440.37,970.82,1437,950.43Z"/></g><g id="e9e76d3d-cc2a-449d-a6e4-e990c54d86df" data-name="Forme 52"><path class="e5bb67cd-213f-427d-98cb-28334acd3973" d="M1422.85,816.49c-12.9-31-34.56-31.14-44.57-56.88-11-28.34,0-64.8-15.59-87-7.78-11.06-25.63-14.5-25.63-14.5l-3.85,9.15a467.51,467.51,0,0,1-4,54.43c-3.66,28.08-12.41,61.49-1.65,88.58.24.6,1.4,1.19,1.65,1.77,5.46,12.64,27.22,18.62,46.8,26.77a103.07,103.07,0,0,1,33.42,22.31l2.23-1.11S1434.37,844.33,1422.85,816.49Z"/></g><g id="ae7a70ee-f420-4836-8994-ca328d2d15ee" data-name="Ellipse 22"><path class="b41f8d0b-982b-4ab2-9410-15d26aeb2731" d="M1313.13,660.46c-26.15,0-57.4,16.34-57.4,54.53s21.2,69.16,47.35,69.16,47.35-31,47.35-69.16S1339.28,660.46,1313.13,660.46Z"/></g><g id="fc444fb7-4889-4ae3-b01d-bf6058f85766" data-name="Forme 63"><path class="f2842409-8138-42b0-967a-47d08bd9e68d" d="M1303.08,706.1,1302,706l-2.22,35.7,1.11.07s11.2,1.83,11.7-6.17C1313.15,726,1303.08,706.1,1303.08,706.1Z"/></g><g id="b8380758-fa89-4519-9dfc-005de88be479" data-name="Forme 84"><path class="a951bcf8-64fe-4c51-8141-b4c3c396c7b0" d="M1324.79,754.59s-6.78.89-15,1.1c-5.09.13-10.73-.66-15.63-.32-7.21.51-12.83.33-12.83.33v1.12s11.6,3.06,22.26,2.79a77.66,77.66,0,0,0,21.19-3.91Z"/></g><g id="fc6a2d0a-550c-4b80-adce-a591ef969ce3" data-name="Forme 53"><path class="a2c73dad-6b3e-46ac-a3c7-edbeb77a4e4d" d="M1290.26,622.41c-31.4,0-25.3,26.52-39,49.08-8.31,13.69-22.83,21.89-27.86,32.35-6.08,12.66,9.9,41.9,3.35,58-4.36,10.71-21.84,26.35-30.09,40.15-9.1,15.24-1.75,32.33-1.11,43.51,1,16.66,37.88,26.77,37.88,26.77l-.61-.88s32.18-7.69,38.49-37c3.94-18.32-20.08-53.41-13.37-74.73,2.66-8.42,17.6-17.51,20.06-25.66,9.33-31,13.24-53.2,25.62-63.06.85-.68,1.68-1.29,2.49-1.86,19.17-13.27,30.94-.89,30.94-.89v-10S1340.57,622.34,1290.26,622.41Z"/></g><g id="f2a5dd1e-58af-423f-8aee-03da74411fce" data-name="Rectangle 3-4"><polygon class="a213af39-eb2d-455c-8c32-05b9d917c142" points="1247.43 446.32 1246.51 455.46 1261.14 449.06 1262.05 442.66 1247.43 446.32"/></g><g id="b80f86d5-ac8c-4b92-b015-226a47059872" data-name="Rectangle 3 copie"><polygon class="ba795524-e7c8-4975-a749-1dc5af2eac1e" points="1261.14 492.02 1247.43 501.17 1254.74 510.31 1270.28 493.85 1261.14 492.02"/></g><g id="ae5f3558-4386-477f-a3f1-27aee3d9e58d" data-name="Rectangle 3 copie 2"><polygon class="a3c0bf54-1ab0-4655-9945-5810fd82ba20" points="1154.19 303.72 1151.45 317.43 1159.68 320.18 1162.42 308.29 1154.19 303.72"/></g><g id="b7d45f9d-fc62-44ab-b94d-26656855ab33" data-name="Rectangle 3 copie 3"><polygon class="e517de91-6f81-4b09-8d58-9150f13acad0" points="1115.8 300.98 1113.06 313.78 1124.03 311.95 1125.86 299.15 1115.8 300.98"/></g><g id="a58d9b00-1496-46e2-8885-af1f0f5d46a6" data-name="Rectangle 3 copie 5"><polygon class="e517de91-6f81-4b09-8d58-9150f13acad0" points="1060.04 532.24 1057.3 545.04 1068.27 543.21 1070.1 530.42 1060.04 532.24"/></g><g id="ed92e99e-e449-42ac-b8f1-125697319bde" data-name="Rectangle 3 copie 6"><polygon class="e517de91-6f81-4b09-8d58-9150f13acad0" points="1125.86 662.04 1123.11 674.84 1134.08 673.01 1135.91 660.21 1125.86 662.04"/></g><g id="b047aba5-0bd1-4844-a6cf-5f298c500b0e" data-name="Rectangle 3 copie 4"><polygon class="a213af39-eb2d-455c-8c32-05b9d917c142" points="1105.75 236.08 1103 254.36 1113.06 251.62 1116.72 235.17 1105.75 236.08"/></g><g id="a81e9c0e-7265-462c-8d7b-82ae93652d73" data-name="Rectangle 3 copie 22"><polygon class="a213af39-eb2d-455c-8c32-05b9d917c142" points="1175.22 265.33 1172.47 283.61 1182.53 280.87 1186.19 264.42 1175.22 265.33"/></g><g id="a0c26734-2355-4cc1-8fa2-6b69fc6d86ad" data-name="Rectangle 3 copie 22-2"><polygon class="ba795524-e7c8-4975-a749-1dc5af2eac1e" points="1367.17 337.54 1361.69 333.89 1360.77 350.34 1369 353.08 1367.17 337.54"/></g><g id="afa5b565-6530-475c-972c-7539ac476f10" data-name="Rectangle 3 copie 22-3"><polygon class="e517de91-6f81-4b09-8d58-9150f13acad0" points="1382.71 279.04 1378.14 282.7 1388.2 290.01 1395.51 283.61 1382.71 279.04"/></g><g id="b6425889-521f-4c02-802c-33d3ac9beff7" data-name="Rectangle 3 copie 22-4"><polygon class="a213af39-eb2d-455c-8c32-05b9d917c142" points="1404.65 244.31 1403.74 251.62 1411.96 257.1 1413.79 247.96 1404.65 244.31"/></g><g id="b71b662d-b25b-4d99-bb30-652a16829c4e" data-name="Rectangle 3 copie 10"><polygon class="ba795524-e7c8-4975-a749-1dc5af2eac1e" points="1087.46 424.38 1085.64 442.66 1094.78 439.92 1097.52 424.38 1087.46 424.38"/></g><g id="b29f7816-e46c-439f-8539-ef6d59b049a3" data-name="Rectangle 3 copie 11"><polygon class="a213af39-eb2d-455c-8c32-05b9d917c142" points="1431.16 307.38 1418.36 315.61 1437.56 322.92 1445.78 317.43 1431.16 307.38"/></g><g id="ae336f3b-de4b-4626-8e03-5130f25bd6df" data-name="Rectangle 3 copie 32"><polygon class="a213af39-eb2d-455c-8c32-05b9d917c142" points="1167.9 726.03 1155.11 734.26 1174.3 741.57 1182.53 736.08 1167.9 726.03"/></g><g id="a3f2f69d-33ca-45ca-a9d2-bc9514ed8da7" data-name="Rectangle 3 copie 33"><polygon class="a213af39-eb2d-455c-8c32-05b9d917c142" points="1049.07 472.83 1036.27 481.06 1055.47 488.37 1063.7 482.88 1049.07 472.83"/></g><g id="facddd6c-10a2-4072-9cb3-467745861130" data-name="Rectangle 3 copie 12"><polygon class="ba245d2a-5aa1-42a2-8cb0-36e14a3b8870" points="1455.84 370.45 1451.27 381.42 1468.64 377.76 1471.38 370.45 1455.84 370.45"/></g><g id="bb477ea5-0b99-4152-a5a7-c54b2212badc" data-name="Rectangle 3 copie 13"><polygon class="bc19414c-75cd-4745-8693-f1aaea9a48b4" points="1035.36 299.15 1022.56 313.78 1030.79 324.75 1039.02 306.46 1035.36 299.15"/></g><g id="b0e52d4c-96e9-4a80-83d0-feb82434c230" data-name="Rectangle 3 copie 14"><polygon class="e517de91-6f81-4b09-8d58-9150f13acad0" points="1320.56 66.06 1316.9 92.57 1326.95 88.91 1330.61 65.15 1320.56 66.06"/></g><g id="f5c84c94-4063-47ab-be5f-d3f7c85db261" data-name="Rectangle 3 copie 25"><polygon class="e517de91-6f81-4b09-8d58-9150f13acad0" points="1331.52 532.24 1327.87 558.75 1337.92 555.1 1341.58 531.33 1331.52 532.24"/></g><g id="fb72b4d9-7196-4a6e-bb8e-2d8f6557fc46" data-name="Rectangle 3 copie 26"><polygon class="e517de91-6f81-4b09-8d58-9150f13acad0" points="1058.21 340.29 1054.56 366.79 1064.61 363.14 1068.27 339.37 1058.21 340.29"/></g><g id="f742caa0-d0ba-4ccb-9b26-1aa7df302fda" data-name="Rectangle 3 copie 15"><polygon class="a213af39-eb2d-455c-8c32-05b9d917c142" points="1258.4 104.45 1255.66 119.08 1288.56 110.85 1290.39 89.83 1258.4 104.45"/></g><g id="b894fda4-e479-49fd-94cc-12364ae8c318" data-name="Rectangle 3 copie 16"><polygon class="ba795524-e7c8-4975-a749-1dc5af2eac1e" points="1148.71 110.85 1145.05 124.56 1167.9 120.91 1169.73 110.85 1148.71 110.85"/></g><g id="e03eeebd-53ec-48d3-9067-0ed371b74e7b" data-name="Rectangle 3 copie 23"><polygon class="ba795524-e7c8-4975-a749-1dc5af2eac1e" points="1216.35 339.37 1212.69 353.08 1235.55 349.43 1237.37 339.37 1216.35 339.37"/></g><g id="f3b9b1fe-666e-45b8-a756-7348a15e704e" data-name="Rectangle 3 copie 24"><polygon class="ba795524-e7c8-4975-a749-1dc5af2eac1e" points="1381.8 558.75 1378.14 572.46 1401 568.81 1402.82 558.75 1381.8 558.75"/></g><g id="fc2fa1f3-6b5b-4aff-b825-6350af25feb2" data-name="Rectangle 3 copie 30"><polygon class="ba795524-e7c8-4975-a749-1dc5af2eac1e" points="1092.03 719.63 1088.38 733.34 1111.23 729.69 1113.06 719.63 1092.03 719.63"/></g><g id="ab575452-63fa-4338-af18-568cb4a09d73" data-name="Rectangle 3 copie 31"><polygon class="ba795524-e7c8-4975-a749-1dc5af2eac1e" points="1098.43 604.46 1094.78 618.17 1117.63 614.51 1119.46 604.46 1098.43 604.46"/></g><g id="bafec80d-e171-4e42-90fc-cb057cdf0be9" data-name="Rectangle 3 copie 17"><polygon class="a213af39-eb2d-455c-8c32-05b9d917c142" points="1109.4 137.36 1109.4 145.59 1122.2 151.98 1123.11 143.76 1109.4 137.36"/></g><g id="bd722f66-90ff-4f03-af6a-9cc70ecde973" data-name="Rectangle 3 copie 21"><polygon class="ba795524-e7c8-4975-a749-1dc5af2eac1e" points="1236.46 590.74 1232.8 604.46 1255.66 600.8 1257.48 590.74 1236.46 590.74"/></g><g id="b5e2936f-5157-4e6c-bf6c-d8c2b1d9a097" data-name="Rectangle 3 copie 21-2"><polygon class="a213af39-eb2d-455c-8c32-05b9d917c142" points="1201.73 604.46 1201.73 612.68 1214.52 619.08 1215.44 610.85 1201.73 604.46"/></g><g id="f4c4c4f2-6bf8-4252-8b39-99109974392d" data-name="Rectangle 3 copie 27"><polygon class="a213af39-eb2d-455c-8c32-05b9d917c142" points="1262.05 382.33 1262.05 390.56 1274.85 396.96 1275.77 388.73 1262.05 382.33"/></g><g id="e35ced12-6423-4c87-a3e4-ca53a8b7ef5f" data-name="Rectangle 3 copie 28"><polygon class="a213af39-eb2d-455c-8c32-05b9d917c142" points="1186.19 169.35 1186.19 177.58 1198.98 183.98 1199.9 175.75 1186.19 169.35"/></g><g id="ab837152-1244-4c13-a9d6-e6714db0f11d" data-name="Rectangle 3 copie 29"><polygon class="a213af39-eb2d-455c-8c32-05b9d917c142" points="1395.51 458.2 1395.51 466.43 1408.31 472.83 1409.22 464.6 1395.51 458.2"/></g><g id="f69bd5c7-6755-4c6a-9147-8d1286cf70dd" data-name="Rectangle 3 copie 18"><polygon class="b01b6a94-7a45-4a24-aa96-093867faa91e" points="1048.16 191.29 1039.93 189.46 1039.02 210.49 1049.99 215.06 1048.16 191.29"/></g><g id="be7ad7be-ed37-42e1-a386-c9355eae466a" data-name="Rectangle 3 copie 19"><polygon class="a213af39-eb2d-455c-8c32-05b9d917c142" points="1371.74 129.13 1363.52 127.3 1362.6 148.33 1373.57 152.9 1371.74 129.13"/></g><g id="b2e11fe9-3931-41f5-9f96-4af3caffb43d" data-name="Rectangle 3 copie 20"><polygon class="b81054ad-42fb-410d-b895-154745aacf78" points="1358.03 387.82 1348.89 393.3 1366.26 407.01 1379.97 398.79 1358.03 387.82"/></g><g id="a79bd297-411d-4b79-b71e-9ff1228ea294" data-name="Rectangle 4-4"><polygon class="a213af39-eb2d-455c-8c32-05b9d917c142" points="1060.04 419.81 1049.99 423.47 1057.3 431.69 1070.1 425.3 1060.04 419.81"/></g><g id="b3d53c29-a19f-4202-85b8-dc95acf20c05" data-name="Rectangle 2"><path class="ae19c6e7-11ed-4f02-86c2-c4916385e5f0" d="M1287.65,394.45c0-16.43-7.6-32-9.14-44.11-1.65-12.94,2.74-21.94,2.74-21.94h-2.74s-3.66,8.75-3.66,21.94c0,12,8.55,27.74,9,43.88.35,12.43-5.9,25.11-6.27,36.56-.3,9.32.7,17.81.9,24.69.32,10.6,0,17.36,0,17.36h1.89a125.76,125.76,0,0,0,.91-16.23c0-7.26-1.29-15.55.23-25.69C1283.15,419.73,1287.65,406.52,1287.65,394.45Z"/></g><g id="a72e35a3-01ed-46b3-bb29-f4b054023807" data-name="Ellipse 1"><path class="b67d2082-a39b-4f39-906e-f453c06f9b1a" d="M1283.08,160.21c-35.85,0-63.07,28.8-63.07,72.21s27.22,87.76,63.07,87.76,63.07-45.25,63.07-88.67S1318.92,160.21,1283.08,160.21Z"/></g><g id="ef0e4ceb-e23d-4fc1-815e-5ef2b1d1dc26" data-name="Rectangle 1"><path class="a7a287c8-cf98-4a24-82f9-5c5128e75711" d="M1287.77,324.08a22.8,22.8,0,0,1-2-5.73,13.77,13.77,0,0,1-4.57.91,20.81,20.81,0,0,1-5.48-.91,13.45,13.45,0,0,1-1.64,4.37,58.14,58.14,0,0,1-4.76,6.6,56.63,56.63,0,0,1,9.83-.13,118.48,118.48,0,0,1,13,1.95A54.62,54.62,0,0,1,1287.77,324.08Z"/></g><g id="e953ea2a-1454-453d-9708-dc701469c96f" data-name="Rectangle 2 copie 2"><path class="a2c55820-069a-461a-a962-9a1db0cf55b8" d="M1373.57,519.67c0-16.42-7.59-32-9.14-44.1-1.65-12.94,2.74-21.94,2.74-21.94h-2.74s-3.65,8.75-3.65,21.94c0,12,8.55,27.74,9,43.88.35,12.43-5.89,25.11-6.26,36.56-.3,9.31.69,17.81.89,24.69.32,10.6,0,17.36,0,17.36h1.83a125.76,125.76,0,0,0,.91-16.23c0-7.26-1.29-15.55.23-25.69C1369.07,545,1373.57,531.75,1373.57,519.67Z"/></g><g id="a0835790-c0fb-45dd-beeb-007630d4fe1d" data-name="Rectangle 2 copie"><path class="e46112db-1c86-416d-88c6-bf020244b0d2" d="M1156.93,581.82c0-16.42-7.59-32-9.14-44.1-1.65-12.94,2.75-21.94,2.75-21.94h-2.75s-3.65,8.75-3.65,21.94c0,12,8.55,27.73,9,43.88.35,12.42-5.89,25.11-6.26,36.56-.3,9.31.69,17.81.9,24.69.31,10.6,0,17.36,0,17.36h1.83a124,124,0,0,0,.92-16.23c0-7.26-1.3-15.55.22-25.7C1152.43,607.12,1156.93,593.9,1156.93,581.82Z"/></g><g id="a95b4f37-a30f-42f6-82eb-bd6c40b6e064" data-name="Ellipse 1 copie"><path class="e6ae943a-a434-41c7-b7d1-3145d7310595" d="M1152.37,347.6c-35.84,0-63.07,28.8-63.07,72.21s27.23,87.75,63.07,87.75,63.08-45.25,63.08-88.66S1188.21,347.6,1152.37,347.6Z"/></g><g id="b51fbb66-055f-4f18-9a0d-8921f532d50d" data-name="Rectangle 1 copie"><path class="bec4c64c-b4a6-41c0-b05d-db178cd35902" d="M1156.75,510.82a17.35,17.35,0,0,1-1.64-5.11h-10.06a13.22,13.22,0,0,1-1.64,4.37,57.15,57.15,0,0,1-4.76,6.59,57.74,57.74,0,0,1,9.84-.12,116.25,116.25,0,0,1,13,2A65,65,0,0,1,1156.75,510.82Z"/></g></g></g></g></g></svg>