<svg xmlns="http://www.w3.org/2000/svg" viewBox="0 0 23.5 25.5"><defs><style>.ba9bad40-1298-41f6-a654-9bdc3db18372{fill:#231f20;}</style></defs><title>contact</title><g id="b4c80d94-f06a-4aa0-ae72-8a15c1daba1d" data-name="Layer 2"><g id="a98885b7-b9f9-451d-8b1d-53b5eb005730" data-name="set"><path class="ba9bad40-1298-41f6-a654-9bdc3db18372" d="M3.75,19.5C2.44,19.5,0,18.56,0,16.75v-6C0,8.94,2.44,8,3.75,8A2.75,2.75,0,0,1,6.5,10.75v6A2.75,2.75,0,0,1,3.75,19.5Zm-1.25-3A2.71,2.71,0,0,0,3.75,17,.25.25,0,0,0,4,16.75v-6a.25.25,0,0,0-.25-.25A2.71,2.71,0,0,0,2.5,11Z"/><path class="ba9bad40-1298-41f6-a654-9bdc3db18372" d="M19.75,19.5A2.75,2.75,0,0,1,17,16.75v-6A2.75,2.75,0,0,1,19.75,8c1.31,0,3.75.94,3.75,2.75v6C23.5,18.56,21.06,19.5,19.75,19.5Zm0-9a.25.25,0,0,0-.25.25v6a.25.25,0,0,0,.25.25A2.71,2.71,0,0,0,21,16.54V11A2.71,2.71,0,0,0,19.75,10.5Zm1.33.53h0Z"/><path class="ba9bad40-1298-41f6-a654-9bdc3db18372" d="M12.25,25.5h-3a2.25,2.25,0,0,1,0-4.5h3a2.25,2.25,0,0,1,0,4.5Zm0-2h0Z"/><path class="ba9bad40-1298-41f6-a654-9bdc3db18372" d="M13.25,24.5a1.25,1.25,0,0,1,0-2.5C18.46,22,19,20.86,19,18.25a1.25,1.25,0,0,1,2.5,0C21.5,23.45,18.34,24.5,13.25,24.5Z"/><path class="ba9bad40-1298-41f6-a654-9bdc3db18372" d="M19.25,10.5A1.25,1.25,0,0,1,18,9.25v-.5a6.25,6.25,0,0,0-12.5,0v.5a1.25,1.25,0,0,1-2.5,0v-.5a8.75,8.75,0,0,1,17.5,0v.5A1.25,1.25,0,0,1,19.25,10.5Z"/></g></g></svg>