<svg xmlns="http://www.w3.org/2000/svg" viewBox="0 0 60.94 65.6"><title>f2</title><g id="eee0d119-c674-4aab-9e22-e03dbdc937d9" data-name="Layer 2"><g id="ac4580cb-d825-47d7-9697-b708d36e1cf9" data-name="icons"><path d="M34.89,17.08a5.93,5.93,0,0,1-.63,0,1.24,1.24,0,0,1-1.18-1.21c0-.36-.15-8.74,4.32-12C40.61,1.53,48.61.08,49,0a1.26,1.26,0,0,1,1.12.36,1.24,1.24,0,0,1,.32,1.13c-.07.32-1.73,7.9-4.35,11.2h0C42.85,16.73,36.86,17.08,34.89,17.08ZM47.48,2.87c-2.74.61-6.83,1.72-8.61,3-2.38,1.73-3.12,6.11-3.26,8.68,2.07-.1,6.28-.64,8.47-3.4h0C45.62,9.22,46.85,5.23,47.48,2.87Z" style="fill:#475257"/><path d="M53.13,37.08a1.26,1.26,0,0,1-1.22-1c-.89-3.66-2.61-6-5.12-6.93a1.25,1.25,0,1,1,.87-2.35C51,28.09,53.25,31,54.34,35.53A1.25,1.25,0,0,1,53.42,37,1,1,0,0,1,53.13,37.08Z" style="fill:#475257"/><path d="M25,65.6a9.45,9.45,0,0,1-6.88-2.87,31.68,31.68,0,0,1-5-5.67l2.06-1.41a29.17,29.17,0,0,0,4.63,5.27l.11.11c.13.15,3.29,3.64,8.72,1.22A18.87,18.87,0,0,1,34.17,61a18.8,18.8,0,0,1,5.47,1.27c5.53,2.46,8.73-1.16,8.76-1.2l.12-.11c12.49-11.2,9.6-27.44,9.57-27.6-1.15-4.77-3.32-8.06-6.44-9.74-4.56-2.45-9.73-.63-9.78-.61l-.2.06a41.58,41.58,0,0,1-7.53.93A42,42,0,0,1,26.67,23l-.2-.06s-5.23-1.84-9.78.61c-3.12,1.68-5.29,5-6.46,9.8h0a28.7,28.7,0,0,0-.3,5.27l-2.5.06a29.62,29.62,0,0,1,.36-5.86c1.36-5.62,4-9.46,7.74-11.48,5.22-2.8,10.82-1.08,11.69-.78a42.49,42.49,0,0,0,6.93.87,41.92,41.92,0,0,0,7-.87c.86-.3,6.47-2,11.69.78,3.78,2,6.38,5.86,7.73,11.42.15.78,3.21,17.78-10.3,29.94-1.56,1.76-5.9,4.33-11.56,1.81a15.86,15.86,0,0,0-4.51-1.08,16,16,0,0,0-4.56,1.1A11.41,11.41,0,0,1,25,65.6Z" style="fill:#475257"/><path d="M34.33,17.07a1.24,1.24,0,0,1-1.15-.77c-2.63-6.32-6.51-8-6.55-8A1.25,1.25,0,0,1,27.57,6c.2.08,4.86,2,7.92,9.38A1.25,1.25,0,0,1,34.81,17,1.15,1.15,0,0,1,34.33,17.07Z" style="fill:#475257"/><path d="M33.6,52.72H5.73A5.57,5.57,0,0,1,0,47.35V34.57A5.57,5.57,0,0,1,5.73,29.2H9.58a1.25,1.25,0,1,1,0,2.5H5.73A3.07,3.07,0,0,0,2.5,34.57a3.06,3.06,0,0,0,3.23,2.86H33.6a1.25,1.25,0,0,1,1.25,1.25V51.47A1.25,1.25,0,0,1,33.6,52.72ZM2.5,39v8.35a3.07,3.07,0,0,0,3.23,2.87H32.35V39.93H5.73A6,6,0,0,1,2.5,39Z" style="fill:#475257"/><path d="M9.93,52.44a1.25,1.25,0,0,1-1.25-1.25V46.35a1.25,1.25,0,0,1,2.5,0v4.84A1.25,1.25,0,0,1,9.93,52.44Z" style="fill:#475257"/><path d="M18,52.44a1.25,1.25,0,0,1-1.25-1.25V46.35a1.25,1.25,0,0,1,2.5,0v4.84A1.25,1.25,0,0,1,18,52.44Z" style="fill:#475257"/><path d="M26.11,52.44a1.25,1.25,0,0,1-1.25-1.25V46.35a1.25,1.25,0,0,1,2.5,0v4.84A1.25,1.25,0,0,1,26.11,52.44Z" style="fill:#475257"/></g></g></svg>