<svg xmlns="http://www.w3.org/2000/svg" viewBox="0 0 53.55 65.4"><title>f3</title>
  <path
    d="M44.34,46.37h-1.8v-2.5h1.8a6.48,6.48,0,0,0,6.71-6.2,6.48,6.48,0,0,0-6.71-6.2h-1.8V29h1.8a9,9,0,0,1,9.21,8.7A9,9,0,0,1,44.34,46.37Z"
  />
  <rect y="62.9" width="45.87" height="2.5"/>
  <path
    d="M33.73,58.33H12.14a9.73,9.73,0,0,1-9.71-9.71V24.24A1.25,1.25,0,0,1,3.68,23H42.19a1.25,1.25,0,0,1,1.25,1.25V48.62A9.73,9.73,0,0,1,33.73,58.33ZM4.93,25.49V48.62a7.22,7.22,0,0,0,7.21,7.21H33.73a7.22,7.22,0,0,0,7.21-7.21h0V25.49Z"
  />
  <path
    d="M20,19.66a1.25,1.25,0,0,1-1.25-1.25v-.49a4.16,4.16,0,0,1,4.16-4.15h3.16a1.75,1.75,0,0,0,0-3.49H18.86A5.14,5.14,0,0,1,18.86,0H35a1.25,1.25,0,0,1,0,2.5H18.86a2.65,2.65,0,0,0,0,5.28h7.21a4.25,4.25,0,0,1,0,8.49H22.91a1.66,1.66,0,0,0-1.66,1.65v.49A1.25,1.25,0,0,1,20,19.66Z"
  />
  <path d="M10.15,41.78A1.25,1.25,0,0,1,8.9,40.53V30.69a1.25,1.25,0,0,1,2.5,0v9.84A1.25,1.25,0,0,1,10.15,41.78Z"
  />
</svg>
