<svg xmlns="http://www.w3.org/2000/svg" viewBox="0 0 62.63 70.26"><title>f4</title><g id="b6cc1053-9a66-4708-88f5-2e3497057d54" data-name="Layer 2"><g id="bf1f2366-c245-4097-9e96-538857799d3e" data-name="icons"><path d="M7.08,39.47H6.91c-4.57-.6-6.12-3-6.28-3.28-1.8-3.3.66-5.84,2.21-6.73L25.29,17.23a1.25,1.25,0,0,1,1.19,2.2L4.06,31.63c-.36.22-2.26,1.47-1.26,3.31,0,0,1.08,1.6,4.43,2a1.25,1.25,0,0,1-.15,2.49Z" style="fill:#475257"/><path d="M49.81,70.26H16.61a1.25,1.25,0,0,1,0-2.5h32V38.57a1.25,1.25,0,1,1,2.5,0V69A1.25,1.25,0,0,1,49.81,70.26Z" style="fill:#475257"/><path d="M53.91,39.56H44.85a1.25,1.25,0,1,1,0-2.5h9.06c4.86,0,5.85-2,5.86-2l0-.12c1-1.91-1-3.18-1.28-3.32L30.9,16.68a1.25,1.25,0,0,1-.65-1.1V11.9a1.24,1.24,0,0,1,1.25-1.25,4.08,4.08,0,1,0-4.08-4.07,1.25,1.25,0,0,1-2.5,0A6.58,6.58,0,1,1,32.75,13v1.8l27,14.61c1.57.9,4,3.42,2.29,6.65C61.75,36.74,60.13,39.56,53.91,39.56Z" style="fill:#475257"/><path d="M44,65H12.71a1.25,1.25,0,0,1-1.25-1.25V41.22c0-7.53,3.75-8.94,4.18-9.07a1.21,1.21,0,0,1,.38-.06H47.28a1.25,1.25,0,0,1,.47,2.4c-.08,0-2.53,1.25-2.53,6.73V63.76A1.25,1.25,0,0,1,44,65Zm-30-2.5H42.72V41.22a12.38,12.38,0,0,1,1.58-6.63h-28c-.48.28-2.33,1.69-2.33,6.63Z" style="fill:#475257"/><rect x="13.29" y="55.76" width="30.09" height="2.5" style="fill:#475257"/></g></g></svg>