<svg xmlns="http://www.w3.org/2000/svg" viewBox="0 0 64.03 63.36"><title>f5</title><g id="e7baa6c8-82fc-4009-81b0-66f528de7690" data-name="Layer 2"><g id="a28423b5-518c-4f9a-b9ae-b55c5f8abdf7" data-name="icons"><path d="M42.78,63.36H21.25A21.27,21.27,0,0,1,0,42.11V37.56a21.36,21.36,0,0,1,18.21-21L18.57,19A18.86,18.86,0,0,0,2.5,37.56v4.55A18.77,18.77,0,0,0,21.25,60.86H42.78A18.77,18.77,0,0,0,61.53,42.11V37.56A18.73,18.73,0,0,0,44.86,18.93l.28-2.49A21.23,21.23,0,0,1,64,37.56v4.55A21.27,21.27,0,0,1,42.78,63.36Z" style="fill:#475257"/><rect x="23.28" y="11.18" width="16.65" height="2.5" style="fill:#475257"/><rect x="23.28" y="20.64" width="16.7" height="2.5" style="fill:#475257"/><path d="M52.3,40.82a1.27,1.27,0,0,1-.92-.4l-3.61-3.88a.61.61,0,0,0-.45-.21h0a.61.61,0,0,0-.44.21l-2.22,2.38a3.07,3.07,0,0,1-2.28,1h0a3.08,3.08,0,0,1-2.28-1l-2.22-2.38a.59.59,0,0,0-.44-.21.61.61,0,0,0-.45.21l-2.34,2.51a3.16,3.16,0,0,1-4.55,0l-2.43-2.61a.58.58,0,0,0-.89,0l-2.19,2.35a3.08,3.08,0,0,1-2.28,1h0a3.12,3.12,0,0,1-2.28-1l-2.19-2.36a.59.59,0,0,0-.44-.21.61.61,0,0,0-.45.21l-3.64,3.91a1.25,1.25,0,1,1-1.83-1.7l3.64-3.91a3.14,3.14,0,0,1,4.55,0l2.19,2.35a.61.61,0,0,0,.45.21h0a.61.61,0,0,0,.45-.21L25,34.74a3.14,3.14,0,0,1,4.55,0l2.43,2.61a.6.6,0,0,0,.89,0l2.34-2.52a3.17,3.17,0,0,1,4.56,0l2.21,2.39a.59.59,0,0,0,.45.2h0a.59.59,0,0,0,.45-.2l2.22-2.39a3.1,3.1,0,0,1,2.27-1h0a3.1,3.1,0,0,1,2.27,1l3.61,3.89a1.25,1.25,0,0,1-.06,1.76A1.23,1.23,0,0,1,52.3,40.82Z" style="fill:#475257"/><path d="M52.3,50.81a1.24,1.24,0,0,1-.92-.4l-3.61-3.88a.61.61,0,0,0-.45-.21h0a.61.61,0,0,0-.44.21l-2.22,2.39a3.1,3.1,0,0,1-2.28,1h0a3.08,3.08,0,0,1-2.28-1l-2.22-2.38a.59.59,0,0,0-.44-.21.61.61,0,0,0-.45.21L34.65,49a3.14,3.14,0,0,1-4.55,0l-2.43-2.61a.6.6,0,0,0-.89,0l-2.19,2.36a3.17,3.17,0,0,1-4.56,0l-2.19-2.36a.58.58,0,0,0-.44-.2h0a.59.59,0,0,0-.45.2l-3.64,3.92a1.25,1.25,0,0,1-1.83-1.7l3.64-3.92a3.07,3.07,0,0,1,2.28-1h0a3.06,3.06,0,0,1,2.27,1l2.19,2.35a.59.59,0,0,0,.9,0L25,44.73a3.16,3.16,0,0,1,4.55,0l2.43,2.61a.58.58,0,0,0,.89,0l2.34-2.51a3.08,3.08,0,0,1,2.28-1h0a3.07,3.07,0,0,1,2.27,1l2.22,2.38a.61.61,0,0,0,.45.21h0a.61.61,0,0,0,.45-.21l2.22-2.38a3.07,3.07,0,0,1,2.27-1h0a3.07,3.07,0,0,1,2.27,1l3.61,3.88a1.24,1.24,0,0,1-.91,2.1Z" style="fill:#475257"/><rect x="21.92" y="10.97" width="2.5" height="17.73" style="fill:#475257"/><path d="M23.17,15a1.25,1.25,0,0,1-1.25-1.25V6.65c0-4.1,2-6.65,5.13-6.65a1.25,1.25,0,0,1,0,2.5c-2.29,0-2.63,2.6-2.63,4.15v7.13A1.25,1.25,0,0,1,23.17,15Z" style="fill:#475257"/><rect x="38.87" y="10.97" width="2.5" height="17.73" style="fill:#475257"/><path d="M40.12,15a1.25,1.25,0,0,1-1.25-1.25V6.65c0-4.1,2-6.65,5.13-6.65a1.25,1.25,0,0,1,0,2.5c-2.29,0-2.63,2.6-2.63,4.15v7.13A1.25,1.25,0,0,1,40.12,15Z" style="fill:#475257"/></g></g></svg>