<svg xmlns="http://www.w3.org/2000/svg" viewBox="0 0 50.95 58.32"><title>f7</title><g id="b1e2c4d7-130d-4d4c-8c5a-943f9f33ba5e" data-name="Layer 2"><g id="f86f1bbc-6422-4185-b827-c2f49ccdc5ab" data-name="icons"><path d="M43.21,27.07A1.25,1.25,0,0,1,42,25.82C42,18.74,33.81,13,23.79,13c-8,0-15.2,3.8-17.45,9.26a1.25,1.25,0,0,1-1.63.68A1.26,1.26,0,0,1,4,21.29c2.67-6.46,10.61-10.8,19.76-10.8,11.4,0,20.67,6.87,20.67,15.33A1.25,1.25,0,0,1,43.21,27.07Z" style="fill:#475257"/><path d="M23.81,12.79a1.25,1.25,0,0,1-1.25-1.25V6.82A6.83,6.83,0,0,1,29.38,0H49.7a1.25,1.25,0,0,1,0,2.5H29.38a4.32,4.32,0,0,0-4.32,4.32v4.72A1.25,1.25,0,0,1,23.81,12.79Z" style="fill:#475257"/><path d="M46.33,32.6H1.25A1.25,1.25,0,0,1,0,31.35v-3.2A3.26,3.26,0,0,1,3.25,24.9H7.88a1.25,1.25,0,1,1,0,2.5H3.25a.76.76,0,0,0-.75.75v2H45.08v-2a.76.76,0,0,0-.75-.75H15.75a1.25,1.25,0,0,1,0-2.5H44.33a3.25,3.25,0,0,1,3.25,3.25v3.2A1.25,1.25,0,0,1,46.33,32.6Z" style="fill:#475257"/><path d="M8.67,44.36a1.25,1.25,0,0,1-1.25-1.25V37a1.25,1.25,0,0,1,2.5,0v6.09A1.25,1.25,0,0,1,8.67,44.36Z" style="fill:#475257"/><path d="M8.67,50.11a1.25,1.25,0,0,1-1.25-1.25V47.63a1.25,1.25,0,0,1,2.5,0v1.23A1.25,1.25,0,0,1,8.67,50.11Z" style="fill:#475257"/><path d="M8.67,58.28A1.25,1.25,0,0,1,7.42,57V53.26a1.25,1.25,0,0,1,2.5,0V57A1.25,1.25,0,0,1,8.67,58.28Z" style="fill:#475257"/><path d="M23.12,43.42a1.25,1.25,0,0,1-1.25-1.25V37a1.25,1.25,0,0,1,2.5,0v5.15A1.25,1.25,0,0,1,23.12,43.42Z" style="fill:#475257"/><path d="M23.13,58.32a1.25,1.25,0,0,1-1.25-1.25v-2a1.25,1.25,0,1,1,2.5,0v2A1.25,1.25,0,0,1,23.13,58.32Z" style="fill:#475257"/><path d="M23.12,52.08a1.25,1.25,0,0,1-1.25-1.25V46.6a1.25,1.25,0,0,1,2.5,0v4.23A1.25,1.25,0,0,1,23.12,52.08Z" style="fill:#475257"/><path d="M15.9,47.58a1.25,1.25,0,0,1-1.25-1.25V37a1.25,1.25,0,1,1,2.5,0v9.31A1.25,1.25,0,0,1,15.9,47.58Z" style="fill:#475257"/><path d="M15.9,58.29A1.25,1.25,0,0,1,14.65,57V50.93a1.25,1.25,0,1,1,2.5,0V57A1.25,1.25,0,0,1,15.9,58.29Z" style="fill:#475257"/><path d="M30.36,58.32a1.25,1.25,0,0,1-1.25-1.25V51.41a1.25,1.25,0,0,1,2.5,0v5.66A1.25,1.25,0,0,1,30.36,58.32Z" style="fill:#475257"/><path d="M30.35,40.08a1.25,1.25,0,0,1-1.25-1.25V37a1.25,1.25,0,0,1,2.5,0v1.81A1.25,1.25,0,0,1,30.35,40.08Z" style="fill:#475257"/><path d="M30.35,48.23A1.25,1.25,0,0,1,29.1,47V43.33a1.25,1.25,0,0,1,2.5,0V47A1.25,1.25,0,0,1,30.35,48.23Z" style="fill:#475257"/><path d="M37.58,58.32a1.25,1.25,0,0,1-1.25-1.25V48a1.25,1.25,0,1,1,2.5,0v9.08A1.25,1.25,0,0,1,37.58,58.32Z" style="fill:#475257"/><path d="M37.58,44.69a1.25,1.25,0,0,1-1.25-1.25V37.05a1.25,1.25,0,0,1,2.5,0v6.39A1.25,1.25,0,0,1,37.58,44.69Z" style="fill:#475257"/></g></g></svg>