<svg xmlns="http://www.w3.org/2000/svg" viewBox="0 0 9.67 17.67"><defs><style>.cls-1{opacity:0.88;}.cls-2{fill:#4d4995;fill-rule:evenodd;}</style></defs><title>FACEBOOK</title><g id="Layer_2" data-name="Layer 2"><g id="Layer_1-2" data-name="Layer 1"><g id="Forma_1" data-name="Forma 1" class="cls-1"><path class="cls-2" d="M9.3,0H7A4,4,0,0,0,2.7,4.35v2H.37A.36.36,0,0,0,0,6.71V9.62A.36.36,0,0,0,.37,10H2.7v7.33a.36.36,0,0,0,.36.36h3a.37.37,0,0,0,.37-.36V10H9.19a.37.37,0,0,0,.37-.36V6.71a.36.36,0,0,0-.11-.25.36.36,0,0,0-.26-.11H6.47V4.65c0-.81.19-1.23,1.27-1.23H9.3a.37.37,0,0,0,.37-.36V.36A.37.37,0,0,0,9.3,0Z"/></g></g></g></svg>