<svg xmlns="http://www.w3.org/2000/svg" viewBox="0 0 49.11 52.6"><title>gallery</title>
  <path d="M31,13.29a3.84,3.84,0,1,0,3.66,4h0a.49.49,0,0,0,0-.17A3.76,3.76,0,0,0,31,13.29Zm0,0a3.84,3.84,0,1,0,3.66,4h0a.49.49,0,0,0,0-.17A3.76,3.76,0,0,0,31,13.29ZM45.85,3.61,13.52,0a3.66,3.66,0,0,0-4,3.23L9,8l-.37,3.32,2.79-.09,23.74-.8a2,2,0,0,1,2.06,1.93l.82,24,.08,2.33a2,2,0,0,1-1.93,2.07l-30.32,1H5.73a3.66,3.66,0,0,0,2.91,2.1L41,47.5a2.1,2.1,0,0,0,.5,0A3.64,3.64,0,0,0,45,44.27L49.08,7.65A3.65,3.65,0,0,0,45.85,3.61Zm.35,5.18L43.26,35a2,2,0,0,1-2.21,1.76L40,10.47A3.68,3.68,0,0,0,36.18,7l-24.43,1,.33-3A2,2,0,0,1,14.29,3.2L44.43,6.58A2,2,0,0,1,46.2,8.79ZM36.8,36.24l-.11-5s-4.13-5.89-5.46-5.86c-1.56,0-5.2,5.79-5.2,5.79s-7.79-12-10.62-12.08c-1.26,0-3.46,2.46-5.51,5.24C8.67,26,7.49,27.79,6.6,29.17L5.41,39.87a3.62,3.62,0,0,0,0,.46l31.48-1.09ZM31,13.29a3.84,3.84,0,1,0,3.66,4h0a.49.49,0,0,0,0-.17A3.76,3.76,0,0,0,31,13.29Zm0,0a3.84,3.84,0,1,0,3.66,4h0a.49.49,0,0,0,0-.17A3.76,3.76,0,0,0,31,13.29Zm0,0a3.84,3.84,0,1,0,3.66,4h0a.49.49,0,0,0,0-.17A3.76,3.76,0,0,0,31,13.29Z"/>
  <path d="M34.63,17.12a.49.49,0,0,1,0,.17h0a3.84,3.84,0,1,1-3.66-4A3.76,3.76,0,0,1,34.63,17.12Z"/>
  <path d="M36.8,36.24l-25.89-2.9a2,2,0,0,1-1.77-2.21l.76-6.8c2-2.78,4.25-5.28,5.51-5.24C18.24,19.17,26,31.17,26,31.17s3.64-5.79,5.2-5.79c1.33,0,5.46,5.86,5.46,5.86Z"/>
  <path d="M41.05,36.72,38,36.38l-.82-24a2,2,0,0,0-2.06-1.93l-23.74.8.38-3.34L36.18,7A3.68,3.68,0,0,1,40,10.47Z"/>
  <path d="M34.63,17.12a.49.49,0,0,1,0,.17h0a3.84,3.84,0,1,1-3.66-4A3.76,3.76,0,0,1,34.63,17.12Z"/>
  <path d="M36.8,36.24l-.11-5s-4.13-5.89-5.46-5.86c-1.56,0-5.2,5.79-5.2,5.79s-7.79-12-10.62-12.08c-1.26,0-3.46,2.46-5.51,5.24C8.67,26,7.49,27.79,6.6,29.17S5,31.68,5,31.68l.17,8.66h.18l31.48-1.09Zm0,0-.11-5s-4.13-5.89-5.46-5.86c-1.56,0-5.2,5.79-5.2,5.79s-7.79-12-10.62-12.08c-1.26,0-3.46,2.46-5.51,5.24C8.67,26,7.49,27.79,6.6,29.17S5,31.68,5,31.68l.17,8.66h.18l31.48-1.09Zm0,0-.11-5s-4.13-5.89-5.46-5.86c-1.56,0-5.2,5.79-5.2,5.79s-7.79-12-10.62-12.08c-1.26,0-3.46,2.46-5.51,5.24C8.67,26,7.49,27.79,6.6,29.17S5,31.68,5,31.68l.17,8.66h.18l31.48-1.09Zm0,0-.11-5s-4.13-5.89-5.46-5.86c-1.56,0-5.2,5.79-5.2,5.79s-7.79-12-10.62-12.08c-1.26,0-3.46,2.46-5.51,5.24C8.67,26,7.49,27.79,6.6,29.17S5,31.68,5,31.68l.17,8.66h.18l31.48-1.09Zm4.25.48L40,10.47A3.68,3.68,0,0,0,36.18,7l-24.43,1L9,8l-5.43.22A3.67,3.67,0,0,0,0,12.07l1.48,37A3.68,3.68,0,0,0,5.3,52.59L38,51.28a3.68,3.68,0,0,0,3.52-3.77v0ZM3.76,39.87l-.9-26.31A2,2,0,0,1,4.8,11.49l3.78-.13,2.79-.09,23.74-.8a2,2,0,0,1,2.06,1.93l.82,24,.08,2.33a2,2,0,0,1-1.93,2.07l-30.32,1H5.73A2,2,0,0,1,3.76,39.87Zm33-3.63-.11-5s-4.13-5.89-5.46-5.86c-1.56,0-5.2,5.79-5.2,5.79s-7.79-12-10.62-12.08c-1.26,0-3.46,2.46-5.51,5.24C8.67,26,7.49,27.79,6.6,29.17S5,31.68,5,31.68l.17,8.66h.18l31.48-1.09Zm0,0-.11-5s-4.13-5.89-5.46-5.86c-1.56,0-5.2,5.79-5.2,5.79s-7.79-12-10.62-12.08c-1.26,0-3.46,2.46-5.51,5.24C8.67,26,7.49,27.79,6.6,29.17S5,31.68,5,31.68l.17,8.66h.18l31.48-1.09Zm0,0-.11-5s-4.13-5.89-5.46-5.86c-1.56,0-5.2,5.79-5.2,5.79s-7.79-12-10.62-12.08c-1.26,0-3.46,2.46-5.51,5.24C8.67,26,7.49,27.79,6.6,29.17S5,31.68,5,31.68l.17,8.66h.18l31.48-1.09Zm0,0-.11-5s-4.13-5.89-5.46-5.86c-1.56,0-5.2,5.79-5.2,5.79s-7.79-12-10.62-12.08c-1.26,0-3.46,2.46-5.51,5.24C8.67,26,7.49,27.79,6.6,29.17S5,31.68,5,31.68l.17,8.66h.18l31.48-1.09Zm0,0-.11-5s-4.13-5.89-5.46-5.86c-1.56,0-5.2,5.79-5.2,5.79s-7.79-12-10.62-12.08c-1.26,0-3.46,2.46-5.51,5.24C8.67,26,7.49,27.79,6.6,29.17S5,31.68,5,31.68l.17,8.66h.18l31.48-1.09Z"/>
  <path d="M34.63,17.12a.49.49,0,0,1,0,.17h0a3.84,3.84,0,1,1-3.66-4A3.76,3.76,0,0,1,34.63,17.12Z"/>
  <path d="M36.87,39.24,5.39,40.33H5.21L5,31.68s.61-1,1.56-2.51S8.67,26,9.9,24.33c2-2.78,4.25-5.28,5.51-5.24C18.24,19.17,26,31.17,26,31.17s3.64-5.79,5.2-5.79c1.33,0,5.46,5.86,5.46,5.86l.11,5Z"/>
  <path d="M36.87,39.24,5.39,40.33H5.21L5,31.68s.61-1,1.56-2.51S8.67,26,9.9,24.33c2-2.78,4.25-5.28,5.51-5.24C18.24,19.17,26,31.17,26,31.17s3.64-5.79,5.2-5.79c1.33,0,5.46,5.86,5.46,5.86l.11,5Z"/>
  <path d="M34.63,17.12a.49.49,0,0,1,0,.17h0a3.84,3.84,0,1,1-3.66-4A3.76,3.76,0,0,1,34.63,17.12Z"/>
</svg>
