<svg xmlns="http://www.w3.org/2000/svg" viewBox="0 0 24 15"><defs><style>.cls-1{fill:#d6d5e2;}.cls-2{fill:none;stroke:#d6d5e2;stroke-linecap:round;stroke-linejoin:round;}</style></defs><title>gym</title><g id="Layer_2" data-name="Layer 2"><g id="Layer_1-2" data-name="Layer 1"><path class="cls-1" d="M18.83.5h1a1,1,0,0,1,1,1v12a1,1,0,0,1-1,1h-1a1,1,0,0,1-1-1V1.5a1,1,0,0,1,1-1"/><rect class="cls-2" x="17.5" y="0.5" width="3" height="14" rx="1"/><path class="cls-1" d="M21.48,3.5h1a1,1,0,0,1,1,1v6a1,1,0,0,1-1,1h-1a1,1,0,0,1-1-1v-6a1,1,0,0,1,1-1"/><rect class="cls-2" x="20.5" y="3.5" width="3" height="8" rx="0.98"/><path class="cls-1" d="M5.5,14.5h-1a1,1,0,0,1-1-1V1.5a1,1,0,0,1,1-1h1a1,1,0,0,1,1,1v12a1,1,0,0,1-1,1"/><rect class="cls-2" x="3.5" y="0.5" width="3" height="14" rx="1"/><path class="cls-1" d="M2.52,11.5h-1a1,1,0,0,1-1-1v-6a1,1,0,0,1,1-1h1a1,1,0,0,1,1,1v6a1,1,0,0,1-1,1"/><rect class="cls-2" x="0.5" y="3.5" width="3" height="8" rx="0.98"/><rect class="cls-1" x="6.5" y="5.5" width="11" height="3"/><rect class="cls-2" x="6.5" y="5.5" width="11" height="3"/></g></g></svg>