<svg xmlns="http://www.w3.org/2000/svg" viewBox="0 0 14.02 14.25"><title>heart</title><g id="Layer_2" data-name="Layer 2"><g id="set"><path d="M7,14.25a.82.82,0,0,1-.73-.46,12,12,0,0,0-2.74-3.17C1.81,9,0,7.35,0,4.69A4.47,4.47,0,0,1,3.27.12,3.86,3.86,0,0,1,7,1.16a3.88,3.88,0,0,1,3.75-1A4.47,4.47,0,0,1,14,4.69c0,2.66-1.81,4.32-3.54,5.93a11.81,11.81,0,0,0-2.73,3.17A.83.83,0,0,1,7,14.25ZM4.27,1.64a2.35,2.35,0,0,0-.6.08,2.83,2.83,0,0,0-2,3c0,2,1.41,3.25,3,4.74A18.31,18.31,0,0,1,7,11.88,19,19,0,0,1,9.36,9.41c1.61-1.49,3-2.78,3-4.74a2.82,2.82,0,0,0-2-2.95,2.24,2.24,0,0,0-2.61,1.2A.82.82,0,0,1,7,3.36a.84.84,0,0,1-.73-.44A2.22,2.22,0,0,0,4.27,1.64Z"/></g></g></svg>