<svg xmlns="http://www.w3.org/2000/svg" viewBox="0 0 25 26"><defs><style>.b2b8dd4e-b22a-44de-8291-62395fd92425{fill:#231f20;}</style></defs><title>home</title><g id="b91abd22-d563-4ca6-97dc-82b05e9002c8" data-name="Layer 2"><g id="ac280966-dca0-4ba2-953f-19320c31d605" data-name="set"><path class="b2b8dd4e-b22a-44de-8291-62395fd92425" d="M23.5,14a1.51,1.51,0,0,1-1.06-.44L12.5,3.62,2.56,13.56A1.5,1.5,0,0,1,.44,11.44l11-11a1.49,1.49,0,0,1,2.12,0l11,11a1.49,1.49,0,0,1,0,2.12A1.51,1.51,0,0,1,23.5,14Z"/><path class="b2b8dd4e-b22a-44de-8291-62395fd92425" d="M21.5,26h-6A1.5,1.5,0,0,1,14,24.5V17H9.5a1.5,1.5,0,0,1,0-3h6A1.5,1.5,0,0,1,17,15.5V23h3V10.5a1.5,1.5,0,0,1,3,0v14A1.5,1.5,0,0,1,21.5,26Z"/><path class="b2b8dd4e-b22a-44de-8291-62395fd92425" d="M9.5,26A1.5,1.5,0,0,1,8,24.5v-9a1.5,1.5,0,0,1,3,0v9A1.5,1.5,0,0,1,9.5,26Z"/><path class="b2b8dd4e-b22a-44de-8291-62395fd92425" d="M3.5,26A1.5,1.5,0,0,1,2,24.5v-14a1.5,1.5,0,0,1,3,0v14A1.5,1.5,0,0,1,3.5,26Z"/></g></g></svg>