<svg xmlns="http://www.w3.org/2000/svg" viewBox="0 0 270.33 171.33"><defs><style>.e0081254-94d0-4b40-ba40-75ff3fe6ba46{fill:#fff;fill-rule:evenodd;}</style></defs><title>id(back)</title><g id="f3056564-2adf-4e64-9573-49c11f4d60b8" data-name="Layer 2"><g id="b49ecdf1-fd3f-4a17-98e9-205366c4d29f" data-name="Layer 1"><g id="bb5e38fd-2579-4983-b399-8bcf19fbadad" data-name="Layer 2"><g id="b8a69a12-58f8-4939-bc32-c37ee449670e" data-name="Rounded Rectangle 16"><g id="fc9f51d1-bd39-4f17-8adc-fe1d54c22d68" data-name="Rounded Rectangle 16-2"><path d="M234.33,18.33a9,9,0,0,1,9,9V144a9,9,0,0,1-9,9h-198a9,9,0,0,1-9-9V27.33a9,9,0,0,1,9-9h198m0-2h-198a11,11,0,0,0-11,11V144a11,11,0,0,0,11,11h198a11,11,0,0,0,11-11V27.33A11,11,0,0,0,234.33,16.33Z"/></g></g><g id="b0a67f1e-6314-40f5-b6cb-f2caac9657ef" data-name="Rounded Rectangle 16 copie"><path d="M270.33,46.67h-2V14.43A12.43,12.43,0,0,0,255.91,2H224V0h31.91a14.44,14.44,0,0,1,14.42,14.42Z"/><g id="fd37ee31-fb50-4501-b8c5-645a9be10e5a" data-name="Rounded Rectangle 17"><rect x="43.33" y="34.67" width="170.67" height="8.33" rx="1.33"/></g><g id="e4ff42df-5fcd-4b79-b49e-79847998f166" data-name="Rounded Rectangle 17 copie"><rect x="43.33" y="55.67" width="185.33" height="12" rx="1.33"/></g><g id="bdf33001-5c60-455f-a58d-feeda667245e" data-name="Rounded Rectangle 17 copie 2"><rect x="45.33" y="76" width="183.67" height="12" rx="1.33"/></g><g id="b606c113-b63c-4eed-a8fd-797f7fe049d6" data-name="Rounded Rectangle 19"><rect x="26.5" y="102.5" width="217.67" height="37" rx="1.33"/></g><g id="aa28e9e3-e608-4fbd-8e9e-d9b1f9663127" data-name="Rectangle 14 copie 8"><path class="e0081254-94d0-4b40-ba40-75ff3fe6ba46" d="M46.33,135H48V107H46.33Zm3.34,0h1.66V107H49.67Zm3.66,0H55V107H53.33Zm3.34,0h1.66V107H56.67ZM60,135h1.67V107H60Zm3.33,0H65V107H63.33ZM67,135h1.67V107H67Zm3.33,0H72V107H70.33ZM74,135h1.67V107H74Zm3.33,0H79V107H77.33Zm3.34,0h1.66V107H80.67ZM84,135h1.67V107H84Zm3.67,0h1.66V107H87.67ZM91,135h1.67V107H91Zm3.67,0h1.66V107H94.67ZM98,135h1.67V107H98Zm3.33,0H103V107h-1.67Zm3.34,0h1.66V107h-1.66Zm3.66,0H110V107h-1.67Zm3.34,0h1.66V107h-1.66Zm3.66,0H117V107h-1.67Zm3.34,0h1.66V107h-1.66Zm3.33,0h1.67V107H122Zm3.33,0H127V107h-1.67Zm3.67,0h1.67V107H129Zm3.33,0H134V107h-1.67Zm3.67,0h1.67V107H136Zm3.33,0H141V107h-1.67Zm3.34,0h1.66V107h-1.66Zm3.33,0h1.67V107H146Zm3.67,0h1.66V107h-1.66Zm3.33,0h1.67V107H153Zm3.67,0h1.66V107h-1.66Zm3.33,0h1.67V107H160Zm3.33,0H165V107h-1.67Zm3.34,0h1.66V107h-1.66Zm3.66,0H172V107h-1.67Zm3.34,0h1.66V107h-1.66Zm3.66,0H179V107h-1.67Zm3.34,0h1.66V107h-1.66Zm3.33,0h1.67V107H184Zm3.33,0H189V107h-1.67Zm3.67,0h1.67V107H191Zm3.33,0H196V107h-1.67Zm3.67,0h1.67V107H198Zm3.33,0H203V107h-1.67Zm3.34,0h1.66V107h-1.66Zm3.33,0h1.67V107H208Zm3.67,0h1.66V107h-1.66Zm3.33,0h1.67V107H215Zm3.67,0h1.66V107h-1.66Zm3.33,0h1.67V107H222Zm3.33,0H227V107h-1.67Zm3.33-28v28h1.67V107Z"/></g></g><g id="ec12e70b-0975-490b-8cc1-fa7c4670699b" data-name="Rounded Rectangle 16 copie 3"><path d="M40,171.33H14.42A14.44,14.44,0,0,1,0,156.91V131.33H2V156.9a12.43,12.43,0,0,0,12.42,12.43H40Z"/></g><g id="e93ae88e-b3b6-4719-991e-37169be67765" data-name="Rounded Rectangle 16 copie 4"><path d="M2,46.33H0V14.43A14.44,14.44,0,0,1,14.41,0H40.33V2H14.42A12.44,12.44,0,0,0,2,14.43Z"/></g><g id="ed2e8b34-6745-40e6-b514-4c05c0eb69a1" data-name="Rounded Rectangle 16 copie 5"><path d="M255.92,171.33H224.33v-2h31.58a12.41,12.41,0,0,0,12.42-12.43V131.67h2V156.9a14.43,14.43,0,0,1-14.41,14.43Z"/></g></g></g></g></svg>