<svg xmlns="http://www.w3.org/2000/svg" viewBox="0 0 270.33 171.33"><title>id(front)</title><g id="a37c36f5-c9a3-43c2-906b-7e76fc71f59d" data-name="Layer 2"><g id="be2b1b21-471e-4f48-afd8-f0fc159592c1" data-name="Layer 1"><g id="bf0a38ea-6927-4fa4-9fab-8abb549670e6" data-name="Layer 2"><g id="ba23fd16-9dc5-4550-ab41-2c882c79fbbb" data-name="Rounded Rectangle 16"><g id="eeaaff8a-5fcc-44d1-9274-0d50774ae39b" data-name="Rounded Rectangle 16-2"><path d="M234.33,18.33a9,9,0,0,1,9,9V144a9,9,0,0,1-9,9h-198a9,9,0,0,1-9-9V27.33a9,9,0,0,1,9-9h198m0-2h-198a11,11,0,0,0-11,11V144a11,11,0,0,0,11,11h198a11,11,0,0,0,11-11V27.33A11,11,0,0,0,234.33,16.33Z"/></g></g><g id="e920f506-fa85-47a9-84d7-724cb6369202" data-name="Rounded Rectangle 16 copie"><path d="M270.33,46.67h-2V14.43A12.43,12.43,0,0,0,255.91,2H224V0h31.91a14.44,14.44,0,0,1,14.42,14.42Z"/></g><g id="e251cd17-276b-4edd-a728-655624b0d5a4" data-name="Rounded Rectangle 16 copie 3"><path d="M40,171.33H14.42A14.44,14.44,0,0,1,0,156.91V131.33H2V156.9a12.43,12.43,0,0,0,12.42,12.43H40Z"/></g><g id="e844fc74-62cf-433f-ab81-b51e64cc7cab" data-name="Rounded Rectangle 16 copie 4"><path d="M2,46.33H0V14.43A14.43,14.43,0,0,1,14.41,0H40.33V2H14.42A12.41,12.41,0,0,0,2,14.43Z"/><path d="M105.94,80a8.54,8.54,0,0,1,5.18,7.59v11a2.69,2.69,0,0,0,5.37.33,1.82,1.82,0,0,0,0-.33v-11a13.87,13.87,0,0,0-8.25-12.45,63.45,63.45,0,0,0-8.74-3.29c-1.29-.38-2.59-.74-3.87-1a8.44,8.44,0,0,1-6.3-6.07v-.07A21.81,21.81,0,0,0,95.6,53.39a2.68,2.68,0,1,0-5.24-1.16C88.82,59.14,83.74,64,78,64c-7.08,0-12.83-7.17-12.83-16,0-8.2,5-13.5,12.83-13.5a12.48,12.48,0,0,1,9.78,4.2,2.69,2.69,0,0,0,4.1-3.47A17.8,17.8,0,0,0,78,29.1c-10.73,0-18.22,7.76-18.22,18.9a22.81,22.81,0,0,0,6.86,16.67V65a8.08,8.08,0,0,1-6.23,5.85c-1.33.32-2.61.68-3.91,1.06a60.4,60.4,0,0,0-8.73,3.29A13.82,13.82,0,0,0,39.49,87.6v11a2.69,2.69,0,0,0,5.37.33,1.82,1.82,0,0,0,0-.33v-11A8.54,8.54,0,0,1,50,80a57,57,0,0,1,8-3c1.19-.36,2.38-.69,3.62-1a13.78,13.78,0,0,0,9.72-8.21,15.42,15.42,0,0,0,13.36,0A13.26,13.26,0,0,0,89.9,74c-1.08,3.17-5.67,6.22-11.91,6.22A17.08,17.08,0,0,1,71.67,79a2.69,2.69,0,0,0-2,5A22.63,22.63,0,0,0,78,85.63c8,0,14.71-4,16.79-9.48,1.07.27,2.14.55,3.19.86A56.5,56.5,0,0,1,105.94,80Z"/><path d="M42.18,102H42a3.19,3.19,0,0,1-3-3.38v-11a14.37,14.37,0,0,1,8.58-12.87,61.52,61.52,0,0,1,8.79-3.31c1.14-.33,2.51-.72,3.93-1.07a7.61,7.61,0,0,0,5.85-5.43v0A23.43,23.43,0,0,1,59.28,48C59.28,36.58,67,28.6,78,28.6a18.24,18.24,0,0,1,14.26,6.3A3.19,3.19,0,0,1,87.42,39,12.07,12.07,0,0,0,78,35c-7.51,0-12.35,5.1-12.35,13,0,8.55,5.53,15.5,12.33,15.5,5.5,0,10.38-4.68,11.87-11.38a3.19,3.19,0,0,1,6.22,1.38,22.26,22.26,0,0,1-6.21,11.38,7.89,7.89,0,0,0,5.86,5.48c1.35.28,2.73.67,3.9,1a62.73,62.73,0,0,1,8.81,3.32A14.39,14.39,0,0,1,117,87.58v11a2.16,2.16,0,0,1,0,.36,3.2,3.2,0,0,1-3.38,3,3.2,3.2,0,0,1-3-3.38v-11a8.06,8.06,0,0,0-4.88-7.13h0a56.73,56.73,0,0,0-7.89-3c-.91-.27-1.83-.51-2.75-.75-2.37,5.55-9.31,9.39-17.09,9.39a23,23,0,0,1-8.51-1.63,3.18,3.18,0,0,1-1.78-4.15,3.12,3.12,0,0,1,1.7-1.74,3.16,3.16,0,0,1,2.45,0A15.85,15.85,0,0,0,78,79.72c5.87,0,10.1-2.78,11.3-5.52a13.79,13.79,0,0,1-4.85-5.74,15.78,15.78,0,0,1-12.84,0,14.33,14.33,0,0,1-9.87,8c-1.2.3-2.37.62-3.59,1a57.28,57.28,0,0,0-7.93,3,8.1,8.1,0,0,0-4.85,7.16v11a2.16,2.16,0,0,1,0,.36A3.19,3.19,0,0,1,42.18,102ZM78.45,29.59H78c-10.44,0-17.73,7.57-17.73,18.4A22.43,22.43,0,0,0,67,64.31l.15.15,0,.66a8.62,8.62,0,0,1-6.61,6.21c-1.39.33-2.74.72-3.87,1A60.6,60.6,0,0,0,48,75.64a13.38,13.38,0,0,0-8,12v11a2.19,2.19,0,1,0,4.37.3,1.22,1.22,0,0,0,0-.27v-11a9.08,9.08,0,0,1,5.44-8.06,57.42,57.42,0,0,1,8.06-3c1.22-.37,2.41-.7,3.64-1a13.35,13.35,0,0,0,9.38-7.92l.2-.49.48.23a14.79,14.79,0,0,0,12.92,0l.48-.23.2.49a12.68,12.68,0,0,0,5,6l.33.21-.13.37c-1.11,3.28-5.73,6.61-12.5,6.56a17.42,17.42,0,0,1-6.38-1.21,2.17,2.17,0,0,0-1.68,0,2.2,2.2,0,0,0,0,4.06A22,22,0,0,0,78,85.13c7.56,0,14.28-3.77,16.32-9.16l.16-.41.43.11c1.08.27,2.16.55,3.21.86a56.87,56.87,0,0,1,8,3,9.08,9.08,0,0,1,5.48,8v11a2.19,2.19,0,1,0,4.37.3,1.22,1.22,0,0,0,0-.27v-11a13.4,13.4,0,0,0-7.95-12,63.08,63.08,0,0,0-8.68-3.27c-1.15-.34-2.5-.72-3.83-1a8.9,8.9,0,0,1-6.68-6.43l0-.12.05-.33.11-.11a21.23,21.23,0,0,0,6.13-11.06,2.18,2.18,0,1,0-4.26-.95C89.25,59.5,84,64.5,78,64.5c-7.35,0-13.33-7.4-13.33-16.5,0-8.5,5.23-14,13.33-14a13,13,0,0,1,10.15,4.37,2.19,2.19,0,0,0,3.33-2.84A17.22,17.22,0,0,0,78.45,29.59Z"/></g><g id="eac26fcc-7232-4109-b71c-98689e79d156" data-name="Rounded Rectangle 16 copie 5"><path d="M255.92,171.33H224.33v-2h31.58a12.41,12.41,0,0,0,12.42-12.43V131.67h2V156.9a14.43,14.43,0,0,1-14.41,14.43Z"/></g><g id="a738aef2-2d5f-4eb9-93dd-d59f21a2c217" data-name="Rectangle 12"><path d="M214.16,130.13a100.75,100.75,0,0,1-20.7-2.15,53,53,0,0,1-10.27-3.75c-4.29-1.9-8.74-3.86-12.95-4.23-3.07-.27-5.44,1.3-8,3a18.55,18.55,0,0,1-6.07,3c-4.84,1-10.43-.91-14.92-2.48-.93-.32-1.8-.63-2.59-.88-4.55-1.44-8.07,6.69-8.11,6.77l-1.84-.78c.17-.4,4.28-9.87,10.55-7.89.81.25,1.7.56,2.65.89,4.25,1.49,9.55,3.35,13.84,2.41a16.61,16.61,0,0,0,5.39-2.72c2.69-1.78,5.49-3.63,9.24-3.3,4.54.4,9.13,2.43,13.58,4.4a52,52,0,0,0,9.87,3.62,98.14,98.14,0,0,0,25.41,2l.1,2C217.64,130.09,215.9,130.13,214.16,130.13Z"/></g><g id="a4b59dee-c591-4e80-9041-69705fca4c6d" data-name="Rounded Rectangle 17"><g id="bd264559-690f-4b3e-a863-81e76ba1af73" data-name="Rounded Rectangle 17-2"><rect x="126" y="34.67" width="110.67" height="8.33" rx="1.33"/></g></g><g id="bea08390-8fcb-4e93-9595-af4bbc5ca4f1" data-name="Rounded Rectangle 17 copie"><g id="b622a74f-fa57-4f27-beb4-48c17cc9ca19" data-name="Rounded Rectangle 17 copie-2"><rect x="126" y="55.67" width="110.67" height="12" rx="1.33"/></g></g><g id="b4fe039b-536a-4e90-b66d-45d26b816eba" data-name="Rounded Rectangle 17 copie 2"><g id="b745df86-dcb3-43d5-a25e-2346641246be" data-name="Rounded Rectangle 17 copie 2-2"><rect x="126" y="74" width="110.67" height="12" rx="1.33"/></g></g><g id="ee3f01f9-b9a1-4c00-80f1-14304d3e5448" data-name="Rounded Rectangle 18"><g id="a9e0210b-1e2b-4897-835e-3418ff3d26f6" data-name="Rounded Rectangle 18-2"><rect x="126" y="96.33" width="33.33" height="5.67" rx="1.33"/></g></g><g id="a1f1d6a2-10b7-4b54-a0c1-7ec802e902a8" data-name="Rounded Rectangle 19"><g id="a175c070-55bb-43a8-bb77-d0337d2551be" data-name="Rounded Rectangle 19-2"><rect x="37" y="134" width="62.33" height="5.33" rx="1.33"/></g></g><g id="f3b2d35b-2657-4978-a1be-d2335d5ab5fc" data-name="Rounded Rectangle 19 copie"><g id="af057c47-fa0d-4852-94d9-d0a92e9b2882" data-name="Rounded Rectangle 19 copie-2"><rect x="36.33" y="118.67" width="75.67" height="5.33" rx="1.33"/></g></g></g></g></g></svg>