<svg xmlns="http://www.w3.org/2000/svg" viewBox="0 0 33.82 23"><title>idb</title><g id="bdafaad4-d854-4e0a-bb15-dd605e0d8fe5" data-name="Layer 2"><g id="fa44e288-f355-40c5-a587-d7edf04b7091" data-name="Layer 2"><path d="M3.68,0H3.12A3.12,3.12,0,0,0,0,3.12H0V19.87A3.15,3.15,0,0,0,3.12,23h14.7a.62.62,0,0,0,.55-.7.64.64,0,0,0-.55-.55H3.12a1.9,1.9,0,0,1-1.87-1.88V3.12A1.88,1.88,0,0,1,3.12,1.3H30.7a1.87,1.87,0,0,1,1.87,1.87v16.7a1.89,1.89,0,0,1-1.87,1.88H22a.63.63,0,0,0-.54.7A.65.65,0,0,0,22,23H30.7a3.14,3.14,0,0,0,3.12-3.13V3.12A3.12,3.12,0,0,0,30.7,0H5"/><path d="M3.12,4.84a.63.63,0,0,0,.63.63H7.61a.63.63,0,0,0,.16-1.25H3.7A.65.65,0,0,0,3.12,4.84Z"/><path d="M10.79,4.22a.63.63,0,0,0-.2,1.24H24.12a.62.62,0,0,0,.55-.7.64.64,0,0,0-.55-.55Z"/><path d="M4,7.65A.63.63,0,1,0,4,8.91H27.65a.63.63,0,0,0,0-1.26Z"/><path d="M3.4,13.43v5.19a.63.63,0,0,0,1.25,0V13.43A.62.62,0,0,0,4,12.88H4A.66.66,0,0,0,3.4,13.43Z"/><path d="M6,13.43v5.19a.65.65,0,0,0,.63.62.64.64,0,0,0,.63-.62V13.43a.62.62,0,0,0-.68-.55h0a.66.66,0,0,0-.55.55Z"/><path d="M8.56,13.43v5.19a.63.63,0,0,0,1.25,0V13.43a.62.62,0,0,0-.68-.55h0A.66.66,0,0,0,8.56,13.43Z"/><path d="M11.12,13.43v5.19a.63.63,0,0,0,1.25,0V13.43a.63.63,0,0,0-1.25,0Z"/><path d="M13.71,13.43v5.19a.63.63,0,0,0,1.25,0V13.43a.62.62,0,0,0-.68-.55h0A.66.66,0,0,0,13.71,13.43Z"/><path d="M16.29,13.43v5.19a.63.63,0,0,0,1.25,0V13.43a.62.62,0,0,0-.68-.55h0A.66.66,0,0,0,16.29,13.43Z"/><path d="M18.87,13.43v5.19a.63.63,0,0,0,1.25,0V13.43a.62.62,0,0,0-.68-.55h0A.66.66,0,0,0,18.87,13.43Z"/><path d="M21.45,13.43v5.19a.63.63,0,0,0,1.25,0V13.43a.62.62,0,0,0-.68-.55h0A.66.66,0,0,0,21.45,13.43Z"/><path d="M24,13.43v5.19a.63.63,0,0,0,1.25,0V13.43a.62.62,0,0,0-.62-.62h0A.65.65,0,0,0,24,13.43Z"/><path d="M26.6,13.43v5.19a.63.63,0,0,0,1.25,0V13.43a.62.62,0,0,0-.68-.55h0A.66.66,0,0,0,26.6,13.43Z"/><path d="M29.18,13.43v5.19a.63.63,0,0,0,1.25,0V13.43a.62.62,0,0,0-.68-.55h0A.66.66,0,0,0,29.18,13.43Z"/></g></g></svg>