<svg xmlns="http://www.w3.org/2000/svg" viewBox="0 0 270.33 171.33"><defs><style>.cls-1{isolation:isolate;}.cls-2,.cls-4{fill:#f1f3f6;}.cls-3{fill:none;stroke-width:2px;fill-rule:evenodd;}.cls-3,.cls-4{stroke:#f1f3f6;stroke-miterlimit:10;}</style></defs><title>card</title><g id="Layer_2" data-name="Layer 2"><g id="Rounded_Rectangle_16" data-name="Rounded Rectangle 16" class="cls-1"><g id="Rounded_Rectangle_16-2" data-name="Rounded Rectangle 16"><path class="cls-2" d="M234.33,18.33a9,9,0,0,1,9,9V144a9,9,0,0,1-9,9h-198a9,9,0,0,1-9-9V27.33a9,9,0,0,1,9-9h198m0-2h-198a11,11,0,0,0-11,11V144a11,11,0,0,0,11,11h198a11,11,0,0,0,11-11V27.33a11,11,0,0,0-11-11Z"/></g></g><g id="Rounded_Rectangle_16_copie" data-name="Rounded Rectangle 16 copie" class="cls-1"><path class="cls-3" d="M224,1h31.91a13.42,13.42,0,0,1,13.42,13.43V46.67"/></g><g id="Rounded_Rectangle_16_copie_3" data-name="Rounded Rectangle 16 copie 3" class="cls-1"><path class="cls-3" d="M40,170.33H14.42A13.42,13.42,0,0,1,1,156.9V131.33"/></g><g id="Rounded_Rectangle_16_copie_4" data-name="Rounded Rectangle 16 copie 4" class="cls-1"><path class="cls-3" d="M1,46.33V14.43A13.42,13.42,0,0,1,14.42,1H40.33"/><path class="cls-4" d="M105.94,80a8.54,8.54,0,0,1,5.18,7.59v11a2.69,2.69,0,1,0,5.37,0v-11a13.86,13.86,0,0,0-8.25-12.45,63.3,63.3,0,0,0-8.74-3.29c-1.29-.38-2.59-.74-3.87-1a8.44,8.44,0,0,1-6.3-6.07.17.17,0,0,1,0-.07A21.83,21.83,0,0,0,95.6,53.39a2.68,2.68,0,1,0-5.24-1.16C88.82,59.14,83.74,64,78,64c-7.08,0-12.83-7.17-12.83-16,0-8.2,5-13.5,12.83-13.5a12.51,12.51,0,0,1,9.78,4.2,2.69,2.69,0,0,0,4.1-3.47A17.79,17.79,0,0,0,78,29.1C67.27,29.1,59.78,36.86,59.78,48a22.84,22.84,0,0,0,6.86,16.67c0,.12,0,.24,0,.32a8.07,8.07,0,0,1-6.23,5.85c-1.33.32-2.61.68-3.91,1.06a61.43,61.43,0,0,0-8.73,3.29A13.83,13.83,0,0,0,39.49,87.6v11a2.69,2.69,0,1,0,5.37,0v-11A8.54,8.54,0,0,1,50,80a56.07,56.07,0,0,1,8-3c1.19-.36,2.38-.69,3.62-1a13.78,13.78,0,0,0,9.72-8.21,15.39,15.39,0,0,0,13.36,0A13.27,13.27,0,0,0,89.9,74c-1.08,3.17-5.67,6.22-11.91,6.22a16.91,16.91,0,0,1-6.32-1.18,2.69,2.69,0,0,0-2,5A22.62,22.62,0,0,0,78,85.63c8,0,14.71-4,16.79-9.48,1.07.27,2.14.55,3.19.86A56.52,56.52,0,0,1,105.94,80Z"/></g><g id="Rounded_Rectangle_16_copie_5" data-name="Rounded Rectangle 16 copie 5" class="cls-1"><path class="cls-3" d="M269.33,131.67V156.9a13.42,13.42,0,0,1-13.42,13.43H224.33"/></g><g id="Rectangle_12" data-name="Rectangle 12" class="cls-1"><path class="cls-3" d="M129.67,129s3.85-9.06,9.33-7.33c4.41,1.39,11.43,4.54,17,3.33,5-1.09,8.49-6.51,14.33-6,7.83.69,16.06,6.51,23.34,8a99.34,99.34,0,0,0,25.66,2"/></g><g id="Rounded_Rectangle_17" data-name="Rounded Rectangle 17" class="cls-1"><g id="Rounded_Rectangle_17-2" data-name="Rounded Rectangle 17"><rect class="cls-2" x="126" y="34.67" width="110.67" height="8.33" rx="1.33"/></g></g><g id="Rounded_Rectangle_17_copie" data-name="Rounded Rectangle 17 copie" class="cls-1"><g id="Rounded_Rectangle_17_copie-2" data-name="Rounded Rectangle 17 copie"><rect class="cls-2" x="126" y="55.67" width="110.67" height="12" rx="1.33"/></g></g><g id="Rounded_Rectangle_17_copie_2" data-name="Rounded Rectangle 17 copie 2" class="cls-1"><g id="Rounded_Rectangle_17_copie_2-2" data-name="Rounded Rectangle 17 copie 2"><rect class="cls-2" x="126" y="74" width="110.67" height="12" rx="1.33"/></g></g><g id="Rounded_Rectangle_18" data-name="Rounded Rectangle 18" class="cls-1"><g id="Rounded_Rectangle_18-2" data-name="Rounded Rectangle 18"><rect class="cls-2" x="126" y="96.33" width="33.33" height="5.67" rx="1.33"/></g></g><g id="Rounded_Rectangle_19" data-name="Rounded Rectangle 19" class="cls-1"><g id="Rounded_Rectangle_19-2" data-name="Rounded Rectangle 19"><rect class="cls-2" x="37" y="134" width="62.33" height="5.33" rx="1.33"/></g></g><g id="Rounded_Rectangle_19_copie" data-name="Rounded Rectangle 19 copie" class="cls-1"><g id="Rounded_Rectangle_19_copie-2" data-name="Rounded Rectangle 19 copie"><rect class="cls-2" x="36.33" y="118.67" width="75.67" height="5.33" rx="1.33"/></g></g></g></svg>