<svg xmlns="http://www.w3.org/2000/svg" viewBox="0 0 33.82 23"><title>idf</title><g id="a2d69e7f-963b-4c17-89d6-2f81c7057b0a" data-name="Layer 2"><g id="b1b6f7b9-40b6-425f-b34f-35fcca3168ae" data-name="Layer 2"><path d="M3.68,0H3.12A3.12,3.12,0,0,0,0,3.12H0V19.87A3.15,3.15,0,0,0,3.12,23h14.7a.62.62,0,0,0,.55-.7.64.64,0,0,0-.55-.55H3.12a1.9,1.9,0,0,1-1.87-1.88V3.12A1.88,1.88,0,0,1,3.12,1.3H30.7a1.87,1.87,0,0,1,1.87,1.87v16.7a1.89,1.89,0,0,1-1.87,1.88H22a.63.63,0,0,0-.54.7A.65.65,0,0,0,22,23H30.7a3.14,3.14,0,0,0,3.12-3.13V3.12A3.12,3.12,0,0,0,30.7,0H5"/><path d="M18.93,7.92h11.6a.63.63,0,0,0,.16-1.25H18.93a.63.63,0,0,0-.15,1.25Z"/><path d="M18.47,11.36a.63.63,0,0,0,.62.64H23a.62.62,0,0,0,.55-.7.64.64,0,0,0-.55-.55H19.12a.63.63,0,0,0-.64.61Z"/><path d="M26.19,10.74a.63.63,0,0,0-.54.7.65.65,0,0,0,.54.55h3.87a.62.62,0,0,0,.55-.7.64.64,0,0,0-.55-.55Z"/><path d="M4.27,18.59h6.9a.65.65,0,1,0,.16-1.29H4.27a.63.63,0,0,0-.15,1.25Z"/><path d="M15.12,18.59H30.58a.65.65,0,1,0,.16-1.29H15.12a.65.65,0,0,0-.19,1.29h.19Z"/><path d="M14.47,12.76a1.51,1.51,0,0,1,.93,1.36v.39a.47.47,0,0,0,.48.48.5.5,0,0,0,.48-.48v-.39a2.45,2.45,0,0,0-1.43-2.23,10.35,10.35,0,0,0-1.61-.59c-.23-.07-.46-.14-.69-.19A1.55,1.55,0,0,1,11.51,10h0a3.9,3.9,0,0,0,1.13-2,.47.47,0,0,0-.35-.57h0a.46.46,0,0,0-.56.34h0a2.44,2.44,0,0,1-2.21,2.1A2.63,2.63,0,0,1,7.21,7a2.22,2.22,0,0,1,2-2.4H9.5a2.23,2.23,0,0,1,1.73.72A.48.48,0,0,0,12,4.73h0A3.29,3.29,0,0,0,6.23,7a4.11,4.11,0,0,0,1.23,3v.05a1.45,1.45,0,0,1-1.12,1l-.69.19a9.21,9.21,0,0,0-1.53.61,2.48,2.48,0,0,0-1.47,2.22v.39a.49.49,0,0,0,.47.49h0a.5.5,0,0,0,.48-.48v-.39a1.55,1.55,0,0,1,.92-1.36,10.44,10.44,0,0,1,1.41-.53c.21-.07.43-.13.65-.18A2.43,2.43,0,0,0,8.31,10.6a2.85,2.85,0,0,0,2.39,0,2.35,2.35,0,0,0,.93,1.11A2.17,2.17,0,0,1,9.5,12.83a3.1,3.1,0,0,1-1.13-.21.47.47,0,0,0-.62.27.48.48,0,0,0,.2.59H8a4.14,4.14,0,0,0,1.48.28,3.11,3.11,0,0,0,3-1.7l.57.16A8.8,8.8,0,0,1,14.47,12.76Z"/></g></g></svg>