<svg xmlns="http://www.w3.org/2000/svg" viewBox="0 0 20.67 14.67"><defs><style>.cls-1{isolation:isolate;}.cls-2{fill:#8670b9;fill-rule:evenodd;}</style></defs><title>Menu icon</title><g id="Layer_2" data-name="Layer 2"><g id="Menu_icon" data-name="Menu icon" class="cls-1"><g id="Menu_icon-2" data-name="Menu icon"><path class="cls-2" d="M1.21,2.34H9.69A1.19,1.19,0,0,0,10.9,1.17,1.19,1.19,0,0,0,9.69,0H1.21A1.19,1.19,0,0,0,0,1.17,1.19,1.19,0,0,0,1.21,2.34ZM20.67,7a1.19,1.19,0,0,0-1.21-1.17H1.21a1.17,1.17,0,1,0,0,2.34H19.46A1.19,1.19,0,0,0,20.67,7Zm-1.21,5.31H10.17a1.17,1.17,0,1,0,0,2.34h9.29a1.17,1.17,0,1,0,0-2.34Z"/></g></g></g></svg>