<svg xmlns="http://www.w3.org/2000/svg" xmlns:xlink="http://www.w3.org/1999/xlink" viewBox="0 0 16 21"><defs><style>.cls-1{fill:none;}.cls-2{clip-path:url(#clip-path);}.cls-3{fill:#8c8fa9;}</style><clipPath id="clip-path"><rect class="cls-1" width="16" height="21"/></clipPath></defs><title>Asset 1</title><g id="Layer_2" data-name="Layer 2"><g id="Layer_1-2" data-name="Layer 1"><g class="cls-2"><path class="cls-3" d="M14,9v7.5c-.5.7-2.1,2.5-5.9,2.5S2.5,17.2,2,16.5V9H14m2-2H0V17s1.8,4,8.1,4c6.1,0,7.9-4,7.9-4Z"/></g><g class="cls-2"><path class="cls-3" d="M11,2a.94.94,0,0,1,1,1V6a.94.94,0,0,1-1,1H5A.94.94,0,0,1,4,6V3A.94.94,0,0,1,5,2h6m0-2H5A3,3,0,0,0,2,3V6A3,3,0,0,0,5,9h6a3,3,0,0,0,3-3V3a3,3,0,0,0-3-3"/></g><g class="cls-2"><rect class="cls-3" x="7.3" y="11.7" width="2.3" height="4"/></g></g></g></svg>