<svg xmlns="http://www.w3.org/2000/svg" viewBox="0 0 33.65 26.28"><title>selfie2</title><g id="aa594cf8-111b-4aa7-b470-f4c2b7d3edf2" data-name="Layer 2"><g id="a7698920-72e8-482d-92f4-8990c84aa6ab" data-name="Layer 2"><path d="M19,26.28a10,10,0,1,1,10-10A10,10,0,0,1,19,26.28ZM19,7.6a8.69,8.69,0,1,0,8.69,8.69A8.7,8.7,0,0,0,19,7.6Z"/><path d="M19.05,22.74a6.45,6.45,0,0,1-6.44-6.43,6.27,6.27,0,0,1,.65-2.73.64.64,0,0,1,.87-.3.66.66,0,0,1,.3.87,5.1,5.1,0,0,0,4.62,7.29h0a5.14,5.14,0,0,0,0-10.28h0a5,5,0,0,0-2.43.62A.65.65,0,1,1,16,10.64a6.38,6.38,0,0,1,3-.78h0a6.44,6.44,0,0,1,0,12.88Z"/><path d="M6.58,2.35H3.66a.65.65,0,0,1,0-1.3H6.58a.65.65,0,0,1,0,1.3Z"/><path d="M31.44,23.75h-2.6v-1.3h2.6a.91.91,0,0,0,.91-.91V6.41a.93.93,0,0,0-.91-1H27.69a.65.65,0,0,1-.47-.2L23.41,1.3H15l-3.9,4a.66.66,0,0,1-.46.19H2.16a.88.88,0,0,0-.61.29.87.87,0,0,0-.25.65V21.54a.91.91,0,0,0,.91.91h7v1.3h-7A2.21,2.21,0,0,1,0,21.54V6.41A2.15,2.15,0,0,1,.6,4.85a2.2,2.2,0,0,1,1.54-.7h8.19l3.9-4A.66.66,0,0,1,14.69,0h9a.63.63,0,0,1,.47.2l3.81,4h3.47a2.21,2.21,0,0,1,2.21,2.21V21.54A2.21,2.21,0,0,1,31.44,23.75Z"/><path d="M6,8.24A.94.94,0,1,1,5,7.3H5A.92.92,0,0,1,6,8.19H6Z"/></g></g></svg>