<svg xmlns="http://www.w3.org/2000/svg" xmlns:xlink="http://www.w3.org/1999/xlink" viewBox="0 0 2508.45 1226.88"><defs><style>.fbd67892-64ed-4e90-9ce9-12b4d7354414{fill:#ede7fa;}.e5050e8b-0421-43b8-b643-3a126ecaeacf{fill:#e3d8f6;}.a10ee2d2-464c-46d4-8765-c005612ceaa6,.a8078b10-03e6-46dc-97a3-9c77542832fa,.aa839a14-af2c-4329-8b56-ece7fe202622,.b991c961-4951-4a56-a946-954ecf763caf,.e5050e8b-0421-43b8-b643-3a126ecaeacf,.f8118b05-92fb-4a7a-96d1-66220b5c7002{fill-rule:evenodd;}.b991c961-4951-4a56-a946-954ecf763caf{fill:#d1c1f2;}.aa839a14-af2c-4329-8b56-ece7fe202622{fill:url(#b47f8a94-003a-4bb8-b67e-3b2f6c2db05b);}.a10ee2d2-464c-46d4-8765-c005612ceaa6{fill:url(#bb6d2775-c992-4976-9d81-0cc0a3026c1e);}.a8078b10-03e6-46dc-97a3-9c77542832fa{fill:url(#ad3adb02-e5a0-4d74-be2e-f6f9453bf900);}.e72f927e-d60e-4774-9561-7e1e9976c8bb{fill:#c3b2e6;}.a0ac99b7-d4d7-4bac-96e1-bdee55200427{opacity:0.4;}.abdee6e7-a307-4b33-84dd-6d30c995dcf9,.f8118b05-92fb-4a7a-96d1-66220b5c7002{fill:#b39fdb;}.f1bc5e30-bc58-4b51-8f4f-d868acbeb2e1{fill:#191656;}.a925bd4c-f107-4962-bb37-61f4fd6e2ae0{opacity:0.14;}.f12af0a8-45fc-4a1e-a2cf-156a97417407{fill:#0e024e;}.bc0ad1dc-d14c-443a-96ad-5ffb79cf7525{fill:url(#fc5b921c-132c-48a5-9ce9-d6880e99a5cf);}.a6584913-dea1-4835-b287-f8e225d6e288{fill:url(#b0fdc14b-677d-4449-8f44-10f557008fb8);}.b82c3a9c-e1d0-4ab2-b7ec-67411480a0f3{fill:url(#b78c2e85-87c3-4c78-9ec8-e409a2cbe81b);}.bb79e39a-4125-4021-8a5f-8f58e3bcf7b8{fill:url(#e190353c-cf9a-4d9f-9eac-46b14c71fbee);}.b7c07217-ed4d-4566-b26c-5fb6fbbc21da{fill:url(#e82b679c-6740-46ca-84bd-3d8aaf7c08c3);}.b4d6c206-cfd9-4fd8-8870-41e0b473492c{fill:url(#a2a9a129-9559-4aa7-9c4a-ef302012d09b);}.b7302765-5b6a-44c5-b6e1-8a6de5f14298{fill:url(#b16c060e-bdf4-4aad-8d10-9e80c98962aa);}.b9e550e6-e75c-40d2-8956-ef3587d92120{fill:#9a83ca;}.ad8d646a-5846-4c39-8842-4f587f34b3e0{fill:url(#b1e9f7da-731f-4f3a-a697-ce0b3d32da2e);}</style><linearGradient id="b47f8a94-003a-4bb8-b67e-3b2f6c2db05b" x1="1552.86" y1="173.38" x2="1552.86" y2="270.19" gradientTransform="translate(2076.68 1223.64) rotate(180)" gradientUnits="userSpaceOnUse"><stop offset="0" stop-color="#b4a1dc"/><stop offset="1" stop-color="#d1c1f2"/></linearGradient><linearGradient id="bb6d2775-c992-4976-9d81-0cc0a3026c1e" x1="1276.74" y1="243.85" x2="1156.84" y2="540.48" gradientTransform="matrix(-0.65, 0.17, -0.26, -0.97, 1614.73, 1081.9)" xlink:href="#b47f8a94-003a-4bb8-b67e-3b2f6c2db05b"/><linearGradient id="ad3adb02-e5a0-4d74-be2e-f6f9453bf900" x1="1269.06" y1="256.95" x2="1150.44" y2="550.41" gradientTransform="matrix(-0.65, 0.17, -0.26, -0.97, 1614.73, 1081.9)" xlink:href="#b47f8a94-003a-4bb8-b67e-3b2f6c2db05b"/><linearGradient id="fc5b921c-132c-48a5-9ce9-d6880e99a5cf" x1="1528.9" y1="93.64" x2="1848.08" y2="93.64" gradientTransform="matrix(1, 0, 0, -1, 0, 1223.64)" gradientUnits="userSpaceOnUse"><stop offset="0" stop-color="#fdc7bd"/><stop offset="1" stop-color="#d4715d"/></linearGradient><linearGradient id="b0fdc14b-677d-4449-8f44-10f557008fb8" x1="1716.17" y1="41.92" x2="1716.17" y2="133.49" gradientTransform="matrix(1, 0, 0, -1, 0, 1223.64)" gradientUnits="userSpaceOnUse"><stop offset="0" stop-color="#fdc7bd"/><stop offset="1" stop-color="#f7b1a5"/></linearGradient><linearGradient id="b78c2e85-87c3-4c78-9ec8-e409a2cbe81b" x1="1258.97" y1="51.74" x2="1258.97" y2="302.16" gradientTransform="matrix(1, 0, 0, -1, 0, 1223.64)" gradientUnits="userSpaceOnUse"><stop offset="0" stop-color="#75b2e1"/><stop offset="1" stop-color="#aed1e5"/></linearGradient><linearGradient id="e190353c-cf9a-4d9f-9eac-46b14c71fbee" x1="1097.58" y1="187.83" x2="1352.23" y2="187.83" gradientTransform="matrix(1, 0, 0, -1, 0, 1223.64)" gradientUnits="userSpaceOnUse"><stop offset="0" stop-color="#75b2e1" stop-opacity="0.5"/><stop offset="0.15" stop-color="#77b4e1" stop-opacity="0.54"/><stop offset="0.39" stop-color="#7dbae2" stop-opacity="0.64"/><stop offset="0.69" stop-color="#86c5e3" stop-opacity="0.8"/><stop offset="1" stop-color="#92d1e5"/></linearGradient><linearGradient id="e82b679c-6740-46ca-84bd-3d8aaf7c08c3" x1="943.69" y1="453.07" x2="943.69" y2="683.31" xlink:href="#b0fdc14b-677d-4449-8f44-10f557008fb8"/><linearGradient id="a2a9a129-9559-4aa7-9c4a-ef302012d09b" x1="963.53" y1="651.84" x2="974.43" y2="651.84" xlink:href="#b0fdc14b-677d-4449-8f44-10f557008fb8"/><linearGradient id="b16c060e-bdf4-4aad-8d10-9e80c98962aa" x1="877.01" y1="160.23" x2="877.01" y2="530.23" gradientTransform="matrix(1, 0, 0, -1, 0, 1223.64)" gradientUnits="userSpaceOnUse"><stop offset="0" stop-color="#1d1a5d"/><stop offset="1" stop-color="#2d2153"/></linearGradient><linearGradient id="b1e9f7da-731f-4f3a-a697-ce0b3d32da2e" x1="882.64" y1="40.29" x2="882.64" y2="521.74" xlink:href="#b0fdc14b-677d-4449-8f44-10f557008fb8"/></defs><title>SignIn</title><g id="a6ce12c2-443c-460a-947d-2eaae8db3717" data-name="Layer 2"><g id="a459fce7-9cfb-4f79-b72e-534750988cb6" data-name="Layer 1"><g id="a4d90f21-c456-4b5c-82c3-b37785a01dab" data-name="Layer 2"><g id="eed60fe5-01e5-4919-ae71-bbdd4962dcf8" data-name="Background"><g id="f2b28a93-33b4-48a9-8a02-c642051dc757" data-name="Background-2"><rect class="fbd67892-64ed-4e90-9ce9-12b4d7354414" x="0.02" width="2508.43" height="1211.21"/></g></g><g id="b9e2de90-b8b8-4e31-ade1-dadeef6bbf78" data-name="Rectangle 3"><g id="b0e657a1-c65c-4acf-87c1-1129b648c551" data-name="Rectangle 3-2"><path class="e5050e8b-0421-43b8-b643-3a126ecaeacf" d="M2508.45,1009.89C2291.3,988.89,2217.08,48.52,1869,109.1,1618.68,152.67,1625.21,655,1420.73,655c-99.48,0-176.2-27.12-312.17-179-105.38-117.71-222.91,235.39-327,99.13C652.06,405.51,628.37,193.11,623.12,0H71.69C26.58,232.65,9,498.44,0,699v512.24H2508.45Z"/></g></g><g id="bbb63abb-8be5-4836-a2fd-59503ef7458a" data-name="Rectangle 4"><g id="b1b8e592-2acc-4f6f-89b1-280aa1e1813c" data-name="Rectangle 4-2"><path class="b991c961-4951-4a56-a946-954ecf763caf" d="M2508.45,1087c-128.46-47.18-304.69-83.56-458.68-15.5-167.45,74-235.14-162.41-455.1-146.92-173.91,12.24-191.77,125.89-314.36,130.41-99.07,3.66-123-38.39-211.19-32-99.38,7.21-119.65,41.59-208,41.59-70.32,0-160.86-70.39-217.59-70.39-94.18,0-150.25,137-335.35,116.72C167,1095.44,68.58,1093.15,0,1097.87v113.28H2508.45Z"/></g><path class="aa839a14-af2c-4329-8b56-ece7fe202622" d="M472.67,982.3c42-3.93,86.57-3.93,125.92,11.81,26.9,12.23,65.2,31.3,85.15,56.15h4.82l.53-3.69c-9.18-72.14-99.72-93.12-158.72-93.12-63,0-110.18,39.35-171.82,47.22C396.59,1005.91,434.63,986.24,472.67,982.3Z"/><path class="a10ee2d2-464c-46d4-8765-c005612ceaa6" d="M689.37,1038.91c-8.35-37.76,9.53-84.48,20.5-110.71,21.36-52.31,21.65-115.67,12.07-181,38,62.3,45.63,166.34,17,216.91-13.76,25.13-51.48,40-49.05,81.21Z"/><path class="a8078b10-03e6-46dc-97a3-9c77542832fa" d="M690.47,1025.82a70.28,70.28,0,0,1,.68-16.07c1.05-5.41,3.32-9.94,5.6-14.22,4.89-9.18,9.79-18.35,14.9-27.26s10-17.91,12.74-29.15c1.37-5.51,2.49-11.2,4-16.64s2.83-10.67,4.1-16.11a277.29,277.29,0,0,0,5.73-32.12c2.39-21.4,1.29-43.9-1.31-66.6a281.21,281.21,0,0,0-5.74-34.1,127.28,127.28,0,0,0-8.8-25.68c37.68,62.37,45.12,165.83,16.55,216.22-12.06,22-42.49,36.14-48.22,67C690.63,1029.34,690.54,1027.57,690.47,1025.82Z"/></g><g id="aa8ba4a1-7aa6-4649-92f8-ca815de679a0" data-name="Ellipse 4"><g id="e01cd83b-951b-4522-8f24-749810a4616f" data-name="Ellipse 4-2"><path class="e72f927e-d60e-4774-9561-7e1e9976c8bb" d="M1942.37,322.21C1900,228,1807.52,140.87,1721.46,140.87s-116.37,57.54-114.4,138c.58,23.45,60.82,154.14,55.23,205-13.38,121.67-77.08,127.21-82.84,197.1-8.2,99.5,105.32,210.78,193.29,193.16C2014.19,825.82,1983.51,413.55,1942.37,322.21Z"/></g></g><g id="ba4ca4e5-688e-479b-91c1-e0bd0511edf9" data-name="Ellipse 4 copie" class="a0ac99b7-d4d7-4bac-96e1-bdee55200427"><g id="a450e09a-29ae-43d9-8b01-3af01114ec63" data-name="Ellipse 4 copie-2"><path class="abdee6e7-a307-4b33-84dd-6d30c995dcf9" d="M1966,428.44c-2.22-20.23,12.86,184.54-94.6,201.25-161.45,25.13-117.53-196.34-240.63-47.3-11.28,23.22-48.13,49.46-51.28,98.55-12.57,99,105.32,210.78,193.29,193.16C1958.42,836.94,1983.17,584.58,1966,428.44Z"/></g></g><g id="b048d8bb-5e00-4667-99c3-25d321400513" data-name="Rectangle 6"><g id="b374ff9d-f204-4a91-989a-40fba6a8581f" data-name="Rectangle 6-2"><path class="f1bc5e30-bc58-4b51-8f4f-d868acbeb2e1" d="M1800.37,822.82c-5.36-192.74-23.67-410-23.67-410h-4s5.73,194.9,3.66,380.41c-1.87,168.45-11.55,329.17-11.55,329.17h15.78S1804.81,981.58,1800.37,822.82Z"/></g></g><g id="a5725a21-7c3a-4aac-acb0-4f2d0ed2e0f9" data-name="Rectangle 7"><g id="f171e67f-93be-46f8-9eb6-22b77614a321" data-name="Rectangle 7-2"><path class="f8118b05-92fb-4a7a-96d1-66220b5c7002" d="M1988.85,1121.63c-18.49-.83-64.28,3.74-85.82-4.23-46.31-17.13-32.32-54.77-100.11-60.78-95.44-8.45-148.65,167.2-148.65,167.2l84.94-5s74.82-4.58,132.41.51c36,3.19,108,1.28,108,1.28l170.51-5.77S2122.08,1127.57,1988.85,1121.63Z"/></g><g id="a27a46bd-5c0a-4d2f-84bd-1a4516e168f2" data-name="Ellipse 5 copie 3" class="a925bd4c-f107-4962-bb37-61f4fd6e2ae0"><path class="f12af0a8-45fc-4a1e-a2cf-156a97417407" d="M1669.2,1184c-7-5.23-47.17-16.42-47.17-17.35,0-15.74-724.78-12.39-776.19-12.39s-93.08,12.76-93.08,28.5c0,7-13.82,18.57,0,23.54,17.07,6.15,64.67,5,93.08,5,43.35,0,745.37,26.39,842.63,10.52C1699.77,1219.91,1680.91,1192.69,1669.2,1184Z"/></g><g id="f3f75bfd-6292-4d08-a3be-746b1acb61b7" data-name="Ellipse 12 copie"><path class="bc0ad1dc-d14c-443a-96ad-5ffb79cf7525" d="M1847.63,1170.12c-16.84-5.82-60.8-20-64-23.26-16.48-16.87-20-39.26-34.89-39.26s-17-25.11-39.26,2.91c-3,3.81-134.55-17.44-157-21.81-15.76-3.07-38.35,37.8-10.18,61.07,21.3,17.58,117.6,18.9,122.15,18.9C1675.24,1168.67,1858.37,1173.82,1847.63,1170.12Z"/></g><g id="a1cf0857-b842-4883-a33f-34df7434d9cd" data-name="Ellipse 12"><path class="a6584913-dea1-4835-b287-f8e225d6e288" d="M1802.55,1135.23c-16.48-16.87-36.77-45.08-51.62-45.08s-38.56,10.76-38.56,27.67c0,4.87-108.37-14.53-130.87-18.91-15.76-3.06-63.07,37.81-34.89,61.07,21.29,17.59,117.59,18.91,122.14,18.91,10.84,0,222.28,8,225.39-2.91C1901.07,1151.69,1805.74,1138.49,1802.55,1135.23Z"/></g><g id="b366d623-0759-49bd-b1f7-8825bafc42e0" data-name="Ellipse 13"><path class="b82c3a9c-e1d0-4ab2-b7ec-67411480a0f3" d="M1580.07,1097.42c-8.71-11.49-72.74-27.78-133.78-27.63-47.63.12-87.19,18.17-138.14,4.36-126.34-34.24-206.48-74.6-206.48-83.6,0-38.15-43.42-69.07-91.61-69.07s-87.25,30.92-87.25,69.07c0,14.22,5.44,39.08,14.75,50.06,15.66,18.48,59.82,121.16,258.63,131,43.85,2.16,277-8.55,389.7,0C1605.81,1173.09,1588.59,1108.67,1580.07,1097.42Z"/></g><g id="f008ce99-5987-476e-ac44-709dce29f586" data-name="Forme 5"><path class="bb79e39a-4125-4021-8a5f-8f58e3bcf7b8" d="M1351.91,1079.31s-51.39-3.1-119.86-28.64c-60.73-19.34-121.08-45.64-130.38-60.12-4.24,2.1-4.09,32.64-4.09,32.64s135.65,53.49,206.81,56.89C1359.15,1082.69,1351.91,1079.31,1351.91,1079.31Z"/></g><g id="a8399f32-b7b2-48fd-abe0-09931a126381" data-name="Ellipse 16"><path class="b7c07217-ed4d-4566-b26c-5fb6fbbc21da" d="M1049.37,581.23c-.41-6.23-26.47-13.29-29.08-18.91-2.32-5-48.37-1.33-50.89-5.81-3.54-6.28-12.7-11.47-16-16-1.43-2-6,13.32-7.27,11.64-3-3.92-11.3.88-13.09-1.46s-4.36,7.93-4.36,7.27c0-3.52-3.41-5.13-7.27-7.27-3.19-1.76-12.19,4.36-16.72,4.36-10,0-18.18,5.21-18.18,11.64,0,2.68,5.44,37.11,0,74.15-7.6,51.8-61.38,113.3-45.7,127.81C862.65,788.87,996,642.41,997,642.3,1000.67,641.89,1051.28,610.53,1049.37,581.23Z"/></g><g id="a3d3b24c-6a9f-4056-8488-7aa41092422b" data-name="Forme 6"><polygon class="b4d6c206-cfd9-4fd8-8870-41e0b473492c" points="963.53 562.32 971.53 581.17 972.98 581.29 974.43 563.84 963.53 562.32"/></g><g id="ff9d29d0-795d-438a-8635-7d0afdc42db0" data-name="Ellipse 15"><path class="b7302765-5b6a-44c5-b6e1-8a6de5f14298" d="M925.72,901.12c-23-19,10.34-173.18-18.9-205-15.83-17.23-47.05,53.46-55.93,49.44-16.78-7.6-26.4,25.2-31.32,30.53-15.25,16.53-45.07,42.8-45.07,66.89s15.32,49.44,37.8,49.44c1.65,0-.93,13-1.12,19-1.47,47.64,18.69,163.29,44.74,151.1,58.18-27.22,123.6-118.41,123.6-132.32C979.52,922,948.55,920,925.72,901.12Z"/></g><g id="a4666de3-16e9-40a6-a38e-e9c37ff49087" data-name="Ellipse 17"><path class="b9e550e6-e75c-40d2-8956-ef3587d92120" d="M1103.12,621.94c0-31.32-23.11-56.71-51.62-56.71-9,0-17.47-1.83-24.84,2.63-5.58,3.37-19.79-15.9-47.14,26.45-2.73,4.23-40.1-1.34-36.35,1.46,1.69,1.25,21.82,13.08,17.45,20.35-4.48,7.46-33.4,10.38-26.17,13.09,12.08,4.53-31,.84-37.81,62.53-2,17.88,41.38,36.81,82.88,27.62,16.22-3.58,30.87,49,71.26,11.64,51.59-47.73,12.07-52.15,2.37-52.4-.55,0-1.09,0-1.65,0-.87,0-.08-.09,1.65,0C1080.9,677.64,1103.12,652.65,1103.12,621.94Z"/></g><g id="edf1d8d8-849a-4cc3-909c-ef6c298bea19" data-name="Ellipse 14"><path class="ad8d646a-5846-4c39-8842-4f587f34b3e0" d="M951.16,969.9c-1-15.06-13.23-31.87-15.26-36.79-10.11-24.47,31.23-232.89-29.08-231.2-43.18,1.22-31.56,57.35-25.28,119.58,4.88,48.38,7.89,93.94,6.38,98.53-21.2,64.41,25.08,181.67,10.17,225.38-8.94,26.22-47.54,20.36-50.89,20.36-20.88,0-33.44,9.55-33.44,12.36s12.56,2.18,33.44,2.18,96.46,12,91.61-11.63a504.79,504.79,0,0,1,1.6-71.28C944.22,1055.21,953.45,1003.61,951.16,969.9Z"/></g></g></g></g></g></svg>
