<svg xmlns="http://www.w3.org/2000/svg" viewBox="0 0 21 21">
  <defs>
    <style>.ab88c472-af27-4b2f-96ae-68a599a21123 {
      fill-rule: evenodd;
    }</style>
  </defs>
  <title>sun</title>
  <g id="a09c2f94-690e-4de2-ab43-6826534002ac" data-name="Layer 2">
    <g id="e2b5f58a-db64-4501-a7fc-eb01d878bc8e" data-name="Layer 1">
      <path class="ab88c472-af27-4b2f-96ae-68a599a21123"
            d="M10.5,5A5.5,5.5,0,1,0,16,10.5,5.5,5.5,0,0,0,10.5,5Zm0-2A1.5,1.5,0,1,0,9,1.5,1.5,1.5,0,0,0,10.5,3Zm7,13A1.5,1.5,0,1,0,19,17.5,1.5,1.5,0,0,0,17.5,16Zm-7,2A1.5,1.5,0,1,0,12,19.5,1.5,1.5,0,0,0,10.5,18Zm-7-3A1.5,1.5,0,1,0,5,16.5,1.5,1.5,0,0,0,3.5,15ZM3,10.5A1.5,1.5,0,1,0,1.5,12,1.5,1.5,0,0,0,3,10.5ZM3.5,5A1.5,1.5,0,1,0,2,3.5,1.5,1.5,0,0,0,3.5,5Zm14,0A1.5,1.5,0,1,0,16,3.5,1.5,1.5,0,0,0,17.5,5Zm2,4A1.5,1.5,0,1,0,21,10.5,1.5,1.5,0,0,0,19.5,9Z"/>
    </g>
  </g>
</svg>
