<svg xmlns="http://www.w3.org/2000/svg" viewBox="0 0 24.8 18.8"><defs><style>.e9fdc0ee-d021-42f0-a58d-997c0204ebc3,.f6cfe972-3fb2-43bd-9ee6-88818d86bb11{fill:none;stroke:#231f20;stroke-linecap:round;stroke-width:1.8px;}.e9fdc0ee-d021-42f0-a58d-997c0204ebc3{stroke-miterlimit:10;}.f6cfe972-3fb2-43bd-9ee6-88818d86bb11{stroke-linejoin:round;}</style></defs><title>ticket</title><g id="a69d4b71-7ffd-4276-b454-2e0858194ac7" data-name="Layer 2"><g id="b9298c9c-c659-4e3b-8aa5-e9a71c796d2e" data-name="set"><path class="e9fdc0ee-d021-42f0-a58d-997c0204ebc3" d="M.9,12.9a3,3,0,0,0,0-6"/><path class="e9fdc0ee-d021-42f0-a58d-997c0204ebc3" d="M23.9,12.9a3,3,0,0,1,0-6"/><path class="e9fdc0ee-d021-42f0-a58d-997c0204ebc3" d="M.9,6.9v-5a1,1,0,0,1,1-1h21a1,1,0,0,1,1,1v5"/><path class="e9fdc0ee-d021-42f0-a58d-997c0204ebc3" d="M23.9,12.9v4a1,1,0,0,1-1,1H1.9a1,1,0,0,1-1-1v-4"/><line class="f6cfe972-3fb2-43bd-9ee6-88818d86bb11" x1="16.9" y1="0.9" x2="16.9" y2="17.9"/></g></g></svg>