<svg xmlns="http://www.w3.org/2000/svg" viewBox="0 0 20 24"><defs><style>.cls-1{fill:none;stroke:#8c8fa9;stroke-linecap:round;stroke-linejoin:round;}.cls-2{fill:#8c8fa9;}</style></defs><title>time</title><g id="Layer_2" data-name="Layer 2"><g id="set"><polyline class="cls-1" points="0.5 2.5 0.5 0.5 19.5 0.5 19.5 2.5"/><polyline class="cls-1" points="19.5 21.5 19.5 23.5 0.5 23.5 0.5 21.5"/><path class="cls-1" d="M17,21.5c0-1.86-.22-3.48-1.6-4.88s-4.6-1.71-3.86-4.33c.28-1,1.08-1.21,1.88-1.61a7.51,7.51,0,0,0,3-2.79A9.79,9.79,0,0,0,17.5,2.5"/><path class="cls-1" d="M2.5,2.5A9.79,9.79,0,0,0,3.59,7.89a7.53,7.53,0,0,0,3,2.79c1,.51,1.86.85,1.94,2.14a2,2,0,0,1-1,2A11.66,11.66,0,0,0,4.6,16.62C3.22,18,3,19.64,3,21.5"/><path class="cls-2" d="M11.68,12.82s-1.36,1.11,3.06,3.35c2,0,2,4.91,2.51,5.6s-13.87.74-14.36.05c-.16-.31-.39-4.18,1.63-5,2.93-1.09,4-3.23,4-4S3.59,7.89,3.59,7.89,1.93,2.71,2.3,2.11c.2-1,15.4-.7,15.4,0s-.2,6.64-3,7.35C11.79,11.11,11.68,12.82,11.68,12.82Z"/></g></g></svg>