<svg xmlns="http://www.w3.org/2000/svg" viewBox="0 0 20 24"><title>time-o</title><g id="b22c6a61-34cf-4bbc-ad18-d96efd29bf8a" data-name="Layer 2"><g id="b6d5ef20-6610-4532-834e-086e827c3c4c" data-name="Layer 1"><path d="M12,12.42c-.38,1.34.44,1.85,1.92,2.64a7.69,7.69,0,0,1,1.82,1.21c1.44,1.47,1.74,3.15,1.74,5.23a.5.5,0,0,1-.5.5.25.25,0,0,1-.12,0c-2,.44-11.79.45-13.68,0A.45.45,0,0,1,3,22a.5.5,0,0,1-.5-.5c0-2.09.3-3.78,1.75-5.23a12,12,0,0,1,3.08-1.91A1.48,1.48,0,0,0,8,12.88c0-.9-.51-1.17-1.46-1.65l-.21-.1a8.05,8.05,0,0,1-3.2-3A10.28,10.28,0,0,1,2,2.46.48.48,0,0,1,2.35,2c1-.86,14.12-.62,15.27,0a.49.49,0,0,1,.38.43,10.2,10.2,0,0,1-1.14,5.66,8,8,0,0,1-3.21,3l-.39.18C12.56,11.63,12.19,11.83,12,12.42Z"/><path d="M20,21.5v2a.5.5,0,0,1-.5.5H.5a.5.5,0,0,1-.5-.5v-2A.5.5,0,0,1,.5,21a.5.5,0,0,1,.5.5V23H19V21.5a.5.5,0,0,1,1,0Z"/><path d="M20,.5v2a.5.5,0,0,1-1,0V1H1V2.5A.5.5,0,0,1,.5,3,.5.5,0,0,1,0,2.5V.5A.5.5,0,0,1,.5,0h19A.5.5,0,0,1,20,.5Z"/></g></g></svg>