<svg xmlns="http://www.w3.org/2000/svg" viewBox="0 0 18.67 15"><defs><style>.cls-1{opacity:0.88;}.cls-2{fill:#4d4995;fill-rule:evenodd;}</style></defs><title>Forma 1</title><g id="Layer_2" data-name="Layer 2"><g id="Layer_1-2" data-name="Layer 1"><g id="Forma_1" data-name="Forma 1" class="cls-1"><path class="cls-2" d="M18.67,1.78a7.78,7.78,0,0,1-2.2.59A3.79,3.79,0,0,0,18.15.28a7.84,7.84,0,0,1-2.43.92A3.83,3.83,0,0,0,9.1,3.79a3.55,3.55,0,0,0,.1.86,10.93,10.93,0,0,1-7.9-4A3.76,3.76,0,0,0,2.49,5.75,3.8,3.8,0,0,1,.75,5.27v.05A3.82,3.82,0,0,0,3.82,9a4.17,4.17,0,0,1-1,.13,4.39,4.39,0,0,1-.72-.07,3.84,3.84,0,0,0,3.58,2.63A7.71,7.71,0,0,1,.91,13.35a9.08,9.08,0,0,1-.91,0A11,11,0,0,0,5.87,15,10.76,10.76,0,0,0,16.77,4.22l0-.49A7.9,7.9,0,0,0,18.67,1.78Z"/></g></g></g></svg>